<?xml version="1.0" encoding="UTF-8" standalone="no"?>
<!-- Created with Inkscape (http://www.inkscape.org/) -->

<svg
   xmlns:dc="http://purl.org/dc/elements/1.1/"
   xmlns:cc="http://creativecommons.org/ns#"
   xmlns:rdf="http://www.w3.org/1999/02/22-rdf-syntax-ns#"
   xmlns:svg="http://www.w3.org/2000/svg"
   xmlns="http://www.w3.org/2000/svg"
   xmlns:sodipodi="http://sodipodi.sourceforge.net/DTD/sodipodi-0.dtd"
   xmlns:inkscape="http://www.inkscape.org/namespaces/inkscape"
   id="svg2"
   version="1.1"
   inkscape:version="0.91 r13725"
   width="3389.0859"
   height="3393.5583"
   viewBox="0 0 3389.0859 3393.5584"
   sodipodi:docname="CUSTOM EXPLORER FORMAT ICON.v2.svg">
  <metadata
     id="metadata8">
    <rdf:RDF>
      <cc:Work
         rdf:about="">
        <dc:format>image/svg+xml</dc:format>
        <dc:type
           rdf:resource="http://purl.org/dc/dcmitype/StillImage" />
        <dc:title></dc:title>
      </cc:Work>
    </rdf:RDF>
  </metadata>
  <defs
     id="defs6" />
  <sodipodi:namedview
     pagecolor="#ffffff"
     bordercolor="#666666"
     borderopacity="1"
     objecttolerance="10"
     gridtolerance="10"
     guidetolerance="10"
     inkscape:pageopacity="0"
     inkscape:pageshadow="2"
     inkscape:window-width="1920"
     inkscape:window-height="1017"
     id="namedview4"
     showgrid="false"
     fit-margin-top="0"
     fit-margin-left="0"
     fit-margin-right="0"
     fit-margin-bottom="0"
     inkscape:zoom="0.14833529"
     inkscape:cx="1617.6871"
     inkscape:cy="1682.7882"
     inkscape:window-x="-8"
     inkscape:window-y="-8"
     inkscape:window-maximized="1"
     inkscape:current-layer="svg2" />
  <g
     id="g4172"
     transform="matrix(25,0,0,25,-333.65188,-51.147163)">
    <path
       style="fill-opacity:1"
       d="m 71.71875,137.37526 c -0.515625,-0.15907 -3.46875,-0.82833 -6.5625,-1.48725 -23.667618,-5.04083 -44.508532,-25.82828 -50.235611,-50.10676 -1.706731,-7.235242 -1.706731,-24.639758 0,-31.875 C 20.638445,29.667092 40.917092,9.3884447 65.15625,3.6706385 c 7.235242,-1.7067305 24.639758,-1.7067305 31.875,0 24.23916,5.7178062 44.51781,25.9964535 50.23561,50.2356115 1.70673,7.235242 1.70673,24.639758 0,31.875 -5.82538,24.69522 -26.34512,44.87656 -51.358182,50.51123 -5.76344,1.29833 -21.244916,1.9913 -24.189928,1.08278 z m 20.462525,-6.53353 C 124.98023,124.56625 146.5237,94.759303 142.38056,61.3874 139.0906,34.887666 117.91622,13.265636 90.725026,8.6398295 82.929855,7.3137031 80.574623,7.2672132 73.4408,8.2986571 44.960874,12.416427 23.90266,33.308095 19.586894,61.726642 16.156974,84.312042 27.329651,108.726 46.875,121.35519 c 14.691045,9.4926 29.293813,12.55023 45.306275,9.48654 z M 34.615385,92.884615 C 32.745075,91.014306 31.875,89.205466 31.875,87.1875 c 0,-4.158352 4.398342,-8.4375 8.672523,-8.4375 2.598496,0 4.253226,-1.001967 8.902519,-5.390625 3.140921,-2.964844 8.026307,-7.385259 10.856416,-9.823146 4.885608,-4.208518 5.12124,-4.614514 4.662625,-8.03375 -0.662128,-4.936529 2.396554,-8.536385 7.877752,-9.271569 3.512653,-0.471145 4.256829,-0.208978 6.894795,2.42899 2.509462,2.509461 2.892677,3.485236 2.531336,6.445494 -0.379155,3.106193 0.0823,4.07892 4.212125,8.878981 4.214944,4.898993 4.981563,5.390625 8.405781,5.390625 4.256137,0 7.149598,-2.133867 14.894508,-10.98441 3.24159,-3.70435 4.58962,-6.046147 4.58962,-7.973088 0,-1.500547 0.43438,-3.539916 0.96529,-4.531931 1.22992,-2.298131 5.71968,-4.635571 8.90402,-4.635571 3.52758,0 7.94319,4.690387 7.94319,8.4375 0,3.923557 -4.40913,8.4375 -8.24157,8.4375 -2.183,0 -4.55261,1.696306 -11.32212,8.105015 -7.42201,7.026437 -8.56131,8.516579 -8.56131,11.197722 0,1.917693 -0.85962,4.092076 -2.26258,5.723109 -1.878751,2.18418 -3.005786,2.630404 -6.64367,2.630404 -3.637882,0 -4.76492,-0.446224 -6.643673,-2.630404 C 87.098468,81.506846 86.25,79.347444 86.25,77.392453 c 0,-2.62273 -0.91723,-3.977184 -5.678438,-8.385222 C 77.448422,66.115754 74.130316,63.75 73.197993,63.75 c -2.319599,0 -5.692621,2.662097 -15.307368,12.081067 -7.078665,6.934527 -8.203125,8.466312 -8.203125,11.174627 0,2.218909 -0.802965,3.941502 -2.740385,5.878921 -3.782172,3.782172 -8.549558,3.782172 -12.33173,0 z"
       id="path4186"
       inkscape:connector-curvature="0" />
    <path
       style="fill-opacity:1"
       d="M 69.810829,136.8674 C 44.113246,132.20472 22.652651,113.07754 15.829177,88.755172 c -3.034975,-10.818207 -3.034975,-27.004637 0,-37.822845 6.004333,-21.402521 24.950629,-40.348817 46.35315,-46.3531504 10.818208,-3.0349748 27.004638,-3.0349748 37.822843,0 21.40252,6.0043334 40.34882,24.9506294 46.35315,46.3531514 3.03498,10.818207 3.03498,27.004637 0,37.822845 -5.86327,20.899697 -23.92685,39.379857 -44.85624,45.890737 -8.228784,2.55986 -23.807698,3.65192 -31.691251,2.22149 z m 21.657616,-5.64667 c 12.264065,-2.13138 23.814695,-8.27528 33.321725,-17.72418 9.9584,-9.89752 15.92988,-21.727792 17.83254,-35.32853 C 144.56792,64.263 142.18007,52.816559 134.13892,37.5 131.35308,32.193622 119.01723,19.848386 113.4375,16.782834 91.036509,4.4755357 71.150991,4.4755357 48.75,16.782834 43.31153,19.770777 31.020777,32.06153 28.032834,37.5 c -12.307298,22.400991 -12.307298,42.286509 0,64.6875 2.991114,5.44424 15.284394,17.73404 20.717166,20.7113 15.04455,8.24469 28.302058,10.82737 42.718445,8.32193 z M 34.615385,92.884615 C 29.321893,87.591124 32.274886,80.084171 40.0615,79.039767 c 3.408847,-0.457222 5.478886,-1.9063 14.762115,-10.333843 9.384628,-8.519596 10.722937,-10.098317 10.228958,-12.066487 -0.917906,-3.657223 0.4087,-6.879588 3.644462,-8.852513 4.028553,-2.456309 7.516052,-2.328841 10.677187,0.390253 2.099493,1.805907 2.619229,3.061632 2.683548,6.483667 0.06867,3.653756 0.701779,4.97206 4.552239,9.479073 4.142671,4.849047 4.769536,5.235083 8.500997,5.235083 3.640031,0 4.560263,-0.519858 9.542224,-5.390625 7.65462,-7.483776 9.72177,-10.364379 9.72177,-13.547438 0,-3.73865 1.41023,-6.085947 4.66873,-7.770984 3.89624,-2.014821 7.01789,-1.756857 10.02331,0.828297 2.08567,1.794015 2.6091,3.036489 2.6091,6.19325 0,3.156761 -0.52343,4.399235 -2.6091,6.19325 -1.48814,1.280042 -3.8077,2.24425 -5.39891,2.24425 -2.23616,0 -4.45839,1.617648 -11.19772,8.151305 -7.10352,6.886722 -8.40791,8.612417 -8.40791,11.123569 0,6.546172 -7.047862,10.586486 -13.051387,7.481943 C 87.961043,83.304563 86.25,80.275323 86.25,76.452709 c 0,-3.011861 -11.519858,-13.824992 -13.830143,-12.981683 -2.661213,0.971407 -5.844967,3.649972 -14.529232,12.22378 -7.103784,7.01343 -8.203125,8.524327 -8.203125,11.274106 0,2.259563 -0.790322,3.965641 -2.740385,5.915703 -3.782172,3.782173 -8.549558,3.782173 -12.33173,0 z"
       id="path4184"
       inkscape:connector-curvature="0" />
    <path
       style="fill-opacity:1"
       d="M 70.651717,136.87321 C 46.492516,133.33551 24.428146,114.8675 16.890791,91.875 8.7037103,66.900528 14.925651,40.237881 33.206766,21.956766 59.782024,-4.6184923 102.6419,-4.58704 129.00687,22.027069 c 26.547,26.797861 26.53543,69.142096 -0.0262,95.703671 -15.50091,15.5009 -36.387393,22.35545 -58.329022,19.14247 z m 21.411513,-5.68295 c 6.197879,-1.24412 8.80165,-2.18018 17.62427,-6.33598 5.49121,-2.58658 8.79153,-5.07228 15.06802,-11.34876 6.27648,-6.27649 8.76218,-9.57681 11.34876,-15.06802 5.69259,-12.085149 7.33322,-18.48233 7.33322,-28.59375 0,-10.11142 -1.64063,-16.508601 -7.33322,-28.59375 C 131.43276,31.332527 119.60497,19.504747 109.6875,14.833223 100.86488,10.677419 98.261109,9.7413544 92.06323,8.497241 78.496563,5.7739755 62.245303,8.8261326 48.75,16.63192 43.255842,19.809783 32.630975,30.064014 29.049616,35.645078 17.715153,53.308308 15.799157,74.320332 23.760232,93.651811 c 3.628547,8.811009 7.407783,14.193019 14.998156,21.358819 14.481545,13.67154 34.909752,19.87212 53.304842,16.17963 z M 36.897187,94.739044 c -4.24781,-1.8065 -6.216974,-7.31733 -4.056896,-11.353473 C 34.115586,81.002662 38.597286,78.75 42.062819,78.75 c 1.529512,0 2.921556,-0.316406 3.093431,-0.703125 0.171875,-0.386719 4.843581,-4.864668 10.381569,-9.950998 8.693447,-7.984443 9.991757,-9.555908 9.503175,-11.502574 -1.413026,-5.62994 4.422843,-11.375436 10.412938,-10.251687 4.411844,0.827667 6.520797,3.616948 6.55151,8.664965 0.02297,3.774851 0.557018,4.828644 4.851694,9.573394 4.660959,5.14942 4.964684,5.318395 8.88717,4.944326 3.645835,-0.347686 4.806494,-1.152817 11.345994,-7.870465 5.74,-5.896372 7.2847,-8.067752 7.2847,-10.240053 0,-6.365996 5.28743,-11.004635 11.09087,-9.729984 4.04004,0.887344 6.21027,3.745228 6.21027,8.178083 0,4.561774 -3.58839,8.263118 -8.01096,8.263118 -2.23491,0 -4.47162,1.618433 -11.19772,8.102407 -7.15479,6.897247 -8.40496,8.550222 -8.40496,11.113104 0,3.529766 -3.33024,7.595617 -6.969544,8.509023 C 91.919278,87.148044 86.25,82.343316 86.25,76.660099 c 0,-1.435991 -2.027752,-4.192741 -5.925666,-8.056008 -5.552012,-5.502664 -6.08976,-5.810605 -8.52801,-4.883585 -2.502383,0.951404 -7.864704,5.653538 -17.552067,15.391125 -3.609529,3.628243 -4.556757,5.225145 -4.556757,7.682097 0,6.005579 -7.05146,10.385938 -12.790313,7.945316 z"
       id="path4182"
       inkscape:connector-curvature="0" />
    <path
       style="fill-opacity:1"
       d="M 72.65625,137.1929 C 66.534473,136.50692 56.204088,133.16154 49.6875,129.75474 33.259814,121.16653 21.86804,107.37519 16.270971,89.299357 12.819465,78.152659 12.651323,62.224253 15.872618,51.5625 22.950857,28.135134 39.385134,11.700857 62.8125,4.622618 c 9.993595,-3.01942 26.568905,-3.01942 36.5625,0 23.42737,7.078239 39.86165,23.512516 46.93988,46.939882 3.01942,9.993595 3.01942,26.568905 0,36.5625 -7.02706,23.25796 -23.74257,40.07076 -46.47113,46.74158 -6.607697,1.93936 -20.234963,3.10539 -27.1875,2.32632 z m 23.334862,-6.85415 C 129.34967,121.80707 149.9693,87.714019 141.58875,54.946388 131.60329,15.90359 87.870518,-3.9935719 52.687048,14.498649 21.918832,30.670239 9.8944688,68.081193 25.760483,98.274272 39.308618,124.05642 68.480011,137.3749 95.991112,130.33875 Z M 35.948841,93.863016 C 28.623367,89.276525 32.681236,78.75 41.774752,78.75 c 1.872849,0 5.158965,-2.48655 13.212275,-9.99751 9.738949,-9.083079 10.667371,-10.234435 10.15048,-12.587823 -1.245707,-5.67167 4.659973,-11.106992 10.640861,-9.793368 4.256915,0.934975 6.129566,3.637633 6.25169,9.022599 0.09935,4.380856 0.443724,5.025079 5.210039,9.746548 5.098693,5.050719 5.107754,5.054859 9.322403,4.259445 3.62353,-0.683855 5.17772,-1.816049 11.01563,-8.024647 5.24405,-5.577042 6.79687,-7.855568 6.79687,-9.973407 0,-6.354335 5.29236,-10.991605 11.09087,-9.718038 4.04236,0.887851 6.21027,3.744909 6.21027,8.184439 0,3.069605 -0.52515,4.201145 -2.7912,6.014211 -1.53516,1.228281 -3.84588,2.241793 -5.13494,2.25225 -3.14858,0.02554 -3.96473,0.621261 -12.40222,9.052537 -5.99449,5.990086 -7.28528,7.801186 -7.28528,10.221949 0,3.458951 -3.36666,7.536081 -6.969544,8.440349 C 91.774568,87.184364 86.25,82.33072 86.25,76.323387 c 0,-1.881773 -1.483496,-3.906118 -5.859375,-7.995572 -3.222656,-3.011715 -6.28125,-5.469776 -6.796875,-5.462359 -1.985075,0.02856 -5.278831,2.6128 -14.802402,11.613804 -9.155757,8.653373 -9.830063,9.533814 -9.388001,12.257922 1.051242,6.478043 -7.367587,10.936856 -13.454506,7.125834 z"
       id="path4180"
       inkscape:connector-curvature="0" />
    <path
       style="fill-opacity:1"
       d="m 71.71875,136.93364 c -27.86929,-4.5487 -48.99011,-23.57238 -56.331137,-50.737874 -2.206553,-8.165357 -2.206553,-24.538675 0,-32.704032 6.650464,-24.610065 24.744056,-42.703657 49.354121,-49.3541213 8.165357,-2.206553 24.538675,-2.206553 32.704032,0 24.610064,6.6504643 42.703654,24.7440563 49.354124,49.3541213 2.20655,8.165357 2.20655,24.538675 0,32.704032 -6.60818,24.453604 -25.05799,42.991274 -48.948909,49.182034 -6.971806,1.80658 -19.885411,2.57542 -26.132231,1.55584 z m 24.701934,-6.64486 C 124.54853,122.49415 143.4375,98.210419 143.4375,69.84375 143.4375,35.620687 115.31681,7.5 81.09375,7.5 46.870687,7.5 18.75,35.620687 18.75,69.84375 c 0,34.10841 27.813691,62.10171 61.893843,62.29352 6.213889,0.035 11.006471,-0.52655 15.776841,-1.84849 z M 36.45755,94.219087 C 28.691937,89.998555 32.558414,78.75 41.774752,78.75 c 1.872849,0 5.158965,-2.48655 13.212275,-9.99751 9.738949,-9.083079 10.667371,-10.234435 10.15048,-12.587823 -0.831914,-3.787683 1.681169,-7.9819 5.547044,-9.257754 6.500846,-2.145472 12.742786,2.986746 11.34924,9.33152 -0.589871,2.685662 2.332674,7.133873 7.597918,11.564283 2.451635,2.062915 3.256743,2.244792 6.960913,1.572489 3.622918,-0.657556 5.170328,-1.793108 11.457338,-8.407862 5.94417,-6.254056 7.16882,-8.045585 6.72058,-9.831514 -1.25439,-4.997914 5.03035,-10.844959 10.24897,-9.535171 4.42245,1.109965 6.65663,3.826103 6.65663,8.092614 0,3.263715 -0.48842,4.346721 -2.7912,6.189177 -1.53516,1.228281 -4.05681,2.247547 -5.60369,2.265036 -3.97522,0.04494 -19.21875,14.470291 -19.21875,18.18719 0,4.04276 -2.47559,7.783727 -5.89845,8.913369 C 91.976891,87.289992 86.25,82.951748 86.25,76.222894 c 0,-2.004035 -1.362582,-3.888957 -5.794145,-8.015306 -3.18678,-2.967299 -6.530945,-5.395088 -7.43148,-5.395088 -0.900534,0 -6.742711,4.692257 -12.982615,10.427237 -9.038076,8.306729 -11.227203,10.799263 -10.764659,12.256611 0.864858,2.724925 -1.372159,7.220198 -4.362595,8.766614 -3.254634,1.683038 -5.299022,1.672426 -8.456956,-0.04387 z"
       id="path4178"
       inkscape:connector-curvature="0" />
    <path
       style="fill-opacity:1"
       d="m 72.15861,136.94285 c -18.527016,-2.55298 -37.084471,-14.2482 -47.494789,-29.93202 -14.60235,-21.999364 -14.60235,-52.334796 0,-74.334165 C 38.526513,11.791636 64.655227,-0.42623654 88.632759,2.7645783 120.86722,7.0541842 143.88227,30.062415 148.17022,62.284372 150.94027,83.1001 141.79181,106.79961 125.625,120.68883 111.31027,132.98689 90.144748,139.4213 72.15861,136.94285 Z m 21.669109,-5.7971 C 118.37203,125.88194 137.73154,106.18032 142.58101,81.530911 144.01819,74.225888 143.22108,58.119785 141.12104,52.03125 134.52101,32.896094 121.85813,18.933403 105.02982,12.235391 95.514619,8.4481454 91.006033,7.5499798 81.37427,7.5229181 71.709953,7.4957649 65.779006,8.6446478 57.093139,12.226412 c -19.012198,7.84 -32.955,24.616851 -37.301389,44.883366 -1.337575,6.236898 -1.337575,19.231046 0,25.467944 5.096623,23.764738 23.146647,42.208858 47.2395,48.270888 5.943199,1.49538 20.458753,1.65634 26.796469,0.29714 z M 36.45755,94.219087 c -3.550013,-1.929397 -5.135772,-6.245168 -3.630209,-9.879915 1.351487,-3.26278 3.260524,-4.496126 8.375633,-5.411131 2.881543,-0.51546 5.740757,-2.629679 14.081317,-10.412295 9.181101,-8.56693 10.393773,-10.051694 9.880369,-12.097258 -0.875813,-3.489517 1.164738,-7.344234 4.801279,-9.069886 6.57538,-3.120222 12.953963,1.88775 11.934624,9.370148 -0.316968,2.326683 0.415107,3.682354 4.238138,7.848266 4.118929,4.488349 5.082477,5.066598 8.863808,5.319387 4.226494,0.28255 4.273088,0.251913 12.331561,-8.107466 6.42705,-6.667051 7.96387,-8.785424 7.47987,-10.310373 C 113.52691,47.413495 118.60807,41.25 123.23808,41.25 c 5.08177,0 9.6536,5.774126 8.43047,10.647504 -0.78425,3.124691 -5.01748,6.222432 -8.53202,6.243451 -3.72645,0.02229 -19.6917,14.822084 -19.23356,17.829525 0.51057,3.35169 -1.6946,7.243475 -4.990523,8.807493 -3.804853,1.805523 -3.707541,1.805523 -7.512397,0 C 88.122645,83.222742 85.893216,79.316841 86.409536,76.034722 86.830835,73.356629 76.490116,62.8125 73.442387,62.8125 c -2.157353,0 -6.731592,3.724615 -18.841327,15.341718 -4.386719,4.208265 -5.7258,6.076043 -5.305514,7.400246 0.848492,2.673361 -1.416385,7.175414 -4.38104,8.708498 -3.254634,1.683038 -5.299022,1.672425 -8.456956,-0.04387 z"
       id="path4176"
       inkscape:connector-curvature="0" />
    <path
       style="fill-opacity:1"
       d="M 70.78125,136.45009 C 39.942285,130.997 18.550343,108.67994 14.041029,77.256087 c -0.826056,-5.756505 -0.826574,-9.376508 -0.0022,-15 4.744546,-32.362822 27.268076,-54.8193311 59.64254,-59.4650572 22.184862,-3.18352153 47.743321,8.0771862 61.802201,27.2292092 9.76029,13.296189 14.86983,32.437964 12.65551,47.411174 -2.32343,15.711015 -8.06545,27.941167 -18.09937,38.550557 -10.82725,11.44822 -24.40722,18.39893 -40.688085,20.82561 -8.034618,1.19758 -9.98875,1.15995 -18.570419,-0.35749 z m 19.693477,-4.64865 c 8.196351,-1.44251 9.722913,-1.96631 20.150273,-6.91396 9.78707,-4.64384 20.81892,-15.6571 25.55556,-25.51248 7.00895,-14.583322 9.04606,-24.977888 7.22943,-36.889106 C 139.50108,36.85581 123.87638,18.216604 99.375,9.9551269 90.969483,7.1209192 81.981679,6.2699145 73.735894,7.5275038 58.59897,9.8360813 47.192486,15.475023 36.958755,25.708755 26.725023,35.942486 21.086081,47.34897 18.777503,62.485894 16.960888,74.397112 18.99799,84.791678 26.006941,99.375 c 4.724826,9.83081 15.758755,20.85549 25.555559,25.53415 9.590601,4.58019 12.458897,5.58705 19.618918,6.8869 8.423702,1.52925 10.631159,1.52987 19.293309,0.006 z M 36.858103,94.109962 c -6.027754,-2.972537 -5.876048,-11.020346 0.262651,-13.933349 1.782117,-0.84567 4.005428,-1.294712 4.940691,-0.997872 1.745542,0.554014 9.501792,-5.955763 18.784197,-15.765471 3.541424,-3.742602 4.320966,-5.200249 4.368657,-8.168843 0.10161,-6.324872 5.499833,-10.247995 11.415035,-8.295802 3.850984,1.270939 5.858446,5.181819 5.2179,10.165368 -0.39031,3.036662 0.0236,3.799221 4.365177,8.042257 4.241543,4.145266 5.285038,4.700972 9.020789,4.803959 4.108641,0.113268 4.440197,-0.101762 12.09773,-7.845938 7.37925,-7.462735 7.86396,-8.197284 7.72407,-11.705428 -0.12492,-3.132359 0.34518,-4.184821 2.8814,-6.450936 3.39146,-3.03026 5.6113,-3.345473 9.47811,-1.345868 3.2065,1.658147 5.11116,5.870406 4.23426,9.36428 -0.73857,2.94267 -5.34593,6.139972 -8.85531,6.145177 -1.66883,0.0024 -4.89334,2.36357 -10.97882,8.039075 -7.72705,7.206481 -8.56184,8.30656 -8.09076,10.661997 0.8054,4.026952 -3.870333,8.864932 -8.56763,8.864932 -4.786412,0 -9.37386,-4.833825 -8.540738,-8.999435 0.485867,-2.429335 -0.111131,-3.428375 -4.970739,-8.318247 -7.962449,-8.012034 -8.403508,-7.913175 -21.952895,4.920514 -9.396811,8.900458 -10.979536,10.806997 -10.513373,12.66434 0.799187,3.184215 -1.769713,7.425825 -5.227417,8.631184 -3.695685,1.288322 -3.487086,1.302319 -7.092985,-0.475894 z"
       id="path4174"
       inkscape:connector-curvature="0" />
  </g>
</svg>
