<?xml version="1.0" encoding="UTF-8" standalone="no"?>
<!-- Created with Inkscape (http://www.inkscape.org/) -->

<svg
   xmlns:osb="http://www.openswatchbook.org/uri/2009/osb"
   xmlns:dc="http://purl.org/dc/elements/1.1/"
   xmlns:cc="http://creativecommons.org/ns#"
   xmlns:rdf="http://www.w3.org/1999/02/22-rdf-syntax-ns#"
   xmlns:svg="http://www.w3.org/2000/svg"
   xmlns="http://www.w3.org/2000/svg"
   xmlns:sodipodi="http://sodipodi.sourceforge.net/DTD/sodipodi-0.dtd"
   xmlns:inkscape="http://www.inkscape.org/namespaces/inkscape"
   id="svg2"
   version="1.1"
   inkscape:version="0.91 r13725"
   width="2850.2"
   height="2850.2"
   viewBox="0 0 2850.2 2850.2"
   sodipodi:docname="WB.v20.svg">
  <metadata
     id="metadata8">
    <rdf:RDF>
      <cc:Work
         rdf:about="">
        <dc:format>image/svg+xml</dc:format>
        <dc:type
           rdf:resource="http://purl.org/dc/dcmitype/StillImage" />
        <dc:title></dc:title>
      </cc:Work>
    </rdf:RDF>
  </metadata>
  <defs
     id="defs6">
    <linearGradient
       id="linearGradient4142"
       osb:paint="solid">
      <stop
         style="stop-color:#000000;stop-opacity:1;"
         offset="0"
         id="stop4144" />
    </linearGradient>
  </defs>
  <sodipodi:namedview
     pagecolor="#ffffff"
     bordercolor="#666666"
     borderopacity="1"
     objecttolerance="10"
     gridtolerance="10"
     guidetolerance="10"
     inkscape:pageopacity="0"
     inkscape:pageshadow="2"
     inkscape:window-width="1920"
     inkscape:window-height="1017"
     id="namedview4"
     showgrid="false"
     inkscape:zoom="0.23733646"
     inkscape:cx="1482.0971"
     inkscape:cy="1468.6579"
     inkscape:window-x="-8"
     inkscape:window-y="-8"
     inkscape:window-maximized="1"
     inkscape:current-layer="svg2"
     fit-margin-top="0"
     fit-margin-left="0"
     fit-margin-right="0"
     fit-margin-bottom="0" />
  <path
     style="fill:#ffffff;fill-opacity:1"
     d="m 1312.0358,2820.703 c 0,-3.7504 -1.3034,-3.9369 -27.6094,-3.9518 -13.9476,-0.01 -25.8235,-0.3243 -26.3909,-0.7032 -0.5674,-0.3788 -1.5314,-1.638 -2.1424,-2.7981 -1.1004,-2.0897 -1.3031,-2.1094 -21.6811,-2.1094 l -20.5705,0 -1.6129,-2.5781 c -0.887,-1.418 -1.7334,-2.7468 -1.8808,-2.953 -0.1473,-0.2061 -5.5113,-0.2897 -11.92,-0.1856 -12.082,0.1961 -12.057,0.203 -15.0334,-4.098 -1.1932,-1.7241 -2.2374,-1.8273 -15.8331,-1.5631 l -14.5557,0.2829 -1.6913,-2.6557 c -0.9303,-1.4606 -2.0483,-2.9105 -2.4844,-3.2219 -0.4361,-0.3113 -5.7567,-0.3618 -11.8234,-0.1118 -9.5967,0.3952 -11.2025,0.2468 -12.3538,-1.1417 -4.7022,-5.6712 -4.2732,-5.5105 -13.171,-4.934 l -8.306,0.5381 -2.5466,-3.3389 -2.5467,-3.3388 -8.3471,0.476 c -8.8477,0.5044 -8.4532,0.6443 -12.7281,-4.5119 -1.1196,-1.3504 -2.5731,-1.5236 -9.4806,-1.1297 -8.2978,0.473 -11.2283,-0.2002 -11.2283,-2.5796 0,-2.0773 -3.5168,-3.4459 -8.2905,-3.2264 -6.6189,0.3043 -7.0559,0.1619 -8.7753,-2.8597 l -1.597,-2.8066 -9.2423,0 c -9.1821,0 -9.2558,-0.018 -11.3216,-2.8125 -1.9633,-2.6554 -2.4431,-2.8125 -8.5898,-2.8125 -6.2855,0 -6.5605,-0.097 -7.9647,-2.8125 -1.4119,-2.7303 -1.6525,-2.8127 -8.2272,-2.8184 -6.539,-0.01 -6.8279,-0.1028 -8.3698,-2.8125 -1.5344,-2.6964 -1.8539,-2.8066 -8.1393,-2.8066 -6.178,0 -6.6522,-0.1543 -8.5162,-2.7721 -1.828,-2.5671 -2.4668,-2.7925 -8.6375,-3.0469 -5.5252,-0.2278 -6.8405,-0.5951 -7.6993,-2.1497 -1.6247,-2.9413 -2.5001,-3.2517 -9.2148,-3.267 -6.0503,-0.014 -6.3626,-0.1275 -7.7584,-2.8268 -1.2854,-2.4856 -1.9392,-2.8125 -5.625,-2.8125 -3.6858,0 -4.3397,-0.3269 -5.625,-2.8125 -1.403,-2.7131 -1.6832,-2.8125 -7.929,-2.8125 -6.1239,0 -6.583,-0.1523 -8.4773,-2.8125 -1.6336,-2.2942 -2.6702,-2.8125 -5.625,-2.8125 -2.9547,0 -3.9914,-0.5183 -5.625,-2.8125 -1.8942,-2.6602 -2.3533,-2.8125 -8.4772,-2.8125 -6.2458,0 -6.526,-0.099 -7.929,-2.8125 -1.2854,-2.4856 -1.9392,-2.8125 -5.625,-2.8125 -3.6858,0 -4.3397,-0.3269 -5.625,-2.8125 -1.2182,-2.3557 -2.0215,-2.8148 -4.946,-2.8268 -4.0368,-0.017 -5.1338,-0.5928 -6.6654,-3.5013 -0.9881,-1.8762 -1.8255,-2.1094 -7.5765,-2.1094 -6.1141,0 -6.5746,-0.153 -8.4684,-2.8125 -1.6506,-2.3182 -2.6583,-2.8125 -5.7324,-2.8125 -3.1618,0 -3.973,-0.4274 -5.3268,-2.8066 -1.2683,-2.2288 -2.2369,-2.8078 -4.7055,-2.8125 -3.7549,-0.01 -6.7353,-1.4617 -6.7353,-3.2871 0,-1.8842 -2.8524,-3.1929 -5.7513,-2.6387 -1.5955,0.305 -2.9001,-0.076 -3.7401,-1.0918 -3.9058,-4.7245 -4.5499,-5.1331 -7.2407,-4.595 -1.8895,0.3779 -3.1003,0.068 -4.0039,-1.0242 -4.025,-4.8663 -4.7051,-5.3023 -7.3605,-4.7191 -2.2803,0.5009 -3.0357,0.095 -5.2693,-2.8338 -2.2079,-2.8947 -3.0146,-3.337 -5.2653,-2.8869 -2.6213,0.5243 -3.3538,0.059 -7.109,-4.5183 -0.7252,-0.8841 -2.6809,-1.4735 -4.8888,-1.4735 -2.8623,0 -3.927,-0.4687 -4.7909,-2.1094 -1.5346,-2.914 -2.6282,-3.4847 -6.7096,-3.5013 -2.8471,-0.011 -3.7422,-0.4673 -4.5954,-2.34 -0.5829,-1.2792 -1.734,-2.5437 -2.5581,-2.8101 -0.8241,-0.2664 -2.217,-1.7511 -3.0953,-3.2993 -1.3554,-2.3889 -2.1615,-2.8149 -5.3268,-2.8149 -3.0742,0 -4.0818,-0.4943 -5.7325,-2.8125 -1.6336,-2.2942 -2.6702,-2.8125 -5.625,-2.8125 -2.9547,0 -3.9914,-0.5183 -5.625,-2.8125 -1.6386,-2.3012 -2.6668,-2.8125 -5.6558,-2.8125 -2.8344,0 -3.9022,-0.4728 -4.764,-2.1094 -1.5346,-2.914 -2.6282,-3.4847 -6.7096,-3.5013 -2.8471,-0.011 -3.7422,-0.4673 -4.5954,-2.34 -0.5829,-1.2792 -1.8441,-2.5747 -2.8027,-2.8789 -0.9587,-0.3043 -2.3821,-1.789 -3.1631,-3.2994 -1.2492,-2.4156 -1.9247,-2.746 -5.6147,-2.746 -2.3071,0 -4.1947,-0.4085 -4.1947,-0.9077 0,-0.4992 -2.0568,-3.0305 -4.5707,-5.625 -3.8017,-3.9237 -5.1316,-4.7173 -7.9049,-4.7173 -2.6346,0 -3.7544,-0.5902 -5.3369,-2.8125 -1.5741,-2.2106 -2.707,-2.8125 -5.2941,-2.8125 -2.6252,0 -4.094,-0.8064 -7.2568,-3.9844 -2.1809,-2.1914 -4.2438,-4.7226 -4.584,-5.625 -0.4632,-1.2282 -1.6805,-1.6406 -4.8428,-1.6406 -3.7226,0 -4.3927,-0.3261 -5.6442,-2.746 -0.781,-1.5104 -2.2684,-3.0154 -3.3053,-3.3445 -1.0369,-0.3291 -1.8853,-0.9717 -1.8853,-1.4281 0,-0.4562 -2.0771,-2.9068 -4.6158,-5.4454 -3.7625,-3.7625 -5.071,-4.5289 -7.0777,-4.1453 -2.0854,0.3986 -3.365,-0.4875 -8.3679,-5.7946 -5.069,-5.3774 -6.2416,-6.181 -8.2741,-5.6709 -1.9738,0.4954 -3.1681,-0.2056 -7.1725,-4.21 -2.6425,-2.6425 -4.8045,-5.1386 -4.8045,-5.5469 0,-0.4082 -1.0547,-1.2229 -2.3437,-1.8102 -1.2891,-0.5873 -2.3438,-1.6949 -2.3438,-2.4613 0,-1.9145 -2.9677,-3.3343 -6.9696,-3.3343 -1.8386,0 -3.3429,-0.3805 -3.3429,-0.8457 0,-0.4651 -3.3346,-4.262 -7.4103,-8.4375 -6.0813,-6.2302 -7.9251,-7.5918 -10.2802,-7.5918 -2.303,0 -4.1656,-1.2958 -9.4309,-6.5611 -3.6086,-3.6086 -7.013,-7.4055 -7.5653,-8.4375 -0.7725,-1.4434 -1.9627,-1.8764 -5.157,-1.8764 -3.1702,0 -4.3863,-0.4364 -5.1398,-1.8442 -0.5428,-1.0142 -7.7083,-8.608 -15.9233,-16.875 -13.261,-13.3448 -15.2835,-15.0316 -18.0304,-15.0383 -2.5129,-0.01 -3.7983,-0.8249 -6.844,-4.3594 -2.0625,-2.3934 -4.4672,-5.0268 -5.3438,-5.8518 -0.8765,-0.825 -2.0377,-1.9219 -2.5805,-2.4375 -0.5427,-0.5157 -10.0573,-10.2188 -21.1436,-21.5625 -11.0863,-11.3438 -20.5352,-20.9836 -20.9976,-21.4219 -1.6871,-1.599 -4.2933,-4.2567 -23.5816,-24.0469 -10.8049,-11.0859 -20.381,-20.8791 -21.2803,-21.7626 -0.8993,-0.8835 -1.9937,-2.0014 -2.432,-2.4843 -0.7263,-0.8004 -3.321,-3.4265 -5.3599,-5.425 -0.4471,-0.4383 -7.1549,-7.2173 -14.9062,-15.0645 -12.7512,-12.909 -14.0933,-14.5793 -14.0933,-17.5412 0,-1.8383 -0.6459,-3.8034 -1.4734,-4.4823 -1.5086,-1.2377 -3.7303,-3.3933 -5.7662,-5.5948 -1.2935,-1.3986 -2.4269,-2.5618 -5.1354,-5.2703 -16.0623,-16.0624 -15.75,-15.689 -15.75,-18.8276 0,-2.6487 -1.4793,-4.5284 -11.222,-14.2592 -10.164,-10.1515 -11.1718,-11.4597 -10.6888,-13.8748 0.369,-1.845 0.051,-3.0657 -1.0326,-3.9619 -0.8613,-0.7124 -2.274,-2.0323 -3.1394,-2.9333 -0.8654,-0.9009 -3.9992,-4.106 -6.964,-7.1225 -4.3432,-4.4189 -5.3907,-6.0797 -5.3907,-8.5472 0,-2.6226 -1.2125,-4.2444 -8.4375,-11.286 -7.4898,-7.2998 -8.4375,-8.5964 -8.4375,-11.5447 0,-3.154 -1.9062,-6.2678 -3.837,-6.2678 -0.4899,0 -1.35,-1.0082 -1.9114,-2.2403 -0.5615,-1.2323 -2.029,-2.6998 -3.2612,-3.2612 -1.8836,-0.8582 -2.2404,-1.6991 -2.2404,-5.2797 0,-3.5807 -0.3567,-4.4216 -2.2403,-5.2798 -1.2322,-0.5614 -2.6998,-2.0289 -3.2612,-3.2612 -0.5614,-1.2321 -1.4216,-2.2403 -1.9114,-2.2403 -1.9404,0 -3.8371,-3.1208 -3.8371,-6.3135 0,-2.9067 -0.7846,-4.1092 -5.7381,-8.7935 -4.9393,-4.6709 -5.6537,-5.7628 -5.1315,-7.8433 0.5211,-2.0764 -0.2605,-3.2839 -5.5473,-8.5708 -4.6147,-4.6147 -6.012,-6.6009 -5.5865,-7.9414 0.8171,-2.5746 -0.302,-5.3493 -2.4298,-6.0247 -1.0105,-0.3207 -2.4609,-1.789 -3.223,-3.2628 -0.7621,-1.4737 -2.2341,-2.9489 -3.271,-3.278 -1.5093,-0.479 -1.8853,-1.4143 -1.8853,-4.6901 0,-3.4763 -0.423,-4.3929 -2.8125,-6.0944 -2.232,-1.5893 -2.8125,-2.6982 -2.8125,-5.3729 0,-2.9032 -0.7796,-4.1075 -5.625,-8.6896 -4.8454,-4.5821 -5.625,-5.7864 -5.625,-8.6896 0,-2.6747 -0.5804,-3.7836 -2.8125,-5.3729 -2.3964,-1.7064 -2.8125,-2.6137 -2.8125,-6.1335 0,-3.6416 -0.333,-4.3031 -2.8125,-5.5852 -2.4855,-1.2854 -2.8125,-1.9393 -2.8125,-5.625 0,-3.6858 -0.3269,-4.3397 -2.8125,-5.625 -2.4842,-1.2847 -2.8125,-1.9402 -2.8125,-5.6161 0,-3.3617 -0.4055,-4.3753 -2.1093,-5.2725 -2.9034,-1.529 -3.4847,-2.629 -3.5013,-6.6257 -0.011,-2.7567 -0.5808,-3.8551 -2.8269,-5.4545 -2.232,-1.5893 -2.8125,-2.6982 -2.8125,-5.3729 0,-2.9017 -0.779,-4.1069 -5.6029,-8.6688 -5.0805,-4.8043 -5.5903,-5.6376 -5.4663,-8.9348 0.084,-2.2452 -0.3275,-3.7912 -1.0767,-4.0409 -0.6674,-0.2225 -2.0233,-1.2143 -3.0131,-2.2041 -1.5324,-1.5324 -1.7076,-2.6125 -1.1802,-7.2741 0.65,-5.7457 0.6089,-5.8348 -4.6943,-10.1885 -0.9544,-0.7835 -1.283,-2.0016 -0.925,-3.4283 0.6894,-2.7467 -0.8694,-5.8178 -3.353,-6.6061 -1.4988,-0.4757 -1.876,-1.418 -1.876,-4.6871 0,-3.4763 -0.423,-4.3929 -2.8125,-6.0944 -2.2941,-1.6336 -2.8125,-2.6703 -2.8125,-5.625 0,-2.9547 -0.5183,-3.9914 -2.8125,-5.625 -2.246,-1.5994 -2.8154,-2.6978 -2.8268,-5.4545 -0.017,-3.9967 -0.5979,-5.0967 -3.5013,-6.6257 -1.8989,-0.9999 -2.1094,-1.8066 -2.1094,-8.085 0,-6.8009 -0.07,-7.0103 -2.8125,-8.4285 -2.4855,-1.2854 -2.8125,-1.9393 -2.8125,-5.625 0,-3.6858 -0.3269,-4.3397 -2.8125,-5.625 -2.7409,-1.4175 -2.8125,-1.6312 -2.8125,-8.3978 0,-6.6448 -0.1209,-7.0295 -2.8125,-8.946 -2.2941,-1.6336 -2.8125,-2.6703 -2.8125,-5.625 0,-2.9547 -0.5183,-3.9914 -2.8125,-5.625 -2.6573,-1.8922 -2.8125,-2.3577 -2.8125,-8.4375 0,-6.0798 -0.1552,-6.5453 -2.8125,-8.4375 -2.691,-1.9162 -2.8125,-2.3022 -2.8125,-8.9371 0,-6.2371 -0.2121,-7.0461 -2.1093,-8.0452 -3.14,-1.6536 -3.485602,-2.5883 -3.501302,-9.4691 -0.013,-5.5665 -0.2585,-6.4237 -2.1237,-7.4059 -3.1733,-1.6711 -3.5314,-2.6518 -3.32,-9.0914 0.1867,-5.6874 0.073,-6.0123 -2.9301,-8.3625 -3.0641,-2.398 -3.1133,-2.5513 -2.5488,-7.952 0.5611,-5.3678 0.492,-5.5905 -2.7342,-8.8167 -3.2293,-3.2293 -3.2949,-3.4417 -2.6967,-8.7293 0.5025,-4.4419 0.3283,-5.6552 -0.9661,-6.7269 -5.1398,-4.2559 -5.0009,-3.8605 -4.4916,-12.792 0.4307,-7.554 0.2858,-8.6204 -1.4005,-10.3067 -1.0344,-1.0344 -2.4426,-2.068 -3.1292,-2.297 -0.9131,-0.3043 -1.1871,-2.2009 -1.0201,-7.0599 0.2213,-6.4393 0.1406,-6.7063 -2.6188,-8.6711 -2.8416,-2.0235 -2.8471,-2.045 -2.8471,-11.2747 0,-9.2048 -0.013,-9.2565 -2.8125,-11.25 -2.7913,-1.9876 -2.8126,-2.0708 -2.8268,-11.0795 -0.015,-9.7173 -0.2501,-10.5385 -3.5013,-12.2507 -2.0277,-1.0678 -2.1094,-1.5983 -2.1094,-13.71 l 0,-12.5991 -2.8125,-1.4544 -2.8125,-1.4545 0,-12.5683 0,-12.5683 -2.8125,-2.0027 -2.8125,-2.0027 -0.014,-14.7018 c -0.01,-8.0859 -0.3243,-15.1659 -0.7031,-15.7333 -0.3789,-0.5674 -1.638,-1.5314 -2.7982,-2.1424 -2.0916,-1.1014 -2.1094,-1.2872 -2.1094,-22.1077 l 0,-20.9969 -2.7967,-1.9915 -2.796799,-1.9915 -0.2501,-24.088 -0.2501,-24.0879 -2.578101,-0.2967 -2.5782,-0.2966 0,-118.938 0,-118.938 2.5782,-0.2966 2.578101,-0.2966 0.2501,-24.088 0.2501,-24.088 2.796799,-1.9915 2.7967,-1.9915 0,-20.9969 c 0,-20.8205 0.018,-21.0063 2.1094,-22.1077 1.1602,-0.611 2.4193,-1.575 2.7982,-2.1424 0.3788,-0.5674 0.6952,-7.6474 0.7031,-15.7333 l 0.014,-14.7018 2.8125,-2.0027 2.8125,-2.0027 0,-12.5683 0,-12.5683 2.8125,-1.4544 2.8125,-1.4545 0,-9.7866 c 0,-9.195 0.1276,-9.8539 2.1094,-10.8975 1.1602,-0.611 2.4193,-1.575 2.7982,-2.1424 0.3788,-0.5674 0.6952,-6.3818 0.7031,-12.9208 l 0.014,-11.8893 2.8125,-2.0027 c 2.7996,-1.9935 2.8125,-2.0452 2.8125,-11.25 0,-9.2297 0.01,-9.2512 2.8471,-11.2747 2.7594,-1.9648 2.8401,-2.2318 2.6188,-8.6711 -0.167,-4.859 0.107,-6.7556 1.0201,-7.0599 0.6866,-0.229 2.0948,-1.2625 3.1293,-2.297 1.6862,-1.6863 1.8311,-2.7527 1.4004,-10.3067 -0.5093,-8.9315 -0.6481,-8.5361 4.4916,-12.792 1.2944,-1.0717 1.4686,-2.285 0.9661,-6.7269 -0.5982,-5.2876 -0.5326,-5.5 2.6967,-8.7293 3.2262,-3.2261 3.2953,-3.4489 2.7342,-8.81664 -0.5644,-5.4008 -0.5153,-5.554 2.5488,-7.9521 3.0029,-2.3501 3.1168,-2.675 2.9301,-8.36254 -0.2113,-6.4396 0.1468,-7.4202 3.32,-9.0913 1.8652,-0.9822 2.111,-1.8395 2.1237,-7.406 0.016,-6.8807 0.361302,-7.8154 3.501302,-9.469 1.8972,-0.9991 2.1093,-1.8081 2.1093,-8.0452 0,-6.6349 0.1215,-7.021 2.8125,-8.9371 2.6574,-1.8922 2.8125,-2.3578 2.8125,-8.4375 0,-6.0798 0.1552,-6.5454 2.8125,-8.4375 2.2942,-1.63362 2.8125,-2.67025 2.8125,-5.62502 0,-2.95477 0.5184,-3.9914 2.8125,-5.625 2.6916,-1.91656 2.8125,-2.30123 2.8125,-8.94601 0,-6.76662 0.072,-6.98035 2.8125,-8.39774 2.4856,-1.28534 2.8125,-1.9392 2.8125,-5.625 0,-3.6858 0.327,-4.33966 2.8125,-5.625 2.7427,-1.41826 2.8125,-1.62769 2.8125,-8.42859 0,-6.27836 0.2105,-7.08502 2.1094,-8.08502 2.9034,-1.52897 3.4847,-2.62893 3.5013,-6.62568 0.011,-2.75662 0.5808,-3.8551 2.8268,-5.45446 2.2942,-1.6336 2.8125,-2.67023 2.8125,-5.625 0,-2.95477 0.5184,-3.9914 2.8125,-5.625 2.3895,-1.70147 2.8125,-2.61808 2.8125,-6.09442 0,-3.26909 0.3772,-4.21143 1.876,-4.68715 2.4836,-0.78825 4.0424,-3.85941 3.3531,-6.60605 -0.3581,-1.42673 -0.029,-2.64475 0.9249,-3.42829 5.3032,-4.35367 5.3443,-4.44282 4.6943,-10.18856 -0.5274,-4.66149 -0.3522,-5.74162 1.1802,-7.27402 0.9898,-0.9898 2.3457,-1.98165 3.0131,-2.20411 0.7492,-0.24972 1.1611,-1.79565 1.0767,-4.04084 -0.124,-3.29722 0.3858,-4.13053 5.4663,-8.93488 4.824,-4.56187 5.6029,-5.76709 5.6029,-8.66876 0,-2.67467 0.5805,-3.78357 2.8125,-5.37292 2.2461,-1.59936 2.8154,-2.69784 2.8269,-5.45446 0.017,-3.99675 0.5979,-5.09671 3.5013,-6.62568 1.7039,-0.8973 2.1093,-1.91083 2.1093,-5.27252 0,-3.6759 0.3283,-4.33146 2.8125,-5.61609 2.4856,-1.28534 2.8125,-1.9392 2.8125,-5.625 0,-3.6858 0.327,-4.33966 2.8125,-5.625 2.4375,-1.26046 2.8125,-1.97163 2.8125,-5.33316 0,-3.52466 0.5136,-4.36435 5.625,-9.19809 4.8455,-4.58212 5.625,-5.78644 5.625,-8.68958 0,-2.67467 0.5805,-3.78357 2.8125,-5.37292 2.2942,-1.6336 2.8125,-2.67023 2.8125,-5.625 0,-2.95477 0.5184,-3.9914 2.8125,-5.625 2.3895,-1.70147 2.8125,-2.61808 2.8125,-6.09442 0,-3.2758 0.376,-4.21105 1.8853,-4.69009 1.0369,-0.3291 2.5089,-1.8042 3.271,-3.27799 0.7621,-1.47379 2.2125,-2.94203 3.223,-3.26276 2.1278,-0.67535 3.2469,-3.45016 2.4298,-6.02475 -0.4255,-1.34043 0.9718,-3.32667 5.5865,-7.9414 5.2868,-5.28682 6.0684,-6.49442 5.5473,-8.57083 -0.5222,-2.08045 0.1922,-3.17239 5.1315,-7.84327 4.9535,-4.68434 5.7381,-5.88674 5.7381,-8.79344 0,-3.19268 1.8968,-6.31355 3.8371,-6.31355 0.4899,0 1.35,-1.00817 1.9114,-2.24037 0.5615,-1.23221 2.029,-2.69972 3.2612,-3.26115 1.8836,-0.85822 2.2403,-1.69902 2.2403,-5.27973 0,-3.58071 0.3568,-4.42151 2.2404,-5.27973 1.2322,-0.56143 2.6997,-2.02895 3.2612,-3.26115 0.5614,-1.2322 1.4215,-2.24037 1.9114,-2.24037 1.9308,0 3.837,-3.11378 3.837,-6.26781 0,-2.94833 0.9477,-4.24497 8.4375,-11.54469 7.225,-7.04159 8.4375,-8.66344 8.4375,-11.28596 0,-2.46755 1.0475,-4.12835 5.3907,-8.54722 2.9648,-3.01651 6.0986,-6.22166 6.964,-7.12256 0.8654,-0.90091 2.2781,-2.22087 3.1394,-2.93327 1.0835,-0.89618 1.4017,-2.11682 1.0327,-3.96182 -0.4831,-2.41516 0.5247,-3.72333 10.6887,-13.87486 9.7427,-9.7308 11.222,-11.61046 11.222,-14.25921 0,-3.04064 0.1097,-3.17667 12.7969,-15.87365 0.593,-0.59342 1.8586,-1.85028 2.8125,-2.793 0.9539,-0.94273 2.25,-2.27164 2.8803,-2.95312 2.9028,-3.13888 6.5749,-6.77092 8.1619,-8.07292 0.8275,-0.67887 1.4734,-2.64397 1.4734,-4.48238 0,-2.9618 1.3421,-4.63218 14.0933,-17.54115 7.7513,-7.8472 14.4591,-14.62622 14.9063,-15.0645 0.8326,-0.81616 3.5928,-3.57628 6.4346,-6.43446 0.8784,-0.88347 1.9091,-1.93816 2.2904,-2.34375 1.143,-1.21573 39.8658,-40.92357 41.5401,-42.5968 0.8513,-0.85078 1.9262,-1.90546 2.3886,-2.34375 0.4624,-0.43828 9.9113,-10.07812 20.9976,-21.42187 11.0863,-11.34375 20.5377,-20.98359 21.003,-21.42188 0.4654,-0.43828 1.6266,-1.53519 2.5805,-2.43757 0.9539,-0.90238 3.4219,-3.59899 5.4844,-5.99246 3.043,-3.53134 4.3322,-4.35318 6.8381,-4.3593 2.707,-0.007 4.5794,-1.50457 15.17,-12.13635 6.645,-6.67085 12.5476,-12.99897 13.1167,-14.0625 0.8068,-1.50744 1.9523,-1.93369 5.1966,-1.93369 3.6535,0 4.3351,-0.33531 5.5817,-2.74606 0.7811,-1.51033 2.2685,-3.01533 3.3054,-3.34443 1.0369,-0.3291 1.8852,-0.95582 1.8852,-1.39271 0,-0.43689 3.1691,-3.9944 7.0424,-7.90557 5.7407,-5.79686 7.5767,-7.11123 9.9334,-7.11123 2.3816,0 4.1967,-1.33764 10.3014,-7.59182 4.0757,-4.1755 7.4103,-7.97238 7.4103,-8.4375 0,-0.46513 1.5043,-0.84568 3.3429,-0.84568 4.0019,0 6.9696,-1.41979 6.9696,-3.33433 0,-0.76635 1.0547,-1.87391 2.3438,-2.46125 1.2891,-0.58734 2.3437,-1.40195 2.3437,-1.81026 0,-0.4083 2.162,-2.90437 4.8045,-5.54681 4.0045,-4.00447 5.1987,-4.70546 7.1725,-4.21007 2.0325,0.51014 3.2051,-0.29349 8.2742,-5.67088 5.0028,-5.30713 6.2825,-6.19326 8.3678,-5.79462 2.0126,0.38473 3.2614,-0.35551 6.8433,-4.0565 2.4098,-2.4899 4.9255,-5.17976 5.5903,-5.97744 0.7145,-0.85717 2.714,-1.45034 4.8889,-1.45034 2.5422,0 3.9541,-0.50728 4.5663,-1.64063 0.4875,-0.90234 2.5469,-3.43359 4.5765,-5.625 2.9127,-3.14485 4.3454,-3.98437 6.7996,-3.98437 2.5842,0 4.0076,-0.94989 8.4286,-5.625 4.4027,-4.65567 5.8505,-5.625 8.4015,-5.625 2.4705,0 3.989,-0.93603 7.6528,-4.7173 2.5139,-2.59453 4.5707,-5.12578 4.5707,-5.625 0,-0.49924 1.8876,-0.9077 4.1947,-0.9077 3.69,0 4.3655,-0.33039 5.6147,-2.74606 0.7811,-1.51033 2.2044,-2.995 3.1631,-3.29927 0.9586,-0.30426 2.2199,-1.59979 2.8027,-2.87894 0.8532,-1.87274 1.7483,-2.32852 4.5954,-2.34008 4.0814,-0.0166 5.175,-0.58725 6.7096,-3.50128 0.8618,-1.63657 1.9296,-2.10937 4.764,-2.10937 2.989,0 4.0172,-0.5113 5.6558,-2.8125 1.6336,-2.29418 2.6703,-2.8125 5.625,-2.8125 2.9548,0 3.9914,-0.51832 5.625,-2.8125 1.6507,-2.31812 2.6583,-2.8125 5.7325,-2.8125 3.1653,0 3.9714,-0.42601 5.3268,-2.81491 0.8783,-1.54821 2.2713,-3.03288 3.0953,-3.29928 0.8241,-0.26639 1.9753,-1.53093 2.5581,-2.81008 0.8532,-1.87274 1.7483,-2.32852 4.5954,-2.34008 4.0814,-0.0166 5.175,-0.58725 6.7096,-3.50128 0.8639,-1.64059 1.9287,-2.10937 4.7909,-2.10937 2.208,0 4.1636,-0.5894 4.8889,-1.47345 3.7551,-4.5771 4.4876,-5.04267 7.1089,-4.5184 2.2507,0.45014 3.0574,0.007 5.2653,-2.88686 2.2336,-2.92835 2.989,-3.33463 5.2693,-2.83379 2.6554,0.58323 3.3355,0.14723 7.3606,-4.71906 0.9035,-1.09243 2.1143,-1.40215 4.0039,-1.02423 2.6907,0.53815 3.3348,0.12943 7.2407,-4.595 0.8399,-1.01592 2.1445,-1.39679 3.74,-1.0918 2.8989,0.55416 5.7513,-0.75449 5.7513,-2.63866 0,-1.82543 2.9804,-3.28002 6.7353,-3.28718 2.4765,-0.005 3.4369,-0.58309 4.7241,-2.84487 1.5645,-2.74914 1.8137,-2.83348 7.8787,-2.66663 5.98,0.16452 6.3731,0.0384 8.6969,-2.78859 1.9394,-2.35939 3.1413,-2.95917 5.9164,-2.95243 2.6626,0.007 3.7443,-0.48827 4.5935,-2.10092 1.5317,-2.90848 2.6286,-3.48467 6.6654,-3.50128 2.9245,-0.012 3.7278,-0.47117 4.946,-2.82685 1.2853,-2.48557 1.9392,-2.8125 5.625,-2.8125 3.6858,0 4.3397,-0.32693 5.625,-2.8125 1.403,-2.71311 1.6832,-2.8125 7.929,-2.8125 6.1239,0 6.583,-0.15232 8.4772,-2.8125 1.6336,-2.29418 2.6703,-2.8125 5.625,-2.8125 2.9548,0 3.9914,-0.51832 5.625,-2.8125 1.8943,-2.66018 2.3534,-2.8125 8.4773,-2.8125 6.2458,0 6.526,-0.0994 7.929,-2.8125 1.4185,-2.7431 1.6267,-2.8125 8.4375,-2.8125 6.8108,0 7.019,-0.0694 8.4375,-2.812504 1.2182,-2.35568 2.0215,-2.81483 4.9459,-2.82686 3.8851,-0.016 4.8897,-0.5286 6.4023,-3.26689 0.8588,-1.5547 2.1741,-1.92193 7.6993,-2.14974 6.1707,-0.25442 6.8095,-0.47976 8.6375,-3.04687 1.864,-2.61778 2.3382,-2.77214 8.5162,-2.77214 6.2855,0 6.605,-0.11016 8.1393,-2.80657 1.5419,-2.70967 1.8308,-2.80678 8.3698,-2.8125 6.5747,-0.006 6.8153,-0.0882 8.2272,-2.81843 1.4042,-2.71537 1.6792,-2.8125 7.9647,-2.8125 6.1467,0 6.6265,-0.15712 8.5898,-2.8125 2.0641,-2.79184 2.1467,-2.8125 11.2564,-2.8125 8.9954,0 9.2091,-0.0511 10.79,-2.57813 0.887,-1.41796 1.7458,-2.75919 1.9083,-2.98049 0.1625,-0.2213 4.075,-0.30543 8.6943,-0.18696 8.5451,0.21916 12.2027,-0.72821 12.2027,-3.16067 0,-2.23594 3.1582,-3.20686 8.6031,-2.6449 5.3357,0.5507 5.7228,0.37628 8.6971,-3.9176 1.203,-1.73678 2.1627,-1.85176 13.0184,-1.55971 l 11.7197,0.31528 1.6935,-2.65903 c 2.4777,-3.88998 2.8252,-3.99646 11.1302,-3.41036 7.9076,0.55804 11.7005,-0.41403 11.7005,-2.99868 0,-2.65443 3.7281,-3.4483 14.6868,-3.12748 l 10.7589,0.31498 2.5597,-3.135419 2.5595,-3.13542 11.5116,0.32292 c 10.6524,0.29882 11.6085,0.18299 12.8106,-1.55208 3.0546,-4.40914 2.7729,-4.34419 17.8569,-4.1171 7.9403,0.11955 14.5661,0.0401 14.724,-0.17652 0.1579,-0.21664 1.0128,-1.55404 1.8998,-2.97201 l 1.6129,-2.578121 17.758,0 c 17.4614,0 17.7764,-0.03521 18.8686,-2.109375 0.611,-1.160156 1.575,-2.419321 2.1424,-2.798145 0.5674,-0.378823 12.4433,-0.695228 26.3909,-0.703124 26.306,-0.01489 27.6094,-0.201453 27.6094,-3.951856 0,-1.6163463 5.1389,-1.6875003 121.875,-1.6875003 116.7361,0 121.875,0.07115 121.875,1.6875003 0,3.709015 1.4304,3.936979 24.7969,3.951856 12.4008,0.0079 23.011,0.324301 23.5784,0.703124 0.5674,0.378824 1.5314,1.637989 2.1424,2.798145 1.1004,2.089659 1.3031,2.109375 21.6811,2.109375 l 20.5705,0 1.6129,2.578121 c 0.887,1.41797 1.7419,2.75537 1.8998,2.97201 0.1579,0.21663 6.7837,0.29607 14.724,0.17652 15.0698,-0.22688 14.8078,-0.28692 17.8354,4.08804 1.1932,1.72419 2.2374,1.82727 15.8331,1.56307 l 14.5557,-0.28286 1.6913,2.65568 c 2.4752,3.886189 2.824,3.993009 11.128,3.406989 7.9076,-0.55804 11.7005,0.41403 11.7005,2.99868 0,2.75387 3.795,3.5408 14.7452,3.05756 l 10.6576,-0.47031 2.5003,3.27804 2.5003,3.27803 8.3471,-0.47593 c 8.8464,-0.5044 8.4557,-0.64276 12.7231,4.50656 1.0601,1.27931 2.3262,1.48547 6.4858,1.05615 5.4449,-0.56196 8.6031,0.40896 8.6031,2.6449 0,2.43246 3.6576,3.37983 12.2027,3.16067 4.6193,-0.11847 8.5318,-0.0343 8.6943,0.18696 0.1625,0.2213 1.0213,1.56253 1.9083,2.98049 1.581,2.52708 1.7946,2.57813 10.79,2.57813 9.1097,0 9.1924,0.0207 11.2565,2.8125 1.9632,2.65538 2.443,2.8125 8.5897,2.8125 6.2855,0 6.5606,0.0971 7.9647,2.8125 1.4119,2.73024 1.6526,2.81267 8.2273,2.81843 6.5389,0.006 6.8279,0.10283 8.3698,2.8125 1.5343,2.69641 1.8538,2.80657 8.1393,2.80657 6.1779,0 6.6522,0.15436 8.5161,2.77214 1.828,2.56711 2.4669,2.79245 8.6376,3.04687 5.5251,0.22781 6.8404,0.59504 7.6992,2.14974 1.5127,2.73829 2.5173,3.25092 6.4023,3.26689 2.9244,0.012 3.7278,0.47118 4.9459,2.82686 1.4186,2.743104 1.6267,2.812504 8.4375,2.812504 6.8109,0 7.019,0.0694 8.4375,2.8125 1.403,2.71311 1.6832,2.8125 7.929,2.8125 6.124,0 6.5831,0.15232 8.4773,2.8125 1.6336,2.29418 2.6703,2.8125 5.625,2.8125 2.9547,0 3.9914,0.51832 5.625,2.8125 1.8942,2.66018 2.3533,2.8125 8.4772,2.8125 6.2459,0 6.5261,0.0994 7.929,2.8125 1.2854,2.48557 1.9393,2.8125 5.625,2.8125 3.6858,0 4.3397,0.32693 5.625,2.8125 1.2182,2.35568 2.0216,2.81483 4.946,2.82685 4.0369,0.0166 5.1338,0.5928 6.6655,3.50128 0.8491,1.61264 1.9309,2.10738 4.5934,2.10092 2.7752,-0.007 3.9771,0.59304 5.9165,2.95243 2.3238,2.82705 2.7169,2.95311 8.6969,2.78859 6.065,-0.16685 6.3142,-0.0825 7.8787,2.66663 1.287,2.26178 2.2475,2.84015 4.724,2.84487 3.7549,0.008 6.7353,1.46175 6.7353,3.28718 0,1.88417 2.8524,3.19282 5.7514,2.63866 1.5954,-0.30499 2.9001,0.0758 3.7399,1.0918 3.9059,4.72443 4.55,5.13315 7.2408,4.595 1.8896,-0.37792 3.1003,-0.0683 4.0039,1.02423 4.0251,4.86629 4.7051,5.30229 7.3605,4.71906 2.2803,-0.50084 3.0357,-0.0946 5.2693,2.83379 2.2079,2.8947 3.0146,3.337 5.2653,2.88686 2.6213,-0.52427 3.3539,-0.0587 7.109,4.5184 0.7253,0.88405 2.6809,1.47345 4.8888,1.47345 2.8623,0 3.927,0.46878 4.7909,2.10937 1.5346,2.91403 2.6282,3.4847 6.7096,3.50128 2.8471,0.0115 3.7422,0.46734 4.5955,2.34008 0.5828,1.27915 1.7339,2.54369 2.558,2.81008 0.8241,0.2664 2.217,1.75107 3.0954,3.29928 1.3553,2.3889 2.1615,2.81491 5.3268,2.81491 3.0741,0 4.0817,0.49438 5.7324,2.8125 1.6336,2.29418 2.6703,2.8125 5.625,2.8125 2.9547,0 3.9914,0.51832 5.625,2.8125 1.5592,2.18962 2.7152,2.8125 5.2201,2.8125 2.4933,0 4.0454,0.828 6.8964,3.67904 2.0235,2.02346 4.1477,4.55471 4.7205,5.625 0.8141,1.52096 1.9504,1.94596 5.2032,1.94596 3.6759,0 4.3314,0.3283 5.616,2.8125 1.2873,2.48924 1.9365,2.8125 5.6491,2.8125 2.3071,0 4.1947,0.40846 4.1947,0.9077 0,0.49922 2.0568,3.03047 4.5707,5.625 3.6638,3.78127 5.1823,4.7173 7.6529,4.7173 2.5466,0 3.9947,0.96507 8.3356,5.55537 4.4549,4.71097 5.8201,5.60158 8.981,5.85938 2.9929,0.24407 3.9702,0.81224 4.9575,2.88212 1.0675,2.23815 1.776,2.57813 5.3731,2.57813 3.6334,0 4.3184,0.33805 5.5636,2.74606 0.781,1.51033 2.2684,3.01533 3.3053,3.34443 1.037,0.3291 1.8853,0.97172 1.8853,1.42804 0,0.45632 2.0771,2.90681 4.6159,5.44552 3.7624,3.76249 5.0709,4.52884 7.0776,4.14523 2.0854,-0.39864 3.365,0.48749 8.3679,5.79462 5.0691,5.37739 6.2417,6.18102 8.2742,5.67088 1.9784,-0.49656 3.12,0.18156 6.9381,4.12135 2.5135,2.59363 5.1529,5.40997 5.8653,6.25854 0.8912,1.06154 2.1302,1.37587 3.9717,1.00757 1.7605,-0.35211 3.0818,-0.0579 3.861,0.85961 0.6515,0.7672 5.6925,6.02894 11.2022,11.69278 8.4007,8.63561 10.4763,10.29787 12.8583,10.29787 2.267,0 4.1658,1.32515 9.4017,6.56108 3.6086,3.6086 7.013,7.40548 7.5653,8.4375 0.7725,1.44335 1.9627,1.87642 5.157,1.87642 3.1702,0 4.3863,0.43637 5.1398,1.84417 0.5428,1.0143 7.7083,8.60805 15.9233,16.875 13.2611,13.34487 15.2835,15.03167 18.0304,15.03837 2.513,0.007 3.7983,0.82483 6.844,4.3593 2.0625,2.39347 4.5305,5.09008 5.4844,5.99246 0.9539,0.90238 2.1151,1.99929 2.5805,2.43758 0.4654,0.43828 9.9168,10.07812 21.003,21.42187 11.0863,11.34375 20.5353,20.98359 20.9976,21.42188 1.6871,1.59903 4.2933,4.2567 23.5816,24.04687 10.8049,11.08594 20.381,20.8791 21.2804,21.76258 0.8992,0.88347 1.9936,2.00144 2.4319,2.48438 0.7263,0.8003 3.321,3.42645 5.3599,5.42492 0.4471,0.43828 7.1549,7.2173 14.9062,15.0645 12.7513,12.90897 14.0933,14.57935 14.0933,17.54115 0,1.83841 0.6459,3.80351 1.4735,4.48238 1.5086,1.23771 3.7303,3.39332 5.7662,5.59477 1.2934,1.39865 2.4268,2.56182 5.1353,5.27032 16.0624,16.06235 15.75,15.68897 15.75,18.8276 0,2.64875 1.4793,4.52841 11.2221,14.25921 10.164,10.15153 11.1717,11.4597 10.6887,13.87486 -0.369,1.845 -0.051,3.06564 1.0326,3.96182 0.8613,0.7124 2.274,2.03236 3.1394,2.93327 0.8654,0.9009 3.9992,4.10605 6.9641,7.12256 4.3431,4.41887 5.3906,6.07967 5.3906,8.54722 0,2.62252 1.2125,4.24437 8.4375,11.28596 7.4899,7.29972 8.4375,8.59636 8.4375,11.54469 0,3.15403 1.9062,6.26781 3.8371,6.26781 0.4898,0 1.35,1.00817 1.9114,2.24037 0.5614,1.23221 2.0289,2.69972 3.2612,3.26115 1.8835,0.85822 2.2403,1.69902 2.2403,5.27973 0,3.58071 0.3568,4.42151 2.2403,5.27973 1.2323,0.56143 2.6998,2.02895 3.2612,3.26115 0.5614,1.2322 1.4216,2.24037 1.9114,2.24037 1.9403,0 3.8371,3.12087 3.8371,6.31355 0,2.9067 0.7846,4.1091 5.7382,8.79344 4.9392,4.67088 5.6536,5.76282 5.1315,7.84327 -0.5212,2.07642 0.2604,3.28401 5.5472,8.57083 4.6148,4.61473 6.012,6.60097 5.5866,7.9414 -0.8171,2.57459 0.3019,5.3494 2.4297,6.02475 1.0105,0.32073 2.461,1.78897 3.223,3.26276 0.7621,1.47379 2.2341,2.94889 3.271,3.27799 1.5094,0.47904 1.8853,1.41429 1.8853,4.69009 0,3.47634 0.423,4.39295 2.8125,6.09442 2.232,1.58935 2.8125,2.69825 2.8125,5.37292 0,2.90314 0.7796,4.10746 5.625,8.68958 4.8454,4.58212 5.625,5.78644 5.625,8.68958 0,2.67467 0.5805,3.78357 2.8125,5.37292 2.3964,1.70643 2.8125,2.61373 2.8125,6.13351 0,3.64162 0.3331,4.30309 2.8125,5.58524 2.4856,1.28534 2.8125,1.9392 2.8125,5.625 0,3.6858 0.3269,4.33966 2.8125,5.625 2.4842,1.28463 2.8125,1.94019 2.8125,5.61609 0,3.36169 0.4055,4.37522 2.1094,5.27252 2.8692,1.511 3.4845,2.63094 3.5013,6.3736 0.012,2.68641 0.9166,4.05302 5.6393,8.51904 4.8454,4.58212 5.625,5.78644 5.625,8.68958 0,2.67227 0.5806,3.78367 2.8035,5.36652 2.4004,1.70918 2.7817,2.55329 2.6517,5.86962 -0.096,2.45288 0.294,4.02193 1.0637,4.27851 2.7483,0.91607 4.8949,4.07817 4.3209,6.365 -0.674,2.68552 0.8459,5.99327 2.7539,5.99327 2.1349,0 3.3653,3.36341 2.7159,7.42422 -0.8176,5.11314 0.1766,8.37634 2.935,9.63314 1.939,0.88344 2.3179,1.71083 2.3179,5.06053 0,3.37934 0.439,4.31706 2.8125,6.00711 2.2942,1.6336 2.8125,2.67023 2.8125,5.625 0,2.95477 0.5183,3.9914 2.8125,5.625 2.2461,1.59936 2.8154,2.69784 2.8268,5.45446 0.017,3.99675 0.598,5.09671 3.5013,6.62568 1.8989,1 2.1094,1.80666 2.1094,8.08502 0,6.8009 0.07,7.01033 2.8125,8.42859 2.4856,1.28534 2.8125,1.9392 2.8125,5.625 0,3.6858 0.3269,4.33966 2.8125,5.625 2.4794,1.28215 2.8125,1.94362 2.8125,5.58524 0,3.51978 0.4161,4.42708 2.8125,6.13351 2.6573,1.89218 2.8125,2.35774 2.8125,8.4375 0,6.07976 0.1552,6.54533 2.8125,8.43752 2.6573,1.8922 2.8125,2.3577 2.8125,8.4375 0,6.0797 0.1552,6.5453 2.8125,8.4375 2.3964,1.7064 2.8125,2.6137 2.8125,6.1335 0,3.6416 0.3331,4.3031 2.8125,5.5852 2.7427,1.4183 2.8125,1.6277 2.8125,8.4286 0,6.2784 0.2105,7.0851 2.1094,8.085 3.1699,1.6694 3.5313,2.6524 3.3219,9.0383 -0.1838,5.6071 -0.054,5.9796 2.9565,8.49314 l 3.1488,2.6287 -0.5162,8.2746 -0.5163,8.27464 3.2241,3.224 c 3.1327,3.1328 3.2067,3.3776 2.6109,8.6435 -0.5025,4.4419 -0.3283,5.6552 0.9661,6.7269 5.196,4.3025 5.2352,4.3841 4.6216,9.6053 -0.6246,5.315 0.5692,9.0461 2.8946,9.0461 2.2645,0 2.6839,1.918 2.4742,11.3147 l -0.2034,9.1147 2.8602,2.0367 c 2.8576,2.0347 2.8601,2.0449 2.8601,11.2839 0,9.2048 0.013,9.2565 2.8125,11.25 2.7914,1.9876 2.8126,2.0708 2.8268,11.0795 0.015,9.7173 0.2502,10.5385 3.5013,12.2507 2.0277,1.0678 2.1094,1.5983 2.1094,13.71 l 0,12.5991 2.8125,1.4545 2.8125,1.4544 0,12.5683 0,12.5683 2.8125,2.0027 2.8125,2.0027 0.014,14.7018 c 0.01,8.0859 0.3242,15.1659 0.7031,15.7333 0.3788,0.5674 1.638,1.5314 2.7981,2.1424 2.0771,1.0937 2.1094,1.3903 2.1094,19.3261 0,17.9397 0.032,18.2318 2.1094,19.3127 1.1601,0.6036 2.3203,1.2857 2.5781,1.5159 0.2578,0.23 0.6797,12.7237 0.9375,27.7636 l 0.4688,27.3453 2.5781,0.2966 2.5781,0.2966 0,118.938 0,118.938 -2.5781,0.2966 -2.5781,0.2967 -0.4688,27.3452 c -0.2578,15.0399 -0.6797,27.5336 -0.9375,27.7636 -0.2578,0.2302 -1.418,0.9123 -2.5781,1.5159 -2.0775,1.0809 -2.1094,1.373 -2.1094,19.3128 0,17.9357 -0.033,18.2323 -2.1094,19.326 -1.1601,0.611 -2.4193,1.575 -2.7981,2.1424 -0.3789,0.5674 -0.6953,7.6474 -0.7031,15.7333 l -0.014,14.7018 -2.8125,2.0027 -2.8125,2.0027 0,12.5683 0,12.5683 -2.8125,1.4544 -2.8125,1.4545 0,12.5991 c 0,12.1117 -0.082,12.6422 -2.1094,13.71 -3.2511,1.7122 -3.4859,2.5334 -3.5013,12.2507 -0.014,9.0087 -0.036,9.0919 -2.8268,11.0795 -2.7996,1.9935 -2.8125,2.0452 -2.8125,11.25 0,9.239 0,9.2492 -2.8601,11.2839 l -2.8602,2.0367 0.2034,9.1147 c 0.2097,9.3967 -0.2097,11.3147 -2.4742,11.3147 -2.3254,0 -3.5192,3.7311 -2.8946,9.0461 0.6142,5.2253 0.5827,5.2905 -4.6445,9.6266 -1.3721,1.1383 -1.5247,2.5214 -1.0637,9.6372 l 0.5383,8.3083 -3.2122,3.2121 c -3.116,3.1159 -3.1949,3.3769 -2.6365,8.719 0.5645,5.4007 0.5153,5.554 -2.5488,7.952 -3.0029,2.3502 -3.1168,2.6751 -2.9301,8.3625 0.2114,6.4396 -0.1467,7.4203 -3.3199,9.0914 -1.8989,0.9999 -2.1094,1.8066 -2.1094,8.085 0,6.8009 -0.07,7.0103 -2.8125,8.4286 -2.4794,1.2821 -2.8125,1.9436 -2.8125,5.5852 0,3.5198 -0.4161,4.4271 -2.8125,6.1335 -2.6573,1.8922 -2.8125,2.3577 -2.8125,8.4375 0,6.0798 -0.1552,6.5453 -2.8125,8.4375 -2.6573,1.8922 -2.8125,2.3577 -2.8125,8.4375 0,6.0798 -0.1552,6.5453 -2.8125,8.4375 -2.3964,1.7064 -2.8125,2.6138 -2.8125,6.1335 0,3.6416 -0.3331,4.3031 -2.8125,5.5853 -2.7427,1.4182 -2.8125,1.6276 -2.8125,8.4285 0,6.2784 -0.2105,7.0851 -2.1094,8.085 -2.9074,1.5311 -3.4847,2.6287 -3.5013,6.6566 -0.011,2.6489 -0.5192,3.7486 -2.1237,4.5934 -2.9033,1.529 -3.4847,2.629 -3.5013,6.6257 -0.011,2.7567 -0.5807,3.8551 -2.8268,5.4545 -2.2942,1.6336 -2.8125,2.6703 -2.8125,5.625 0,2.9547 -0.5183,3.9914 -2.8125,5.625 -2.3735,1.69 -2.8125,2.6278 -2.8125,6.0071 0,3.3497 -0.3789,4.1771 -2.3179,5.0606 -2.7584,1.2568 -3.7526,4.5199 -2.935,9.633 0.6494,4.0609 -0.581,7.4243 -2.7159,7.4243 -1.908,0 -3.4279,3.3078 -2.7539,5.9932 0.574,2.2869 -1.5726,5.449 -4.3209,6.3651 -0.7697,0.2565 -1.1598,1.8256 -1.0637,4.2785 0.13,3.3163 -0.2513,4.1604 -2.6517,5.8696 -2.2849,1.627 -2.8035,2.6664 -2.8035,5.6186 0,2.9547 -0.5183,3.9914 -2.8125,5.625 -2.2263,1.5852 -2.8125,2.7007 -2.8125,5.3513 0,2.8639 -0.8144,4.1359 -5.625,8.785 -5.0478,4.8783 -5.625,5.8243 -5.625,9.2195 0,3.2557 -0.3923,3.9865 -2.8125,5.238 -2.4856,1.2853 -2.8125,1.9392 -2.8125,5.625 0,3.6857 -0.3269,4.3396 -2.8125,5.625 -2.4794,1.2821 -2.8125,1.9436 -2.8125,5.5852 0,3.5198 -0.4161,4.4271 -2.8125,6.1335 -2.232,1.5893 -2.8125,2.6982 -2.8125,5.3729 0,2.9032 -0.7796,4.1075 -5.625,8.6896 -4.8454,4.5821 -5.625,5.7864 -5.625,8.6896 0,2.6747 -0.5805,3.7836 -2.8125,5.3729 -2.3895,1.7015 -2.8125,2.6181 -2.8125,6.0944 0,3.2758 -0.3759,4.2111 -1.8853,4.6901 -1.0369,0.3291 -2.5089,1.8043 -3.271,3.278 -0.762,1.4738 -2.2125,2.9421 -3.223,3.2628 -2.1278,0.6754 -3.2468,3.4501 -2.4297,6.0247 0.4252,1.3399 -0.9648,3.3196 -5.551,7.9058 -5.4206,5.4206 -6.0556,6.4315 -5.569,8.8649 0.4623,2.3114 0.089,3.0741 -2.3546,4.8142 -2.3401,1.6664 -2.9039,2.7331 -2.9039,5.4946 0,2.9686 -0.7522,4.1426 -5.625,8.7793 -4.8006,4.5681 -5.625,5.8374 -5.625,8.6599 0,1.8692 -0.6408,3.8331 -1.4735,4.5162 -1.5086,1.2377 -3.7303,3.3933 -5.7662,5.5948 -2.9027,3.1389 -6.5748,6.7709 -8.1618,8.0729 -0.8395,0.6887 -1.4735,2.651 -1.4735,4.5602 0,2.9861 -0.9196,4.2476 -8.4375,11.5747 -7.225,7.0416 -8.4375,8.6634 -8.4375,11.286 0,2.5086 -1.0177,4.0553 -5.625,8.5496 -5.0303,4.9071 -5.625,5.8851 -5.625,9.2521 0,3.1062 -0.4101,3.9519 -2.3438,4.8329 -1.289,0.5873 -2.3437,1.4096 -2.3437,1.8272 0,0.4177 -3.7969,4.5131 -8.4375,9.1011 -7.1498,7.0684 -8.4375,8.8022 -8.4375,11.3592 0,2.5648 -1.3365,4.3477 -8.9063,11.8806 -4.8984,4.8746 -8.9062,9.1998 -8.9062,9.6116 0,0.4118 -1.0181,1.2126 -2.2625,1.7795 -1.2443,0.567 -2.518,1.8363 -2.8305,2.8208 -0.3124,0.9844 -1.6146,2.2667 -2.8938,2.8495 -1.9111,0.8709 -2.3257,1.7275 -2.3257,4.8061 0,3.598 -0.6698,4.4255 -16.8971,20.8795 -9.2935,9.4231 -17.2669,17.4916 -17.7188,17.9299 -1.6102,1.5617 -7.7645,7.7474 -8.7336,8.7782 -1.143,1.2158 -39.8658,40.9236 -41.5401,42.5968 -0.8513,0.8508 -1.9262,1.9055 -2.3887,2.3438 -0.4623,0.4383 -9.9113,10.0781 -20.9976,21.4219 -11.0862,11.3437 -20.5376,20.9835 -21.003,21.4218 -0.4654,0.4383 -1.6266,1.5352 -2.5805,2.4376 -0.9539,0.9024 -3.4219,3.599 -5.4844,5.9924 -3.0457,3.5345 -4.331,4.3532 -6.844,4.3594 -2.7469,0.01 -4.7693,1.6935 -18.0304,15.0383 -8.215,8.267 -15.3805,15.8608 -15.9233,16.875 -0.7535,1.4078 -1.9696,1.8442 -5.1398,1.8442 -3.1943,0 -4.3845,0.433 -5.157,1.8764 -0.5523,1.032 -3.9567,4.8289 -7.5653,8.4375 -5.2359,5.2359 -7.1347,6.5611 -9.4017,6.5611 -2.382,0 -4.4576,1.6623 -12.8583,10.2979 -5.5097,5.6638 -10.5507,10.9255 -11.2022,11.6928 -0.7792,0.9175 -2.1005,1.2117 -3.861,0.8596 -1.8415,-0.3683 -3.0805,-0.054 -3.9717,1.0075 -0.7124,0.8486 -3.3518,3.665 -5.8653,6.2585 -3.7957,3.9168 -4.9667,4.6162 -6.9108,4.1283 -2.0346,-0.5107 -3.4665,0.5831 -10.9509,8.3652 -7.8487,8.1608 -8.9183,8.9527 -12.0938,8.9527 -2.7987,0 -3.6917,0.4571 -4.5431,2.3258 -0.5828,1.2791 -1.844,2.5746 -2.8026,2.8788 -0.9587,0.3043 -2.3821,1.789 -3.1631,3.2994 -1.2514,2.4199 -1.9217,2.746 -5.6442,2.746 -3.1622,0 -4.3796,0.4124 -4.8427,1.6406 -0.3403,0.9024 -2.4031,3.4336 -4.5841,5.625 -3.1628,3.178 -4.6316,3.9844 -7.2568,3.9844 -2.5871,0 -3.7199,0.6019 -5.2941,2.8125 -1.5825,2.2223 -2.7023,2.8125 -5.3369,2.8125 -2.7732,0 -4.1032,0.7936 -7.9049,4.7173 -2.5139,2.5945 -4.5707,5.1258 -4.5707,5.625 0,0.4992 -1.8876,0.9077 -4.1947,0.9077 -3.69,0 -4.3655,0.3304 -5.6147,2.746 -0.781,1.5104 -2.2044,2.9951 -3.1631,3.2994 -0.9586,0.3042 -2.2198,1.5997 -2.8026,2.8789 -0.8533,1.8727 -1.7484,2.3285 -4.5955,2.34 -4.0814,0.017 -5.175,0.5873 -6.7096,3.5013 -0.8618,1.6366 -1.9296,2.1094 -4.764,2.1094 -2.989,0 -4.0172,0.5113 -5.6558,2.8125 -1.5825,2.2223 -2.7023,2.8125 -5.3369,2.8125 -2.7732,0 -4.1032,0.7936 -7.9049,4.7173 -2.5139,2.5945 -4.5707,5.1026 -4.5707,5.5736 0,0.471 -2.0005,0.985 -4.4457,1.1421 -3.7918,0.2438 -4.6267,0.665 -5.6762,2.8639 -1.0119,2.1202 -1.8458,2.5806 -4.6949,2.5924 -4.0095,0.017 -5.1085,0.5963 -6.6384,3.5013 -0.8639,1.6407 -1.9286,2.1094 -4.7909,2.1094 -2.2079,0 -4.1635,0.5894 -4.8888,1.4735 -3.7551,4.577 -4.4877,5.0426 -7.109,4.5183 -2.2507,-0.4501 -3.0574,-0.01 -5.2653,2.8869 -2.2336,2.9284 -2.989,3.3347 -5.2693,2.8338 -2.6554,-0.5832 -3.3354,-0.1472 -7.3605,4.7191 -0.9036,1.0924 -2.1143,1.4021 -4.0039,1.0242 -2.6908,-0.5381 -3.3349,-0.1295 -7.2408,4.595 -0.8398,1.0159 -2.1445,1.3968 -3.7399,1.0918 -2.899,-0.5542 -5.7514,0.7545 -5.7514,2.6387 0,1.8254 -2.9804,3.28 -6.7353,3.2871 -2.4686,0.01 -3.4371,0.5837 -4.7055,2.8125 -1.3538,2.3792 -2.165,2.8066 -5.3268,2.8066 -3.0741,0 -4.0817,0.4943 -5.7324,2.8125 -1.8938,2.6595 -2.3543,2.8125 -8.4683,2.8125 -5.751,0 -6.5885,0.2332 -7.5765,2.1094 -1.5317,2.9085 -2.6286,3.4847 -6.6655,3.5013 -2.9244,0.012 -3.7278,0.4711 -4.946,2.8268 -1.2853,2.4856 -1.9392,2.8125 -5.625,2.8125 -3.6857,0 -4.3396,0.3269 -5.625,2.8125 -1.4029,2.7131 -1.6831,2.8125 -7.929,2.8125 -6.1239,0 -6.583,0.1523 -8.4772,2.8125 -1.6336,2.2942 -2.6703,2.8125 -5.625,2.8125 -2.9547,0 -3.9914,0.5183 -5.625,2.8125 -1.8942,2.6602 -2.3533,2.8125 -8.4773,2.8125 -6.2458,0 -6.526,0.099 -7.929,2.8125 -1.2853,2.4856 -1.9392,2.8125 -5.625,2.8125 -3.6857,0 -4.3396,0.3269 -5.625,2.8125 -1.3958,2.6993 -1.7081,2.8131 -7.7584,2.8268 -6.7147,0.015 -7.5901,0.3257 -9.2148,3.267 -0.8588,1.5546 -2.1741,1.9219 -7.6992,2.1497 -6.1707,0.2544 -6.8096,0.4798 -8.6376,3.0469 -1.8639,2.6178 -2.3382,2.7721 -8.5161,2.7721 -6.2855,0 -6.605,0.1102 -8.1393,2.8066 -1.5419,2.7097 -1.8309,2.8068 -8.3698,2.8125 -6.5747,0.01 -6.8154,0.088 -8.2273,2.8184 -1.4041,2.7154 -1.6792,2.8125 -7.9647,2.8125 -6.1467,0 -6.6265,0.1571 -8.5897,2.8125 -2.0659,2.7942 -2.1396,2.8125 -11.3217,2.8125 l -9.2423,0 -1.597,2.8066 c -1.7194,3.0216 -2.1564,3.164 -8.7753,2.8597 -4.7737,-0.2195 -8.2905,1.1491 -8.2905,3.2264 0,2.3794 -2.9305,3.0526 -11.2283,2.5796 -6.9075,-0.3939 -8.361,-0.2207 -9.4806,1.1297 -4.2749,5.1562 -3.8804,5.0163 -12.7281,4.5119 l -8.3471,-0.476 -2.5003,3.2781 -2.5003,3.278 -10.6576,-0.4703 c -10.9502,-0.4832 -14.7452,0.3036 -14.7452,3.0576 0,2.5846 -3.7929,3.5566 -11.7005,2.9986 -8.304,-0.586 -8.6528,-0.4792 -11.128,3.407 l -1.6913,2.6557 -14.5557,-0.2829 c -13.5957,-0.2642 -14.6399,-0.161 -15.8331,1.5631 -3.0276,4.375 -2.7656,4.315 -17.8354,4.0881 -7.9403,-0.1196 -14.5661,-0.04 -14.724,0.1765 -0.1579,0.2166 -1.0128,1.554 -1.8998,2.972 l -1.6129,2.5781 -17.758,0 c -17.4614,0 -17.7764,0.036 -18.8686,2.1094 -0.611,1.1601 -1.575,2.4193 -2.1424,2.7981 -0.5674,0.3789 -11.1776,0.6953 -23.5784,0.7032 -23.3665,0.015 -24.7969,0.2428 -24.7969,3.9518 0,1.6165 -5.2431,1.6875 -124.6875,1.6875 -119.4444,0 -124.6875,-0.071 -124.6875,-1.6875 z m 227.6167,-381.0469 1.2356,-2.5781 20.51,0 20.51,0 1.9863,-2.7895 1.9864,-2.7895 15.1753,-0.2574 15.1754,-0.2573 1.2346,-2.5782 1.2345,-2.5781 11.902,-0.014 c 6.5461,-0.01 12.3661,-0.3242 12.9335,-0.7031 0.5674,-0.3788 1.5314,-1.638 2.1424,-2.7981 1.0377,-1.9707 1.7213,-2.1094 10.389,-2.1094 9.239,0 9.2866,-0.012 11.2808,-2.8125 l 2.0027,-2.8125 11.618,0 c 11.8912,0 12.0408,-0.041 14.8604,-4.1244 1.0211,-1.4785 2.2768,-1.7517 7.4031,-1.6107 6.247,0.1719 6.716,-0.03 9.541,-4.1087 1.1689,-1.6877 2.1588,-1.8437 9.9083,-1.5629 l 8.6096,0.3122 3.0295,-3.3073 c 2.9318,-3.2008 3.1965,-3.2901 8.2219,-2.7713 5.4184,0.5592 5.5877,0.477 9.9564,-4.8293 1.0025,-1.2177 2.2983,-1.3926 6.6611,-0.899 4.4391,0.5023 5.6525,0.3279 6.7241,-0.9663 4.399,-5.3126 4.3935,-5.31 10.1268,-4.6614 l 5.4542,0.6171 2.6701,-3.5006 c 2.664,-3.4928 2.6825,-3.4994 8.1107,-2.9321 5.6753,0.5932 5.7636,0.5532 9.9047,-4.4943 0.7253,-0.8841 2.6809,-1.4735 4.8888,-1.4735 2.8623,0 3.927,-0.4688 4.7909,-2.1094 1.6451,-3.1237 2.7012,-3.584 7.8614,-3.4263 7.2914,0.223 7.7868,0.078 9.0969,-2.6674 1.0345,-2.1675 1.9023,-2.6222 5.4488,-2.8546 3.5488,-0.2326 4.4708,-0.7163 5.8084,-3.0469 1.5222,-2.6523 1.8688,-2.7704 8.1323,-2.7704 6.1991,0 6.6472,-0.1475 8.5449,-2.8125 1.6386,-2.3012 2.6668,-2.8125 5.6558,-2.8125 2.8344,0 3.9022,-0.4728 4.764,-2.1094 1.5317,-2.9085 2.6286,-3.4847 6.6655,-3.5013 2.9244,-0.012 3.7278,-0.4712 4.9459,-2.8268 1.2854,-2.4856 1.9393,-2.8125 5.625,-2.8125 3.6858,0 4.3397,-0.3269 5.625,-2.8125 1.2395,-2.3968 1.9957,-2.8125 5.1165,-2.8125 2.999,0 4.0247,-0.5093 5.6648,-2.8125 1.6336,-2.2942 2.6703,-2.8125 5.625,-2.8125 2.9547,0 3.9914,-0.5184 5.625,-2.8125 1.6507,-2.3182 2.6583,-2.8125 5.7324,-2.8125 3.1618,0 3.973,-0.4274 5.3268,-2.8066 1.3771,-2.4201 2.1424,-2.8074 5.5573,-2.8125 3.4495,-0.01 4.148,-0.3687 5.4147,-2.8184 1.2847,-2.4842 1.9402,-2.8125 5.6161,-2.8125 3.2528,0 4.3891,-0.425 5.2032,-1.946 0.5728,-1.0702 2.697,-3.6015 4.7205,-5.625 2.851,-2.851 4.4031,-3.679 6.8964,-3.679 2.5049,0 3.6609,-0.6229 5.2201,-2.8125 1.6336,-2.2942 2.6703,-2.8125 5.625,-2.8125 2.9547,0 3.9914,-0.5184 5.625,-2.8125 1.5808,-2.2201 2.7032,-2.8125 5.3285,-2.8125 3.2274,0 5.9189,-2.1907 13.1998,-10.744 0.7781,-0.9141 2.1029,-1.2079 3.861,-0.8563 1.8555,0.3711 3.0738,0.055 3.9717,-1.0307 4.0255,-4.8667 4.7049,-5.3023 7.3616,-4.7188 1.838,0.4037 3.0536,0.1257 3.9234,-0.8974 0.6932,-0.8154 4.4895,-4.8479 8.4363,-8.9613 5.976,-6.2285 7.667,-7.479 10.113,-7.479 2.7735,0 5.9025,-2.551 12.0448,-9.8195 0.7048,-0.8341 2.7432,-1.4305 4.8888,-1.4305 2.5938,0 3.9486,-0.5017 4.5896,-1.6993 0.5002,-0.9347 3.8411,-4.7316 7.4241,-8.4375 5.4376,-5.6242 7.0155,-6.7382 9.5432,-6.7382 2.5794,0 4.2475,-1.251 11.2517,-8.4375 7.3778,-7.57 8.5738,-8.4375 11.6318,-8.4375 2.6841,0 3.6254,-0.4762 4.4294,-2.2407 0.5615,-1.2325 1.9824,-2.7553 3.1576,-3.3843 1.1751,-0.629 2.5794,-2.1153 3.1205,-3.3029 0.5411,-1.1877 1.8534,-2.4355 2.916,-2.7728 1.0628,-0.3372 1.9322,-0.9637 1.9322,-1.3923 0,-0.4285 4.3973,-5.2516 9.7718,-10.718 8.2824,-8.4242 10.2184,-9.939 12.7029,-9.939 2.4446,0 4.1676,-1.284 10.3789,-7.7344 4.0962,-4.2539 7.8838,-8.1562 8.4167,-8.6719 0.5331,-0.5156 1.4849,-1.4779 2.115,-2.1385 2.2099,-2.3162 41.0071,-41.9324 41.8378,-42.7208 1.2296,-1.1673 2.3073,-2.2578 20.7519,-20.998 15.2898,-15.5348 16.8375,-17.4057 16.8375,-20.3537 0,-1.8137 0.6503,-3.7798 1.4735,-4.4552 1.5956,-1.309 5.2433,-4.917 8.1618,-8.0729 0.6303,-0.6814 1.8631,-1.9471 2.7397,-2.8125 2.0179,-1.9921 3.6126,-3.5867 5.6047,-5.6046 0.8654,-0.8766 2.2365,-2.1377 3.0468,-2.8026 0.821,-0.6735 1.4735,-2.6403 1.4735,-4.4411 0,-2.82 1.0834,-4.3187 8.4964,-11.7529 7.609,-7.6308 8.4362,-8.7949 7.9197,-11.146 -0.5672,-2.5824 1.2616,-5.6699 3.3585,-5.6699 0.4898,0 1.35,-1.0082 1.9114,-2.2404 0.5614,-1.2322 1.9923,-2.683 3.1798,-3.2241 1.1875,-0.5411 2.4147,-1.7891 2.7272,-2.7736 0.3124,-0.9844 1.6146,-2.2667 2.8938,-2.8495 1.9303,-0.8795 2.3257,-1.719 2.3257,-4.9369 0,-3.6483 0.4982,-4.3628 8.4375,-12.1005 7.2358,-7.0522 8.4375,-8.6609 8.4375,-11.2958 0,-2.5391 0.9763,-3.9957 5.625,-8.3917 5.1313,-4.8525 5.625,-5.6636 5.625,-9.2423 0,-3.2666 0.3892,-4.1002 2.3258,-4.9826 1.2791,-0.5828 2.5746,-1.8441 2.8788,-2.8027 0.3043,-0.9586 1.789,-2.382 3.2994,-3.163 2.4107,-1.2467 2.746,-1.9282 2.746,-5.5818 0,-3.3617 0.4055,-4.3752 2.1094,-5.2725 2.8562,-1.5041 3.4844,-2.6315 3.5013,-6.2837 0.012,-2.5805 0.9935,-4.0418 5.7657,-8.5828 4.9296,-4.6909 5.6811,-5.8397 5.2603,-8.0411 -0.3895,-2.0378 0.1767,-3.236 2.7416,-5.8009 2.6541,-2.6539 3.1289,-3.7046 2.6533,-5.8699 -0.4038,-1.8386 -0.1162,-3.0192 0.9492,-3.8977 4.6788,-3.8577 5.1008,-4.5244 4.5634,-7.2111 -0.5386,-2.6931 -0.057,-3.4877 3.6697,-6.0524 0.9254,-0.6369 1.7045,-2.2046 1.7313,-3.4836 0.099,-4.7202 0.9085,-6.6302 3.1747,-7.4919 1.9867,-0.7553 2.3176,-1.4777 2.3176,-5.0593 0,-3.5722 0.4078,-4.4684 2.8125,-6.1807 2.2942,-1.6336 2.8125,-2.6703 2.8125,-5.625 0,-2.9547 0.5183,-3.9914 2.8125,-5.625 2.2942,-1.6336 2.8125,-2.6703 2.8125,-5.625 0,-2.9547 0.5183,-3.9914 2.8125,-5.625 2.2461,-1.5994 2.8154,-2.6979 2.8268,-5.4545 0.017,-3.9967 0.598,-5.0967 3.5013,-6.6257 1.7039,-0.8973 2.1094,-1.9108 2.1094,-5.2725 0,-3.6759 0.3283,-4.3314 2.8125,-5.6161 2.4842,-1.2846 2.8125,-1.9401 2.8125,-5.6161 0,-3.3616 0.4055,-4.3752 2.1094,-5.2725 3.1383,-1.6527 3.4855,-2.5888 3.5013,-9.4381 0.013,-5.8831 0.1855,-6.3862 2.8268,-8.267 2.2942,-1.6336 2.8125,-2.6703 2.8125,-5.625 0,-2.9547 0.5183,-3.9914 2.8125,-5.625 2.6573,-1.8922 2.8125,-2.3577 2.8125,-8.4375 0,-6.0798 0.1552,-6.5454 2.8125,-8.4375 2.6945,-1.9187 2.8125,-2.296 2.8125,-8.9933 0,-6.573 0.1385,-7.0433 2.3176,-7.8718 2.7902,-1.0608 3.7496,-4.2677 2.9727,-9.9359 -0.5892,-4.2991 -0.4647,-4.5354 4.6044,-8.737 1.3005,-1.078 1.4872,-2.318 1.0207,-6.7816 -0.556,-5.3199 -0.4841,-5.5492 2.7578,-8.791 3.2461,-3.2462 3.3124,-3.4588 2.6741,-8.5681 -0.6411,-5.1308 -0.5863,-5.3019 2.6398,-8.2574 l 3.2944,-3.0181 -0.481,-8.435 c -0.5015,-8.7965 -0.4694,-8.8943 3.9226,-11.931 1.5944,-1.1024 1.7895,-2.2523 1.5927,-9.391 -0.2662,-9.6619 0.2286,-11.6144 3.2332,-12.7568 2.1938,-0.8341 2.2635,-1.1623 2.2635,-10.6638 l 0,-9.803 2.8125,-2.0027 2.8125,-2.0027 0,-12.0598 0,-12.0598 2.8125,-2.0027 2.8125,-2.0027 0,-15.3808 0,-15.3808 2.8125,-1.4545 2.8125,-1.4544 0,-18.1933 0,-18.1933 2.8125,-2.0027 2.8125,-2.0027 0,-105.8098 0,-105.8098 -2.8125,-2.0027 -2.8125,-2.0027 0,-21.0058 0,-21.0058 -2.8125,-1.4545 -2.8125,-1.4544 0,-15.3808 0,-15.3808 -2.8125,-2.0027 -2.8125,-2.0027 0,-12.0598 0,-12.0598 -2.8125,-2.0027 -2.8125,-2.0027 0,-9.7469 c 0,-9.1539 -0.1283,-9.8145 -2.1094,-10.8578 -3.3034,-1.7396 -3.5487,-2.6139 -3.3598,-11.9708 0.1565,-7.7471 -0.038,-8.946 -1.6297,-10.0462 -4.3835,-3.0299 -4.4147,-3.1254 -3.9098,-11.9811 l 0.4841,-8.4921 -3.2909,-3.0144 c -3.2153,-2.9452 -3.2761,-3.1336 -2.6431,-8.2003 0.6305,-5.0458 0.5581,-5.2757 -2.6807,-8.5146 -3.2419,-3.2419 -3.3138,-3.4711 -2.7578,-8.791 0.4665,-4.4636 0.2798,-5.7037 -1.0207,-6.7816 -5.0691,-4.2016 -5.1936,-4.438 -4.6044,-8.737 0.7684,-5.6059 -0.1817,-8.8368 -2.9724,-10.1084 -2.1562,-0.9824 -2.3179,-1.5316 -2.3179,-7.873 0,-6.5044 -0.129,-6.9088 -2.8125,-8.8196 -2.2942,-1.6336 -2.8125,-2.6703 -2.8125,-5.625 0,-2.9547 -0.5183,-3.9914 -2.8125,-5.625 -2.6599,-1.894 -2.8125,-2.3538 -2.8125,-8.4733 0,-6.1025 -0.16,-6.5889 -2.8125,-8.5499 -2.2018,-1.6279 -2.8156,-2.8045 -2.8268,-5.4188 -0.017,-3.8833 -0.6128,-4.992 -3.5013,-6.5132 -1.8989,-0.9999 -2.1094,-1.8066 -2.1094,-8.085 0,-6.8009 -0.07,-7.0103 -2.8125,-8.4286 -2.4794,-1.2821 -2.8125,-1.9436 -2.8125,-5.5851 0,-3.51984 -0.4161,-4.42714 -2.8125,-6.13354 -2.2942,-1.6336 -2.8125,-2.6703 -2.8125,-5.625 0,-2.9548 -0.5183,-3.9914 -2.8125,-5.625 -2.2942,-1.63364 -2.8125,-2.67034 -2.8125,-5.62504 0,-2.9548 -0.5183,-3.9914 -2.8125,-5.625 -2.3549,-1.6769 -2.8134,-2.6405 -2.8184,-5.9233 -0.01,-3.3707 -0.3996,-4.1445 -2.8125,-5.5175 -2.4749,-1.4083 -2.8066,-2.1035 -2.8066,-5.8826 0,-3.6957 -0.3189,-4.4069 -2.3176,-5.1667 -2.2662,-0.8617 -3.0756,-2.7716 -3.1747,-7.4918 -0.027,-1.2791 -0.8059,-2.8468 -1.7313,-3.4837 -3.7266,-2.5647 -4.2083,-3.3592 -3.6697,-6.0524 0.5374,-2.6867 0.1154,-3.3533 -4.5634,-7.2111 -1.0709,-0.883 -1.3533,-2.0575 -0.9436,-3.9233 0.5137,-2.33848 -0.108,-3.35588 -5.1012,-8.34906 -4.6067,-4.60673 -5.6887,-6.26445 -5.7003,-8.73295 -0.017,-3.58882 -0.6545,-4.7216 -3.5013,-6.22077 -1.6361,-0.8616 -2.1094,-1.92977 -2.1094,-4.76088 0,-3.45505 -1.8273,-6.59648 -3.8371,-6.59648 -0.4898,0 -1.35,-1.00817 -1.9114,-2.24037 -0.5614,-1.2322 -2.0289,-2.69972 -3.2612,-3.26115 -1.8861,-0.85942 -2.2403,-1.69775 -2.2403,-5.30323 0,-3.77563 -0.3322,-4.47146 -2.8066,-5.87948 -2.3646,-1.34551 -2.8075,-2.17475 -2.8125,-5.26547 -0.01,-3.26448 -0.6253,-4.25422 -5.6309,-8.9878 -4.6179,-4.36697 -5.625,-5.86192 -5.625,-8.34987 0,-2.57215 -1.2762,-4.29465 -8.4375,-11.38807 -7.8517,-7.77719 -8.4375,-8.62034 -8.4375,-12.14239 0,-3.12742 -0.4072,-3.97036 -2.3437,-4.85275 -1.2891,-0.58734 -2.3438,-1.42343 -2.3438,-1.85798 0,-0.43455 -2.7645,-3.47415 -6.1432,-6.75467 -5.2749,-5.12143 -6.0584,-6.30324 -5.542,-8.36035 0.5243,-2.08887 -0.4902,-3.49143 -7.9192,-10.94883 -7.404,-7.43221 -8.5206,-8.97279 -8.5206,-11.75587 0,-1.77408 -0.6573,-3.74204 -1.4735,-4.41163 -0.8103,-0.66486 -2.2447,-1.98931 -3.1875,-2.94321 -0.9427,-0.95391 -2.1359,-2.15625 -2.6515,-2.67188 -0.5156,-0.51562 -1.6332,-1.63359 -2.4835,-2.48437 -15.3355,-15.344 -18.329,-18.88578 -18.329,-21.6862 0,-2.46264 -1.7107,-4.65125 -11.0156,-14.09254 -6.0586,-6.14742 -11.4375,-11.62794 -11.9531,-12.17895 -0.5157,-0.55099 -1.6562,-1.72467 -2.5347,-2.60814 -3.4783,-3.49841 -5.6598,-5.6743 -6.4511,-6.43446 -0.4563,-0.43828 -8.6442,-8.8125 -18.1955,-18.60937 -9.5513,-9.79688 -17.7421,-18.17109 -18.2017,-18.60938 -0.4597,-0.43828 -1.6795,-1.64062 -2.7108,-2.67187 -4.1354,-4.13537 -5.5226,-5.58109 -10.626,-11.0738 -3.4496,-3.71278 -4.957,-4.6762 -7.3166,-4.6762 -2.5744,0 -4.6574,-1.70621 -15.5771,-12.75929 -6.933,-7.01762 -12.6053,-13.06708 -12.6053,-13.44327 0,-0.37618 -1.0181,-1.14785 -2.2625,-1.71481 -1.2443,-0.56695 -2.5169,-1.83276 -2.8279,-2.81288 -0.3112,-0.98013 -1.5668,-2.31782 -2.7903,-2.97264 -1.2236,-0.65483 -2.6841,-2.19894 -3.2456,-3.43135 -0.804,-1.76459 -1.7453,-2.24076 -4.4295,-2.24076 -3.0579,0 -4.254,-0.86757 -11.6317,-8.4375 -7.0051,-7.18756 -8.6721,-8.4375 -11.2526,-8.4375 -2.2926,0 -3.8971,-0.89417 -6.5973,-3.67661 -1.9625,-2.02214 -4.0374,-4.55339 -4.6108,-5.625 -0.784,-1.46486 -1.956,-1.94839 -4.7229,-1.94839 -2.1657,0 -4.1774,-0.59421 -4.8888,-1.44404 -0.6649,-0.79421 -4.5053,-4.80333 -8.5342,-8.90913 -6.2803,-6.40019 -7.6582,-7.38152 -9.6595,-6.87924 -1.9893,0.49928 -3.2064,-0.33939 -8.2365,-5.67544 -5.0657,-5.37377 -6.238,-6.17705 -8.2705,-5.66693 -1.97,0.49445 -3.1596,-0.19719 -7.0776,-4.11521 -2.5902,-2.59026 -4.8926,-5.25856 -5.1162,-5.92954 -0.2237,-0.671 -1.8484,-1.29394 -3.6105,-1.38433 -1.7622,-0.0904 -3.6257,-0.19947 -4.1414,-0.24241 -0.5156,-0.0429 -1.6561,-1.34104 -2.5345,-2.88465 -1.4062,-2.4714 -2.1061,-2.80658 -5.8594,-2.80658 -2.3443,0 -4.2623,-0.40846 -4.2623,-0.9077 0,-0.49923 -2.0568,-3.03048 -4.5707,-5.625 -3.8017,-3.92368 -5.1317,-4.7173 -7.9049,-4.7173 -2.6347,0 -3.7544,-0.59012 -5.3369,-2.8125 -1.5592,-2.18962 -2.7152,-2.8125 -5.2201,-2.8125 -2.4933,0 -4.0454,-0.828 -6.8964,-3.67904 -2.0235,-2.02346 -4.1477,-4.55471 -4.7205,-5.625 -0.8141,-1.52096 -1.9504,-1.94596 -5.2032,-1.94596 -3.6759,0 -4.3314,-0.3283 -5.6161,-2.8125 -1.2394,-2.39678 -1.9956,-2.8125 -5.1165,-2.8125 -2.9989,0 -4.0246,-0.5093 -5.6647,-2.8125 -1.6336,-2.29418 -2.6703,-2.8125 -5.625,-2.8125 -2.9547,0 -3.9914,-0.51832 -5.625,-2.8125 -1.6336,-2.29418 -2.6703,-2.8125 -5.625,-2.8125 -2.9547,0 -3.9914,-0.51832 -5.625,-2.8125 -1.6401,-2.3032 -2.6658,-2.8125 -5.6648,-2.8125 -3.1208,0 -3.877,-0.41573 -5.1165,-2.8125 -1.2853,-2.48557 -1.9392,-2.8125 -5.625,-2.8125 -3.6857,0 -4.3396,-0.32693 -5.625,-2.8125 -1.2181,-2.35568 -2.0215,-2.81483 -4.9459,-2.82685 -4.0369,-0.0166 -5.1338,-0.5928 -6.6655,-3.50128 -0.8618,-1.63657 -1.9296,-2.10937 -4.764,-2.10937 -2.989,0 -4.0172,-0.5113 -5.6558,-2.8125 -1.8977,-2.66499 -2.3458,-2.8125 -8.5449,-2.8125 -6.2635,0 -6.6101,-0.11809 -8.1323,-2.77042 -1.336,-2.32787 -2.2614,-2.81458 -5.7935,-3.04687 -3.3879,-0.22283 -4.4263,-0.72571 -5.3525,-2.59213 -1.4905,-3.00349 -3.4542,-3.65377 -9.2969,-3.07854 -3.7465,0.36884 -5.0606,0.12748 -6.0938,-1.11934 -3.9693,-4.78952 -4.6425,-5.2299 -7.0658,-4.62168 -2.0126,0.50512 -2.9987,7.7e-4 -5.6438,-2.88644 -3.1764,-3.46728 -3.2535,-3.49289 -8.6303,-2.86885 l -5.4252,0.62967 -2.649,-3.47302 c -2.6452,-3.46797 -2.6571,-3.47219 -8.1485,-2.89821 -5.7653,0.60258 -5.7511,0.60912 -10.074,-4.60637 -1.0676,-1.28817 -2.32,-1.487 -6.569,-1.0429 -5.8354,0.60993 -6.4129,0.38345 -8.875,-3.48033 -1.6589,-2.60346 -1.922,-2.68085 -7.4188,-2.18242 -5.5722,0.50527 -5.765,0.44455 -8.674,-2.73137 l -2.9752,-3.24814 -8.7286,0.15909 c -7.5892,0.13832 -8.8871,-0.0706 -9.943,-1.6007 -2.7546,-3.99151 -3.0962,-4.10353 -12.5142,-4.10353 -9.2071,0 -9.2975,-0.0221 -10.5204,-2.57812 -1.2122,-2.53376 -1.3979,-2.58272 -10.7916,-2.84485 -9.399,-0.26228 -9.591,-0.31302 -11.5378,-3.04687 -1.9661,-2.76125 -2.0427,-2.78016 -11.2577,-2.78016 -8.6677,0 -9.3513,-0.1388 -10.389,-2.10937 -0.611,-1.16016 -1.575,-2.41933 -2.1424,-2.79815 -0.5674,-0.37883 -7.5706,-0.6979 -15.5628,-0.70905 l -14.5313,-0.0202 -1.597,-2.80657 -1.597,-2.80657 -14.9798,0 -14.9797,0 -2.0027,-2.8125 -2.0027,-2.8125 -20.0286,0 -20.0285,0 -2.0027,-2.8125 -2.0027,-2.8125 -106.7871,0 -106.787,0 -1.4545,2.8125 -1.4544,2.8125 -20.5371,0 -20.537,0 -2.0027,2.8125 -2.0027,2.8125 -14.9121,0 -14.912,0 -1.4545,2.8125 -1.4544,2.8125 -14.9121,0 -14.912,0 -2.0027,2.8125 c -1.9961,2.80329 -2.0333,2.8125 -11.3574,2.8125 l -9.3548,0 -1.597,2.80657 c -1.5964,2.80543 -1.6006,2.80658 -10.5033,2.82686 -9.5441,0.0217 -10.3711,0.26183 -12.0802,3.50719 -1.0361,1.96752 -1.7233,2.10881 -10.2184,2.10093 -9.0705,-0.008 -9.1175,0.004 -11.5216,2.92811 l -2.414,2.93657 -9.0921,-0.15368 -9.0922,-0.15368 -1.6189,2.84464 c -1.7546,3.0832 -2.0793,3.18483 -9.2421,2.89341 -3.5129,-0.14293 -5.1568,0.22317 -6.0938,1.35712 -4.265,5.16203 -4.281,5.16931 -10.0289,4.56854 -4.4921,-0.46953 -5.7306,-0.28444 -6.8098,1.01771 -4.3171,5.20845 -4.3164,5.20815 -10.0151,4.61252 -5.4219,-0.5667 -5.4497,-0.55671 -8.0901,2.905 l -2.6495,3.47364 -5.4342,-0.6307 c -5.7168,-0.6635 -5.7346,-0.65526 -10.1703,4.71004 -0.8398,1.01592 -2.1445,1.39679 -3.7399,1.0918 -2.899,-0.55417 -5.7514,0.75449 -5.7514,2.63866 0,2.16104 -3.7019,3.53052 -8.1792,3.02586 -5.5977,-0.63094 -7.0359,-0.12684 -8.8988,3.11915 -1.3363,2.32839 -2.1694,2.76124 -5.3145,2.76124 -3.0742,0 -4.0818,0.49438 -5.7325,2.8125 -1.6146,2.26756 -2.6827,2.8125 -5.5125,2.8125 -2.8127,0 -3.9228,0.55859 -5.5892,2.8125 -1.9633,2.65537 -2.4431,2.8125 -8.5898,2.8125 -6.2855,0 -6.5605,0.0971 -7.9647,2.8125 -1.2853,2.48556 -1.9392,2.8125 -5.625,2.8125 -3.6858,0 -4.3397,0.32693 -5.625,2.8125 -1.2395,2.39677 -1.9957,2.8125 -5.1165,2.8125 -2.9989,0 -4.0247,0.50929 -5.6648,2.8125 -1.6336,2.29418 -2.6702,2.8125 -5.625,2.8125 -2.9547,0 -3.9914,0.51831 -5.625,2.8125 -1.6336,2.29418 -2.6702,2.8125 -5.625,2.8125 -2.9547,0 -3.9914,0.51831 -5.625,2.8125 -1.64,2.3032 -2.6658,2.8125 -5.6647,2.8125 -3.1208,0 -3.8771,0.41572 -5.1165,2.8125 -1.2846,2.48419 -1.9402,2.8125 -5.6161,2.8125 -3.2528,0 -4.3891,0.42499 -5.2031,1.94596 -0.5728,1.07028 -2.6971,3.60153 -4.7205,5.625 -2.8511,2.851 -4.4032,3.679 -6.8965,3.679 -2.5048,0 -3.6609,0.62288 -5.2201,2.8125 -1.6336,2.29418 -2.6702,2.8125 -5.625,2.8125 -2.9547,0 -3.9914,0.51832 -5.625,2.8125 -1.5808,2.22011 -2.7031,2.8125 -5.3284,2.8125 -2.7804,0 -4.0768,0.7874 -7.905,4.80114 -2.5185,2.64064 -4.5791,5.17189 -4.5791,5.625 0,0.45313 -1.582,0.83032 -3.5156,0.83821 -4.0611,0.0166 -5.1562,0.58977 -6.6895,3.50127 -0.864,1.6406 -1.9287,2.10938 -4.7909,2.10938 -2.1749,0 -4.1744,0.59317 -4.8889,1.45034 -0.6648,0.79768 -3.2352,3.54227 -5.7119,6.09907 -3.704,3.82382 -4.9118,4.54616 -6.8061,4.07071 -2.2252,-0.55849 -5.0259,1.79495 -12.4861,10.49235 -0.887,1.0341 -2.149,1.33931 -4.0039,0.96832 -2.0153,-0.40307 -3.1595,-0.0428 -4.4703,1.40749 -1.9903,2.20204 -2.8942,3.12173 -5.3711,5.46492 -0.9539,0.90238 -3.4219,3.59899 -5.4844,5.99246 -3.3626,3.90221 -4.1616,4.35254 -7.7344,4.3593 -2.1914,0.004 -3.9844,0.42174 -3.9844,0.92799 0,0.50624 -3.342,4.30311 -7.4266,8.4375 -6.0872,6.16128 -7.9472,7.51705 -10.3125,7.51705 -2.1076,0 -3.8781,0.99223 -6.5649,3.67904 -2.0235,2.02346 -4.1477,4.55471 -4.7205,5.625 -0.8135,1.52001 -1.9504,1.94596 -5.1942,1.94596 -3.1799,0 -4.3856,0.43505 -5.1467,1.85706 -0.5466,1.02138 -9.8427,10.75311 -20.6579,21.62607 -10.8153,10.87295 -19.6642,20.16228 -19.6642,20.64293 0,0.48067 -1.6708,0.87394 -3.713,0.87394 -2.1663,0 -4.2166,0.59342 -4.9219,1.42454 -1.0837,1.2771 -34.2294,35.39539 -36.2766,37.34108 -0.4612,0.43829 -1.6822,1.64063 -2.7135,2.67188 -1.0312,1.03125 -2.2968,2.29687 -2.8125,2.8125 -1.7178,1.71787 -3.909,3.94897 -15.2135,15.49114 -9.4102,9.60795 -11.224,11.9246 -11.224,14.33555 0,2.35353 -1.5263,4.44319 -8.4061,11.50887 -8.5827,8.81454 -10.8417,11.11685 -12.2881,12.52381 -0.4505,0.43829 -2.9197,2.90625 -5.4871,5.48438 -2.5674,2.57812 -5.332,5.24211 -6.1436,5.91996 -0.8825,0.73708 -1.3943,2.44058 -1.2732,4.23815 0.1778,2.64092 -0.8393,4.05634 -8.381,11.66295 -5.6318,5.68034 -8.3981,9.1399 -8.0447,10.06082 0.9246,2.40949 -0.4574,5.72042 -2.8411,6.8065 -1.2567,0.57259 -2.5406,1.84651 -2.853,2.83095 -0.3125,0.98444 -1.5781,2.25006 -2.8125,2.8125 -1.2344,0.56244 -2.5135,1.87051 -2.8425,2.90682 -0.3289,1.0363 -1.3986,2.13828 -2.3771,2.44885 -0.9785,0.31057 -2.0415,1.39146 -2.3622,2.40199 -0.3207,1.01053 -1.8189,2.47635 -3.3292,3.25737 -2.3651,1.22304 -2.7461,1.95812 -2.7461,5.2988 0,3.52466 -0.5135,4.36435 -5.625,9.19809 -4.6813,4.42695 -5.625,5.84245 -5.625,8.4375 0,2.59505 -0.9436,4.01055 -5.625,8.4375 -5.1313,4.85252 -5.625,5.66362 -5.625,9.24227 0,3.22641 -0.3977,4.10417 -2.2403,4.94371 -1.2322,0.56143 -2.6998,2.02894 -3.2612,3.26115 -0.5614,1.2322 -1.4216,2.24037 -1.9114,2.24037 -1.9216,0 -3.8371,3.10693 -3.8371,6.22374 0,2.79377 -0.8483,4.08455 -5.7494,8.74833 -4.9249,4.68639 -5.6633,5.81455 -5.1483,7.86646 0.4829,1.92389 -0.05,3.04702 -2.7086,5.70526 -2.6864,2.68645 -3.1942,3.77036 -2.696,5.75522 0.5309,2.11525 -0.1625,3.18409 -5.1357,7.91642 -4.7704,4.53933 -5.7519,6.00061 -5.7638,8.58094 -0.017,3.6522 -0.6451,4.7796 -3.5013,6.2838 -1.7039,0.8973 -2.1094,1.9108 -2.1094,5.2725 0,3.6759 -0.3283,4.3314 -2.8125,5.6161 -2.4794,1.2821 -2.8125,1.9436 -2.8125,5.5852 0,3.5198 -0.416,4.4271 -2.8125,6.1335 -2.2941,1.6336 -2.8125,2.6703 -2.8125,5.625 0,2.9547 -0.5183,3.9914 -2.8125,5.625 -2.2941,1.6336 -2.8125,2.6703 -2.8125,5.625 0,2.9547 -0.5183,3.9914 -2.8125,5.625 -2.2941,1.6336 -2.8125,2.6703 -2.8125,5.625 0,2.9547 -0.5183,3.9914 -2.8125,5.62504 -2.3964,1.7065 -2.8125,2.6138 -2.8125,6.1335 0,3.6416 -0.333,4.3031 -2.8125,5.5853 -2.7426,1.4182 -2.8125,1.6277 -2.8125,8.42864 0,6.2782 -0.2104,7.0849 -2.1093,8.0848 -2.8886,1.5212 -3.4846,2.6299 -3.5013,6.5132 -0.011,2.6143 -0.6251,3.7909 -2.8269,5.4188 -2.2892,1.6925 -2.8125,2.76 -2.8125,5.7374 0,3.027 -0.5054,4.018 -2.9293,5.7441 -2.8451,2.0258 -2.9148,2.2467 -2.4227,7.674 0.4906,5.4108 0.4034,5.6913 -2.7511,8.8458 -2.6778,2.6778 -3.1546,3.7273 -2.6785,5.8952 0.4038,1.8385 0.1163,3.0191 -0.9492,3.8977 -5.2459,4.3252 -5.2586,4.3531 -4.6084,10.0996 0.5335,4.7158 0.3607,5.733 -1.2473,7.341 -1.0266,1.0265 -2.4467,2.0601 -3.1557,2.2968 -0.9638,0.3217 -1.2221,2.0657 -1.0238,6.9131 0.257,6.2848 0.174,6.5571 -2.7181,8.9176 -2.845,2.322 -2.9754,2.72 -2.814,8.5881 0.1614,5.8642 0.036,6.2485 -2.6725,8.1769 -2.8271,2.013 -2.8419,2.0708 -2.8562,11.1004 -0.015,9.7173 -0.2501,10.5385 -3.5013,12.2507 -1.8989,0.9999 -2.1094,1.8066 -2.1094,8.085 0,6.8009 -0.07,7.0103 -2.8125,8.4286 l -2.8125,1.4544 0,9.7558 0,9.7558 -2.8125,2.0027 c -2.7995,1.9935 -2.8125,2.0452 -2.8125,11.25 0,9.2047 -0.013,9.2565 -2.8125,11.25 l -2.8125,2.0027 0,12.5683 0,12.5683 -2.8125,1.4544 -2.8125,1.4545 0,15.4116 c 0,15.0284 -0.053,15.4394 -2.1093,16.5225 -1.1602,0.611 -2.4194,1.575 -2.7982,2.1424 -0.3788,0.5674 -0.6952,10.1786 -0.7031,21.3583 l -0.014,20.3268 -2.8125,2.0027 -2.8125,2.0027 0,102.9973 0,102.9973 2.8125,2.0027 2.8125,2.0027 0,20.5331 0,20.533 2.8125,2.0794 2.8125,2.0794 0,15.2684 0,15.2683 2.8125,1.4545 2.8125,1.4544 0,12.5683 0,12.5683 2.8125,2.0027 c 2.7995,1.9935 2.8125,2.0452 2.8125,11.25 0,9.2048 0.013,9.2565 2.8125,11.25 l 2.8125,2.0027 0,9.7558 0,9.7558 2.8125,1.4544 2.8125,1.4545 0,9.7866 c 0,9.195 0.1275,9.8539 2.1094,10.8975 3.1383,1.6528 3.4855,2.5889 3.5012,9.4382 0.014,5.8976 0.1808,6.3828 2.8562,8.2879 2.7083,1.9284 2.8339,2.3127 2.6726,8.1769 -0.1614,5.8681 -0.031,6.2661 2.814,8.5881 2.8921,2.3605 2.9751,2.6328 2.718,8.9176 -0.1983,4.8474 0.06,6.5914 1.0239,6.9131 0.709,0.2367 2.129,1.2703 3.1557,2.2968 1.6079,1.608 1.7807,2.6252 1.2472,7.341 -0.6501,5.7465 -0.6374,5.7744 4.6084,10.0996 1.0709,0.883 1.3534,2.0576 0.9436,3.9234 -0.5928,2.6993 1.3677,5.7385 4.342,6.7308 0.9664,0.3224 1.2234,2.0907 1.027,7.0649 -0.2545,6.4416 -0.1794,6.6937 2.5781,8.6572 2.3311,1.6599 2.8402,2.6781 2.8402,5.6805 0,2.9774 0.5233,4.0449 2.8125,5.7374 2.2018,1.6279 2.8156,2.8045 2.8268,5.4188 0.017,3.8833 0.6127,4.992 3.5013,6.5132 1.8989,0.9999 2.1094,1.8066 2.1094,8.085 0,6.772 0.08,7.0155 2.761,8.4019 2.3846,1.2331 2.8,2.0343 3.0469,5.8761 0.2438,3.7945 0.6647,4.6291 2.864,5.6787 2.2324,1.0655 2.5781,1.7806 2.5781,5.3342 0,3.4896 0.4208,4.4034 2.8125,6.1064 2.2942,1.6336 2.8125,2.6703 2.8125,5.625 0,2.9547 0.5183,3.9914 2.8125,5.625 2.2942,1.6336 2.8125,2.6703 2.8125,5.625 0,2.9547 0.5183,3.9914 2.8125,5.625 2.3916,1.703 2.8125,2.6167 2.8125,6.1064 0,3.5536 0.3457,4.2687 2.5781,5.3342 2.1982,1.0491 2.6202,1.8848 2.8637,5.6706 0.2216,3.4474 0.7456,4.6823 2.3437,5.5235 2.8032,1.4756 3.4333,2.6184 3.4501,6.2564 0.012,2.5804 0.9935,4.0417 5.7638,8.581 4.925,4.6863 5.6633,5.8145 5.1483,7.8664 -0.4829,1.9239 0.05,3.047 2.7086,5.7053 2.6864,2.6865 3.1942,3.7703 2.696,5.7552 -0.5309,2.1153 0.1625,3.1841 5.1357,7.9164 4.7704,4.5393 5.7519,6.0006 5.7638,8.581 0.017,3.6522 0.6451,4.7796 3.5013,6.2838 1.6467,0.8671 2.1094,1.9271 2.1094,4.8324 0,3.2389 0.6204,4.3292 4.7825,8.4045 2.6303,2.5756 5.1616,4.6829 5.625,4.6829 0.4633,0 0.8425,1.7357 0.8425,3.8571 0,3.6229 0.5122,4.3562 8.4375,12.0804 7.1477,6.9663 8.4375,8.6811 8.4375,11.2179 0,2.3794 1.1276,4.1627 5.489,8.6805 7.9111,8.1949 8.2878,8.5712 9.9125,9.9042 0.8137,0.6676 1.4735,2.6361 1.4735,4.3964 0,2.8191 1.2877,4.4793 11.1441,14.3681 9.8021,9.8343 11.0859,11.4849 10.661,13.7079 -0.489,2.5577 -0.6074,2.4103 12.4136,15.4429 0.5157,0.5161 1.7813,1.7756 2.8125,2.7991 10.5609,10.4803 12.6563,13.1185 12.6563,15.935 0,2.5341 2.2604,5.2238 16.8375,20.0344 18.5331,18.8301 19.5336,19.8424 20.7542,20.998 0.4629,0.4383 8.6511,8.8125 18.1958,18.6094 9.5447,9.7968 17.73,18.171 18.1895,18.6093 2.4968,2.3815 4.4374,4.3873 5.5131,5.6984 0.7286,0.8881 2.6839,1.4735 4.9219,1.4735 2.0421,0 3.713,0.4049 3.713,0.8999 0,0.4949 7.5812,8.5149 16.8472,17.8222 9.2659,9.3073 17.2964,17.7617 17.8455,18.7876 0.7659,1.4311 1.9649,1.8653 5.151,1.8653 3.1506,0 4.3877,0.4389 5.1263,1.8189 0.5354,1.0004 3.8991,4.7972 7.4749,8.4375 5.3905,5.4876 7.0181,6.6186 9.5248,6.6186 2.4793,0 3.9809,1.0124 8.3428,5.625 4.4245,4.6787 5.8433,5.625 8.4338,5.625 2.5146,0 3.8981,0.8537 7.184,4.4327 2.2383,2.438 4.0697,4.7674 4.0697,5.1763 0,0.409 1.0082,1.2031 2.2404,1.7645 1.2322,0.5614 2.6997,2.0289 3.2611,3.2612 0.8275,1.8161 1.7276,2.2403 4.7539,2.2403 2.2229,0 4.2222,0.5868 4.942,1.4503 0.6649,0.7977 3.2352,3.5423 5.7119,6.0991 3.7041,3.8239 4.9118,4.5461 6.8061,4.0707 2.2252,-0.5584 5.0259,1.795 12.4861,10.4923 0.887,1.0342 2.149,1.3394 4.0039,0.9684 2.6794,-0.5359 3.3868,-0.09 7.1597,4.5082 0.7309,0.8909 2.686,1.4735 4.9451,1.4735 3.0873,0 3.8856,0.3931 4.5968,2.2635 0.4733,1.245 1.623,2.5095 2.5549,2.8102 0.9319,0.3005 2.413,1.8132 3.2914,3.3614 1.3553,2.3889 2.1614,2.8149 5.3267,2.8149 3.0742,0 4.0818,0.4943 5.7325,2.8125 1.6012,2.2487 2.6946,2.8143 5.4544,2.8216 3.0204,0.01 4.0899,0.711 8.5567,5.625 4.5192,4.9717 5.5112,5.6159 8.6478,5.6159 2.9884,0 3.7706,0.4403 4.9973,2.8125 1.2854,2.4856 1.9392,2.8125 5.625,2.8125 3.6858,0 4.3397,0.3269 5.625,2.8125 1.2668,2.4497 1.9653,2.8133 5.4147,2.8184 3.415,0.01 4.1803,0.3924 5.5574,2.8125 1.3538,2.3792 2.165,2.8066 5.3267,2.8066 3.0742,0 4.0818,0.4943 5.7325,2.8125 1.6336,2.2942 2.6702,2.8125 5.625,2.8125 2.9394,0 3.9928,0.5203 5.5875,2.7599 1.5556,2.1847 2.7887,2.8197 5.9163,3.0469 3.2473,0.2359 4.17,0.746 5.181,2.8651 1.0678,2.2381 1.7765,2.5781 5.3735,2.5781 3.6557,0 4.3148,0.3311 5.5979,2.8125 1.2182,2.3557 2.0216,2.8148 4.946,2.8268 4.0369,0.017 5.1338,0.5928 6.6654,3.5013 0.9881,1.8762 1.8255,2.1094 7.5765,2.1094 6.114,0 6.5746,0.153 8.4684,2.8125 1.6506,2.3182 2.6583,2.8125 5.7324,2.8125 3.1618,0 3.973,0.4274 5.3268,2.8066 0.8783,1.5436 2.2298,2.8522 3.0033,2.908 0.7734,0.055 3.9283,0.1639 7.0108,0.2403 5.1259,0.127 5.7108,0.3591 6.8481,2.717 0.6839,1.4179 1.7478,2.6105 2.3642,2.6503 0.6164,0.039 2.5623,0.1461 4.3245,0.2364 1.7621,0.09 3.3968,0.7435 3.6328,1.4514 0.2359,0.7078 1.2233,2.0812 2.1941,3.052 1.4838,1.4838 2.6018,1.6669 7.0127,1.1484 5.171,-0.6077 5.2942,-0.5656 8.4632,2.8934 3.1884,3.4804 3.2615,3.5048 8.6409,2.8805 l 5.4252,-0.6297 2.649,3.4731 c 2.6452,3.4679 2.6571,3.4721 8.1485,2.8981 5.7653,-0.6026 5.7511,-0.609 10.074,4.6065 1.0676,1.2881 2.32,1.4869 6.569,1.0428 5.8232,-0.6087 6.4166,-0.3784 8.843,3.4317 1.6844,2.6447 1.7073,2.6498 10.5981,2.3505 l 8.91,-0.2999 2.5152,3.0817 2.5151,3.0817 8.8219,-0.1608 c 7.6814,-0.14 8.9788,0.066 10.0363,1.599 2.7492,3.9835 3.1089,4.1034 12.331,4.1094 l 9.1037,0.01 1.597,2.8066 1.597,2.8066 9.3548,0 c 9.3241,0 9.3613,0.01 11.3574,2.8125 l 2.0027,2.8125 12.0996,0 12.0995,0 1.4545,2.8125 1.4544,2.8125 14.912,0 14.9121,0 2.0027,2.8125 2.0027,2.8125 20.537,0 20.5371,0 1.4564,2.8162 1.4563,2.8164 112.6958,-0.2383 112.6957,-0.2381 1.2357,-2.5781 z m -160.1167,-361.8078 c -0.7734,-0.8654 -1.9761,-2.2642 -2.6726,-3.1084 -1.1001,-1.3334 -3.4876,-1.5071 -18.182,-1.3223 l -16.9156,0.2128 -2.4603,-3.0144 -2.4602,-3.0144 -14.4339,0.1774 c -13.1987,0.1624 -14.5383,0.026 -15.6539,-1.5899 -2.756,-3.9924 -3.1115,-4.111 -12.3366,-4.117 l -9.1036,-0.01 -1.5971,-2.8066 -1.597,-2.8066 -9.3548,0 c -9.3241,0 -9.3613,-0.01 -11.3574,-2.8125 -1.9944,-2.8009 -2.0408,-2.8125 -11.2898,-2.8125 l -9.287,0 -1.4545,-2.8125 c -1.2853,-2.4856 -1.9392,-2.8125 -5.625,-2.8125 -3.6857,0 -4.3396,-0.3269 -5.625,-2.8125 -1.4029,-2.7131 -1.6831,-2.8125 -7.9289,-2.8125 -6.124,0 -6.5831,-0.1523 -8.4773,-2.8125 -1.8922,-2.6573 -2.3577,-2.8125 -8.4375,-2.8125 -6.0798,0 -6.5453,-0.1551 -8.4375,-2.8125 -1.6401,-2.3032 -2.6658,-2.8125 -5.6648,-2.8125 -3.1208,0 -3.877,-0.4157 -5.1165,-2.8125 -1.2853,-2.4856 -1.9392,-2.8125 -5.625,-2.8125 -3.6857,0 -4.3396,-0.3269 -5.625,-2.8125 -1.2853,-2.4856 -1.9392,-2.8125 -5.625,-2.8125 -3.6857,0 -4.3396,-0.3269 -5.625,-2.8125 -1.2394,-2.3968 -1.9956,-2.8125 -5.1164,-2.8125 -2.999,0 -4.0247,-0.5092 -5.6648,-2.8125 -1.6336,-2.2941 -2.6703,-2.8125 -5.625,-2.8125 -2.9547,0 -3.9914,-0.5183 -5.625,-2.8125 -1.6507,-2.3181 -2.6583,-2.8125 -5.7324,-2.8125 -3.1619,0 -3.973,-0.4274 -5.3268,-2.8066 -1.3771,-2.42 -2.1424,-2.8073 -5.5573,-2.8125 -3.4281,-0.01 -4.1512,-0.375 -5.3804,-2.7519 -0.781,-1.5104 -2.2044,-2.995 -3.1631,-3.2993 -0.9586,-0.3043 -2.2198,-1.5998 -2.8026,-2.8789 -0.8699,-1.9092 -1.7283,-2.3258 -4.7928,-2.3258 -2.2563,0 -4.2114,-0.5829 -4.942,-1.4734 -3.7394,-4.5579 -4.5659,-5.1058 -6.8404,-4.5349 -1.9931,0.5002 -3.3516,-0.4902 -9.5951,-6.9959 -4.0004,-4.1682 -7.8562,-8.2626 -8.5686,-9.0985 -0.89,-1.0442 -2.1428,-1.3503 -4.0039,-0.9781 -1.9616,0.3924 -3.2204,0.03 -4.5641,-1.3137 -1.0206,-1.0205 -1.8555,-2.2097 -1.8555,-2.6425 0,-0.4328 -1.0181,-1.2509 -2.2625,-1.8178 -1.2443,-0.567 -2.5315,-1.8788 -2.8604,-2.9151 -0.3289,-1.0363 -1.3147,-2.1156 -2.1907,-2.3985 -0.8759,-0.2828 -2.3113,-1.7809 -3.1897,-3.3291 -1.4077,-2.4813 -2.1021,-2.815 -5.8594,-2.815 -2.3443,0 -4.2623,-0.4342 -4.2623,-0.965 0,-0.5308 -5.0166,-5.9571 -11.1479,-12.0583 -6.1314,-6.1014 -11.6305,-11.9953 -12.2205,-13.0975 -0.8508,-1.59 -1.9416,-2.0042 -5.2784,-2.0042 -3.525,0 -4.3712,-0.3628 -5.2268,-2.2407 -0.5616,-1.2324 -2.0291,-2.7803 -3.2612,-3.4397 -1.2321,-0.6594 -2.2402,-1.5361 -2.2402,-1.9481 0,-0.4121 -7.5937,-8.3467 -16.875,-17.6326 -16.3103,-16.3178 -16.875,-17.0096 -16.875,-20.6744 0,-3.0879 -0.4157,-3.981 -2.2403,-4.8123 -1.2323,-0.5615 -2.683,-1.9924 -3.2242,-3.1798 -0.541,-1.1876 -1.8531,-2.4351 -2.9158,-2.7724 -1.0627,-0.3372 -1.9322,-0.9982 -1.9322,-1.4687 0,-0.4704 -4.0579,-4.8544 -9.0175,-9.742 -7.9577,-7.8421 -8.9458,-9.1724 -8.4074,-11.3175 0.5362,-2.1365 -0.4157,-3.4499 -7.8575,-10.8423 -7.3907,-7.3382 -8.4676,-8.8176 -8.4676,-11.6297 0,-1.7913 -0.6542,-3.7584 -1.4734,-4.4306 -1.7174,-1.409 -2.7607,-2.445 -10.0109,-9.9414 -4.5047,-4.6575 -5.3907,-6.1209 -5.3907,-8.9035 0,-2.63 -0.5912,-3.751 -2.8125,-5.3327 -2.232,-1.5893 -2.8125,-2.6982 -2.8125,-5.3729 0,-2.9032 -0.7796,-4.1075 -5.625,-8.6896 -5.1115,-4.8338 -5.625,-5.6735 -5.625,-9.1981 0,-3.3615 -0.375,-4.0727 -2.8125,-5.3332 -2.4842,-1.2846 -2.8125,-1.9401 -2.8125,-5.616 0,-3.3617 -0.4055,-4.3753 -2.1093,-5.2725 -2.9074,-1.5311 -3.4847,-2.6287 -3.5013,-6.6566 -0.011,-2.6489 -0.5193,-3.7486 -2.1237,-4.5934 -2.8886,-1.5212 -3.4846,-2.6299 -3.5013,-6.5132 -0.011,-2.6212 -0.6249,-3.7907 -2.853,-5.4381 -2.3471,-1.7353 -2.7999,-2.6755 -2.6144,-5.4294 0.1872,-2.7805 -0.2958,-3.7552 -2.9245,-5.9006 -2.6234,-2.1411 -3.0442,-2.9872 -2.5214,-5.0702 0.5143,-2.0488 0.036,-3.0916 -2.6495,-5.7772 -2.6803,-2.6802 -3.1794,-3.7656 -2.7406,-5.9596 0.3724,-1.8621 0.057,-3.0788 -1.0294,-3.9779 -5.0347,-4.1644 -5.0401,-4.1763 -4.5119,-10.0006 0.4309,-4.7526 0.2262,-5.8675 -1.3706,-7.4644 -1.0325,-1.0323 -2.4132,-2.0558 -3.0683,-2.2742 -0.8364,-0.2788 -1.1411,-2.3822 -1.023,-7.062 0.1624,-6.433 0.069,-6.7354 -2.676,-8.6902 -2.6944,-1.9185 -2.8443,-2.3644 -2.8443,-8.4601 0,-6.0798 -0.1551,-6.5453 -2.8125,-8.4375 -2.6599,-1.894 -2.8125,-2.3538 -2.8125,-8.4733 0,-6.1025 -0.16,-6.5889 -2.8125,-8.5499 -2.8079,-2.076 -2.8125,-2.095 -2.8125,-11.7228 l 0,-9.6433 -2.8125,-1.4544 -2.8125,-1.4545 0,-9.7558 0,-9.7558 -2.8125,-2.0027 -2.8125,-2.0027 0,-14.8723 0,-14.8723 -2.8125,-2.0027 -2.8125,-2.0027 0,-20.9969 c 0,-20.8205 -0.018,-21.0063 -2.1093,-22.1077 -1.1602,-0.611 -2.4194,-1.575 -2.7982,-2.1424 -0.3788,-0.5674 -0.6952,-22.8349 -0.7031,-49.4833 l -0.014,-48.4518 2.8125,-2.0027 2.8125,-2.0027 0,-21.0058 0,-21.0058 2.8125,-1.4544 2.8125,-1.4545 0,-15.3808 0,-15.3808 2.8125,-2.0027 c 2.7995,-1.9935 2.8125,-2.0452 2.8125,-11.25 0,-9.2047 0.013,-9.2565 2.8125,-11.25 2.8089,-2.0002 2.8125,-2.0149 2.8184,-11.5482 l 0.01,-9.5455 2.8066,-1.5971 c 2.7262,-1.5513 2.8065,-1.7985 2.8065,-8.6389 0,-6.3485 0.2077,-7.1512 2.1094,-8.1526 3.14,-1.6536 3.4856,-2.5883 3.5013,-9.4691 0.013,-5.5665 0.2585,-6.4237 2.1237,-7.4059 3.1651,-1.6668 3.5285,-2.6441 3.3785,-9.0847 -0.1307,-5.614 0.018,-6.0407 2.9614,-8.498 3.0122,-2.5147 3.0833,-2.7388 2.5396,-8.0071 -0.5422,-5.2534 -0.4588,-5.5205 2.7188,-8.6981 2.6972,-2.6971 3.1756,-3.7457 2.699,-5.9156 -0.4038,-1.8385 -0.1163,-3.0191 0.9492,-3.8977 4.6788,-3.8577 5.1007,-4.5243 4.5634,-7.2111 -0.542,-2.7096 -0.073,-3.4717 3.7743,-6.1289 1.1942,-0.8248 1.7578,-2.2706 1.6985,-4.3566 -0.1097,-3.8561 1.0877,-6.2211 3.5445,-7.0009 1.4988,-0.4757 1.8759,-1.418 1.8759,-4.6871 0,-3.4763 0.423,-4.3929 2.8125,-6.0944 2.2942,-1.6336 2.8125,-2.6703 2.8125,-5.625 0,-2.9547 0.5184,-3.9914 2.8125,-5.625 2.2942,-1.6336 2.8125,-2.6703 2.8125,-5.625 0,-2.9547 0.5184,-3.9914 2.8125,-5.625 2.2935,-1.6331 2.8125,-2.6706 2.8125,-5.6219 0,-3.4247 1.8356,-6.5656 3.8371,-6.5656 0.4899,0 1.35,-1.0082 1.9114,-2.2403 0.5615,-1.2323 2.029,-2.6998 3.2612,-3.2612 1.8775,-0.8555 2.2403,-1.702 2.2403,-5.2267 0,-3.4074 0.4005,-4.4166 2.1094,-5.3166 2.8514,-1.5016 3.4844,-2.6318 3.5013,-6.2516 0.012,-2.6258 1.2527,-4.2994 8.4518,-11.4033 7.1748,-7.0797 8.4375,-8.7802 8.4375,-11.3623 0,-2.4412 1.057,-4.1029 5.3907,-8.4749 7.3399,-7.4048 7.2815,-7.3473 9.5767,-9.4304 1.5428,-1.4003 1.8893,-2.4819 1.4443,-4.5082 -0.5417,-2.4664 0.6809,-3.9328 16.3451,-19.6049 16.3663,-16.3743 16.9307,-17.0654 16.9307,-20.7307 0,-3.0881 0.4157,-3.981 2.2408,-4.8126 1.2324,-0.5615 2.7766,-2.0221 3.4313,-3.2455 0.6549,-1.2235 1.9669,-2.471 2.9155,-2.7721 0.9488,-0.3011 1.7249,-0.8962 1.7249,-1.3223 0,-0.4262 4.6713,-5.49844 10.3807,-11.27144 8.8045,-8.90284 10.717,-10.41214 12.5965,-9.94034 1.8523,0.4649 3.4391,-0.693 9.6677,-7.0547 4.0985,-4.186 7.88,-8.0263 8.4034,-8.5342 2.5014,-2.4265 4.5217,-4.4626 5.5475,-5.5904 0.6199,-0.6814 1.6746,-1.7069 2.3438,-2.2786 0.6691,-0.5717 3.1152,-3.204 5.4355,-5.8495 3.5001,-3.9907 4.756,-4.8117 7.3727,-4.8199 2.7323,-0.01 4.2533,-1.1378 11.3773,-8.4473 6.8792,-7.0584 8.7006,-8.4375 11.1429,-8.4375 2.1468,0 3.8934,-0.9738 6.5986,-3.6791 2.0235,-2.0234 4.1477,-4.55467 4.7205,-5.62496 0.8138,-1.52001 1.9508,-1.94596 5.1946,-1.94596 3.2437,0 4.3807,-0.42595 5.1942,-1.94596 0.5728,-1.07029 2.697,-3.60154 4.7205,-5.625 2.7295,-2.72953 4.4443,-3.67904 6.6443,-3.67904 2.4083,0 3.9647,-1.05673 8.2847,-5.625 4.6414,-4.90811 5.7625,-5.625 8.797,-5.625 2.8687,0 3.7561,-0.48518 5.0677,-2.77042 1.3376,-2.3306 2.2596,-2.81431 5.8084,-3.04687 3.5465,-0.23243 4.4143,-0.68705 5.4488,-2.85459 1.0119,-2.12023 1.8458,-2.58067 4.6949,-2.59247 4.0095,-0.0166 5.1085,-0.59626 6.6384,-3.50128 0.8639,-1.64059 1.9286,-2.10937 4.7909,-2.10937 2.2079,0 4.1635,-0.5894 4.8888,-1.47345 3.7744,-4.60059 4.4796,-5.04427 7.1641,-4.50737 2.3172,0.46343 3.0935,0.0439 5.3198,-2.8749 2.2135,-2.90216 2.9998,-3.33115 5.2141,-2.84482 2.5926,0.56944 3.3017,0.11036 7.3061,-4.73102 0.9036,-1.09243 2.1143,-1.40215 4.0039,-1.02423 2.6947,0.53894 3.3169,0.14303 7.2701,-4.62641 1.0676,-1.28817 2.32,-1.487 6.569,-1.0429 5.8354,0.60993 6.4129,0.38345 8.875,-3.48033 1.6589,-2.60346 1.922,-2.68085 7.4188,-2.18242 5.5701,0.50508 5.7659,0.44353 8.6673,-2.72404 2.8273,-3.08666 3.2473,-3.23243 8.8299,-3.06492 5.552,0.16659 5.9835,0.0199 8.1747,-2.77991 2.1968,-2.80709 2.6386,-2.95578 8.7837,-2.95578 6.2412,0 6.522,-0.0996 7.9249,-2.8125 l 1.4544,-2.8125 9.5853,-0.006 9.5853,-0.006 1.597,-2.80657 1.597,-2.80657 9.3548,0 c 9.3241,0 9.3613,-0.009 11.3574,-2.8125 l 2.0027,-2.8125 14.9121,0 14.912,0 1.4545,-2.8125 1.4544,-2.8125 20.5371,0 20.537,0 2.0027,-2.8125 2.0027,-2.8125 47.6848,0 47.6848,0 2.0027,2.8125 2.0027,2.8125 20.5371,0 20.537,0 1.4544,2.8125 1.4545,2.8125 14.912,0 14.9121,0 2.0027,2.8125 c 1.9961,2.80329 2.0333,2.8125 11.3574,2.8125 l 9.3548,0 1.597,2.80657 1.597,2.80657 9.5853,0.006 9.5853,0.006 1.4545,2.8125 c 1.4028,2.71285 1.6836,2.8125 7.9248,2.8125 6.1451,0 6.5869,0.14869 8.7837,2.95578 2.1912,2.79977 2.6227,2.9465 8.1747,2.77991 5.5826,-0.16751 6.0026,-0.0217 8.8299,3.06492 2.9014,3.16757 3.0972,3.22912 8.6673,2.72404 5.4968,-0.49843 5.7599,-0.42104 7.4188,2.18242 2.4621,3.86378 3.0396,4.09026 8.875,3.48033 4.249,-0.4441 5.5014,-0.24527 6.569,1.0429 3.9532,4.76944 4.5754,5.16535 7.2701,4.62641 1.8896,-0.37792 3.1003,-0.0683 4.0039,1.02423 4.0044,4.84138 4.7135,5.30046 7.3061,4.73102 2.2143,-0.48633 3.0006,-0.0574 5.2141,2.84482 2.2263,2.91879 3.0026,3.33833 5.3198,2.8749 2.6845,-0.53691 3.3897,-0.0932 7.1641,4.50737 0.7253,0.88405 2.6809,1.47345 4.8888,1.47345 2.8623,0 3.927,0.46878 4.7909,2.10937 1.5299,2.90502 2.6289,3.48466 6.6384,3.50128 2.8491,0.0118 3.683,0.47224 4.6949,2.59247 1.0345,2.16754 1.9023,2.62216 5.4488,2.85459 3.5488,0.23256 4.4708,0.71627 5.8084,3.04687 1.3116,2.28524 2.199,2.77042 5.0677,2.77042 3.0345,0 4.1556,0.71689 8.797,5.625 4.5996,4.86382 5.7796,5.625 8.7204,5.625 2.573,0 3.6717,0.51364 4.5119,2.10937 1.5346,2.91403 2.6282,3.4847 6.7096,3.50128 2.8108,0.0114 3.7452,0.47379 4.5566,2.25472 0.5614,1.2322 2.0289,2.69972 3.2612,3.26115 1.2321,0.56143 2.2403,1.41298 2.2403,1.89234 0,0.47936 1.8827,2.80876 4.1838,5.17636 3.2524,3.3464 4.8517,4.3048 7.184,4.3048 2.451,0 3.9742,1.0298 8.3197,5.625 4.4045,4.6575 5.8499,5.625 8.4041,5.625 3.0513,0 4.8475,1.5579 18.0331,15.6417 0.8765,0.9361 2.0788,2.1872 2.6719,2.7801 0.5931,0.593 1.9222,1.9219 2.9534,2.9532 1.0312,1.0312 2.3602,2.3501 2.9531,2.9308 0.593,0.5807 3.1046,3.1565 5.5812,5.7241 3.6569,3.7909 4.9248,4.5624 6.7472,4.105 1.9364,-0.486 4.0495,1.2804 15.4132,12.88534 7.2429,7.3967 13.6146,13.87044 14.1593,14.38604 0.5446,0.5156 1.7073,1.7219 2.5838,2.6805 0.8764,0.9587 4.0192,4.1585 6.9841,7.1107 4.3187,4.3003 5.3906,5.9635 5.3906,8.3644 0,2.6127 1.8086,4.8056 14.1178,17.1173 12.9919,12.9947 14.071,14.3333 13.5326,16.7847 -0.4445,2.0241 -0.098,3.1064 1.4448,4.5063 2.2951,2.0831 2.2367,2.0256 9.5767,9.4304 4.3337,4.372 5.3906,6.0337 5.3906,8.4749 0,2.5821 1.2627,4.2826 8.4375,11.3623 7.1992,7.1039 8.4396,8.7775 8.4518,11.4033 0.017,3.6198 0.6499,4.75 3.5013,6.2516 1.709,0.9 2.1094,1.9092 2.1094,5.3166 0,3.5247 0.3628,4.3712 2.2403,5.2267 1.2323,0.5614 2.6998,2.0289 3.2612,3.2612 0.5614,1.2321 1.4216,2.2403 1.9114,2.2403 2.0015,0 3.8371,3.1409 3.8371,6.5656 0,2.9513 0.519,3.9888 2.8125,5.6219 2.2942,1.6336 2.8125,2.6703 2.8125,5.625 0,2.9547 0.5183,3.9914 2.8125,5.625 2.2942,1.6336 2.8125,2.6703 2.8125,5.625 0,2.9547 0.5183,3.9914 2.8125,5.625 2.3895,1.7015 2.8125,2.6181 2.8125,6.0944 0,3.2691 0.3772,4.2114 1.876,4.6871 2.4567,0.7798 3.6541,3.1448 3.5444,7.0009 -0.059,2.086 0.5044,3.5318 1.6986,4.3566 3.8469,2.6572 4.3162,3.4193 3.7743,6.1289 -0.5374,2.6868 -0.1154,3.3534 4.5634,7.2111 1.0654,0.8786 1.353,2.0592 0.9492,3.8977 -0.4767,2.1699 0,3.2185 2.6989,5.9156 3.1776,3.1776 3.261,3.4447 2.7189,8.6981 -0.5438,5.2683 -0.4727,5.4924 2.5396,8.0071 2.9434,2.4573 3.092,2.884 2.9614,8.498 -0.15,6.4406 0.2133,7.4179 3.3784,9.0847 1.6045,0.8448 2.1129,1.9445 2.1237,4.5934 0.017,4.0279 0.5939,5.1255 3.5013,6.6566 1.9833,1.0443 2.1094,1.6999 2.1094,10.9651 l 0,9.8544 2.8066,1.597 2.8066,1.5971 0.01,9.5455 c 0.01,9.5333 0.01,9.548 2.8184,11.5482 2.7995,1.9935 2.8125,2.0453 2.8125,11.25 0,9.2048 0.013,9.2565 2.8125,11.25 l 2.8125,2.0027 0,15.3808 0,15.3808 2.8125,1.4545 2.8125,1.4544 0,18.1933 0,18.1933 2.8125,2.0027 2.8125,2.0027 0,54.7558 0,54.7558 -2.8125,1.4544 -2.8125,1.4545 0,21.0058 0,21.0058 -2.8125,2.0027 -2.8125,2.0027 0,12.0598 0,12.0598 -2.8125,2.0027 -2.8125,2.0027 0,9.7558 0,9.7558 -2.8125,1.4544 -2.8125,1.4545 0,9.6433 c 0,9.6277 0,9.6468 -2.8125,11.7228 -2.7957,2.0669 -2.8125,2.1349 -2.8125,11.3624 0,9.2446 -0.011,9.2915 -2.8125,11.2858 -2.2942,1.6336 -2.8125,2.6703 -2.8125,5.625 0,2.9637 -0.5172,3.9906 -2.8443,5.6476 -2.7453,1.9548 -2.8384,2.2572 -2.676,8.6902 0.1181,4.6798 -0.1866,6.7832 -1.0229,7.062 -0.6552,0.2184 -2.036,1.2419 -3.0684,2.2742 -1.5968,1.5969 -1.8016,2.7118 -1.3706,7.4644 0.5282,5.8243 0.5228,5.8362 -4.5119,10.0006 -1.0869,0.8991 -1.4018,2.1158 -1.0295,3.9779 0.4389,2.194 -0.06,3.2794 -2.7405,5.9596 -2.6854,2.6856 -3.1637,3.7284 -2.6495,5.7772 0.5227,2.083 0.102,2.9291 -2.5213,5.0702 -2.6288,2.1454 -3.1119,3.1201 -2.9246,5.9006 0.1855,2.7539 -0.2673,3.6941 -2.6144,5.4294 -2.2281,1.6474 -2.8417,2.8169 -2.853,5.4381 -0.017,3.8833 -0.6127,4.992 -3.5013,6.5132 -1.9006,1.0009 -2.1093,1.8049 -2.1093,8.1291 0,6.562 -0.1513,7.0873 -2.3258,8.0781 -1.2791,0.5828 -2.5746,1.844 -2.8789,2.8026 -0.3043,0.9587 -1.7889,2.3821 -3.2993,3.1631 -2.3651,1.223 -2.746,1.9581 -2.746,5.2988 0,3.5246 -0.5135,4.3643 -5.625,9.1981 -4.8454,4.5821 -5.625,5.7864 -5.625,8.6896 0,2.6747 -0.5805,3.7836 -2.8125,5.3729 -2.2438,1.5977 -2.8125,2.6932 -2.8125,5.4175 0,2.9596 -0.7501,4.122 -5.625,8.7178 -5.1214,4.8282 -5.625,5.6517 -5.625,9.1977 0,3.2446 -0.3913,4.0729 -2.3438,4.9626 -1.289,0.5873 -2.3437,1.4234 -2.3437,1.858 0,0.4345 -2.7948,3.5036 -6.2107,6.82 -5.3373,5.1821 -6.126,6.3669 -5.6091,8.4262 0.5314,2.1176 -0.7636,3.7702 -11.1331,14.2078 -6.4541,6.4963 -11.7346,12.1276 -11.7346,12.5139 0,0.3864 -1.0547,1.1831 -2.3438,1.7704 -1.931,0.8798 -2.3437,1.7279 -2.3437,4.8151 0,3.6252 -0.6413,4.3907 -19.6875,23.5026 -10.8282,10.8655 -19.6875,20.0857 -19.6875,20.4895 0,0.4037 -1.0081,1.2736 -2.2402,1.933 -1.2321,0.6593 -2.683,2.1707 -3.2241,3.3583 -0.5412,1.1877 -1.7894,2.4151 -2.7738,2.7276 -0.9844,0.3124 -2.2667,1.6146 -2.8496,2.8937 -0.8414,1.8467 -1.7521,2.3258 -4.4221,2.3258 -3.0796,0 -4.461,1.1089 -16.4263,13.1867 -7.1852,7.2526 -13.0639,13.5807 -13.0639,14.0625 0,0.4817 -1.5043,0.8758 -3.3429,0.8758 -4.0019,0 -6.9696,1.4197 -6.9696,3.3343 0,0.7664 -1.0547,1.874 -2.3438,2.4613 -1.289,0.5873 -2.3437,1.402 -2.3437,1.8102 0,0.4083 -2.1319,2.8742 -4.7375,5.4799 -3.946,3.946 -5.1336,4.638 -7.1087,4.1423 -2.0379,-0.5114 -3.2098,0.2944 -8.3374,5.7339 -5.1362,5.4487 -6.2972,6.246 -8.3458,5.7318 -2.3414,-0.5876 -3.1333,-0.069 -6.8982,4.5203 -0.7306,0.8906 -2.6857,1.4735 -4.942,1.4735 -3.0645,0 -3.9229,0.4165 -4.7928,2.3257 -0.5829,1.2792 -1.8441,2.5747 -2.8027,2.8789 -0.9587,0.3043 -2.3821,1.789 -3.163,3.2994 -1.2292,2.3769 -1.9523,2.7467 -5.3804,2.7519 -3.4149,0.01 -4.1802,0.3924 -5.5573,2.8125 -1.3539,2.3792 -2.165,2.8066 -5.3268,2.8066 -3.0741,0 -4.0818,0.4943 -5.7324,2.8125 -1.6336,2.2942 -2.6703,2.8125 -5.625,2.8125 -2.9547,0 -3.9914,0.5183 -5.625,2.8125 -1.6401,2.3032 -2.6658,2.8125 -5.6648,2.8125 -3.1208,0 -3.877,0.4157 -5.1165,2.8125 -1.2853,2.4856 -1.9392,2.8125 -5.625,2.8125 -3.6858,0 -4.3397,0.3269 -5.625,2.8125 -1.2853,2.4856 -1.9392,2.8125 -5.625,2.8125 -3.6858,0 -4.3397,0.3269 -5.625,2.8125 -1.2395,2.3968 -1.9956,2.8125 -5.1165,2.8125 -2.999,0 -4.0247,0.5092 -5.6647,2.8125 -1.8922,2.6573 -2.3577,2.8125 -8.4375,2.8125 -6.0798,0 -6.5454,0.1552 -8.4375,2.8125 -1.8943,2.6602 -2.3533,2.8125 -8.4773,2.8125 -6.2458,0 -6.526,0.099 -7.929,2.8125 -1.2853,2.4856 -1.9392,2.8125 -5.625,2.8125 -3.6858,0 -4.3397,0.3269 -5.625,2.8125 l -1.4544,2.8125 -9.2871,0 c -9.2489,0 -9.2953,0.011 -11.2897,2.8125 -1.9962,2.8033 -2.0334,2.8125 -11.3575,2.8125 l -9.3547,0 -1.5971,2.8066 -1.597,2.8066 -9.1037,0.01 c -9.2328,0.01 -9.5773,0.1214 -12.3507,4.1363 -1.1151,1.6146 -2.3526,1.7675 -12.8387,1.5866 l -11.6045,-0.2 -2.4497,3.0015 -2.4497,3.0015 -19.7458,-0.1918 c -20.6093,-0.2003 -20.1091,-0.286 -23.0201,3.9443 -1.0846,1.5762 -4.4183,1.6907 -54.5774,1.875 -48.9766,0.1799 -53.5392,0.066 -54.8284,-1.3772 z"
     id="path4138"
     inkscape:connector-curvature="0" />
  <circle
     style="fill:#ffffff;fill-opacity:1;stroke:#000000;stroke-width:250;stroke-miterlimit:4;stroke-dasharray:none;stroke-opacity:1"
     id="path4140"
     cx="1425.4994"
     cy="1427.1276"
     r="720.47284" />
  <circle
     style="fill:#000000;fill-opacity:0;stroke:#000000;stroke-width:150;stroke-miterlimit:4;stroke-dasharray:none;stroke-opacity:1"
     id="path4140-4"
     cx="1424.8109"
     cy="1427.2928"
     r="916.56714" />
  <circle
     style="fill:#000000;fill-opacity:0;stroke:#ffffff;stroke-width:347.38500977;stroke-miterlimit:4;stroke-dasharray:none;stroke-opacity:1"
     id="path4140-0"
     cx="1425.1"
     cy="1425.1"
     r="1251.4075" />
  <circle
     style="fill:#000000;fill-opacity:0;stroke:#000000;stroke-width:161.19740295;stroke-miterlimit:4;stroke-dasharray:none;stroke-opacity:1"
     id="path4140-0-9"
     cx="1425.3881"
     cy="1424.7017"
     r="1344.8242" />
  <g
     inkscape:groupmode="layer"
     id="layer2"
     inkscape:label="Layer 1"
     style="display:inline" />
  <g
     inkscape:groupmode="layer"
     id="layer3"
     inkscape:label="Layer 2"
     style="display:inline" />
</svg>
