<?xml version="1.0" encoding="UTF-8" standalone="no"?>
<!-- Created with Inkscape (http://www.inkscape.org/) -->

<svg
   xmlns:dc="http://purl.org/dc/elements/1.1/"
   xmlns:cc="http://creativecommons.org/ns#"
   xmlns:rdf="http://www.w3.org/1999/02/22-rdf-syntax-ns#"
   xmlns:svg="http://www.w3.org/2000/svg"
   xmlns="http://www.w3.org/2000/svg"
   xmlns:sodipodi="http://sodipodi.sourceforge.net/DTD/sodipodi-0.dtd"
   xmlns:inkscape="http://www.inkscape.org/namespaces/inkscape"
   id="svg2"
   version="1.1"
   inkscape:version="0.91 r13725"
   width="2813.2844"
   height="2813.5913"
   viewBox="0 0 2813.2844 2813.5914"
   sodipodi:docname="CUSTOM CLOCK ICON.v1.svg">
  <metadata
     id="metadata8">
    <rdf:RDF>
      <cc:Work
         rdf:about="">
        <dc:format>image/svg+xml</dc:format>
        <dc:type
           rdf:resource="http://purl.org/dc/dcmitype/StillImage" />
        <dc:title></dc:title>
      </cc:Work>
    </rdf:RDF>
  </metadata>
  <defs
     id="defs6" />
  <sodipodi:namedview
     pagecolor="#ffffff"
     bordercolor="#666666"
     borderopacity="1"
     objecttolerance="10"
     gridtolerance="10"
     guidetolerance="10"
     inkscape:pageopacity="0"
     inkscape:pageshadow="2"
     inkscape:window-width="1920"
     inkscape:window-height="1017"
     id="namedview4"
     showgrid="false"
     fit-margin-top="0"
     fit-margin-left="0"
     fit-margin-right="0"
     fit-margin-bottom="0"
     inkscape:zoom="0.14833529"
     inkscape:cx="1630.5531"
     inkscape:cy="1333.5559"
     inkscape:window-x="-8"
     inkscape:window-y="-8"
     inkscape:window-maximized="1"
     inkscape:current-layer="svg2" />
  <g
     id="g4164"
     transform="matrix(10,0,0,10,0.70102043,0.08326977)">
    <path
       style="fill-opacity:1"
       d="M 117.5,279.4032 C 66.094095,270.68207 22.964304,233.5423 6.8241961,184.09844 -19.769946,102.6295 33.374851,15.580828 118.09669,1.8393426 212.5246,-13.476423 294.72642,68.725395 279.41066,163.15331 267.00898,239.61474 193.60874,292.31521 117.5,279.4032 Z m 45.14876,-11.23791 C 224.812,257.27855 270,203.59225 270,140.625 270,69.173249 212.07675,11.25 140.625,11.25 69.173249,11.25 11.25,69.173249 11.25,140.625 c 0,80.08074 72.698757,141.32311 151.39876,127.54029 z m -37.05531,-73.19822 -3.62427,-3.78292 20.26248,-20.29045 20.26249,-20.29044 -36.84669,-36.83081 -36.846691,-36.830813 3.999442,-4.126377 3.999443,-4.126377 40.350166,40.335847 c 22.1926,22.18472 40.35018,40.90714 40.35018,41.60539 0,1.2872 -45.72176,44.09777 -46.99479,44.09777 -0.38039,0 -2.91841,2.3198 -4.91176,0.23918 z"
       id="path4178"
       inkscape:connector-curvature="0"
       sodipodi:nodetypes="ssssssssssscccccccssss" />
    <path
       style="fill-opacity:1"
       d="M 120.625,279.86437 C 59.243026,271.01906 9.9346433,221.24654 1.3405199,159.45709 -9.2462116,83.341301 45.094966,12.008224 121.79292,1.3405199 197.9087,-9.2462116 269.24177,45.094966 279.90947,121.79292 290.4929,197.8849 236.13105,269.24511 159.45709,279.90947 148.37331,281.45109 131.5,281.43149 120.625,279.86437 Z M 172.3006,266.378 c 40.99516,-10.77011 73.88981,-39.86761 89.17135,-78.878 6.36721,-16.2541 7.90305,-25.36352 7.90305,-46.875 0,-15.46135 -0.53559,-22.12749 -2.36013,-29.375 C 260.65519,85.987715 250.26055,67.63208 231.93924,49.310766 213.61793,30.989451 195.26229,20.594818 170,14.235124 155.7295,10.642575 123.21453,10.940413 108.9494,14.79435 62.070086,27.459494 27.459494,62.070086 14.79435,108.9494 10.940413,123.21453 10.642575,155.7295 14.235124,170 c 6.359694,25.26229 16.754327,43.61793 35.075642,61.93924 20.881235,20.88124 42.054868,31.67273 73.189234,37.30213 1.71875,0.31077 11.28125,0.4099 21.25,0.22032 13.7908,-0.26229 20.61805,-0.99969 28.5506,-3.08369 z m -46.70715,-71.41093 -3.62427,-3.78292 20.26248,-20.29045 20.26249,-20.29044 -36.84669,-36.83081 -36.846691,-36.830813 3.999442,-4.126377 3.999443,-4.126377 40.350166,40.335847 c 22.1926,22.18472 40.35018,40.90714 40.35018,41.60539 0,1.2872 -45.0536,44.6438 -46.32663,44.6438 -0.38039,0 -3.46215,1.90362 -5.57992,-0.30685 z"
       id="path4176"
       inkscape:connector-curvature="0"
       sodipodi:nodetypes="sssssssssssssssssssscccccccssss" />
    <path
       style="fill-opacity:1"
       d="M 118.48178,279.31169 C 88.24958,274.60426 61.401134,260.34226 39.243615,237.22006 18.449824,215.52097 6.2737237,190.89935 1.8618427,161.62935 c -2.3346834,-15.48912 -2.3346834,-26.51957 0,-42.0087 C 6.2737237,90.350655 18.449824,65.729027 39.243615,44.029931 61.803944,20.48739 88.310647,6.5812151 119.62065,1.8618427 c 22.42077,-3.3794948 44.28279,-1.4881961 65.7587,5.6888317 34.20571,11.4311936 64.98731,38.2509056 81.37697,70.9029596 8.34424,16.62368 14.47894,42.965566 14.47894,62.171366 0,21.03624 -6.58065,47.33411 -16.42169,65.625 -13.43687,24.97426 -36.96967,47.93374 -62.01721,60.50632 -24.26355,12.17907 -56.19444,16.93393 -84.31458,12.55537 z m 48.55193,-11.69904 c 25.59533,-5.28234 45.82913,-16.5031 65.46629,-36.30471 25.52945,-25.74324 37.46716,-54.63646 37.46716,-90.68294 0,-36.16226 -12.2248,-65.523992 -38.02149,-91.320677 -25.79668,-25.796684 -55.15841,-38.02148 -91.32067,-38.02148 -36.04648,0 -64.9397,11.937713 -90.682936,37.467157 -26.411822,26.192476 -38.659221,55.29885 -38.659221,91.875 0,36.16226 12.224796,65.52399 38.021479,91.32067 18.948612,18.94862 39.639631,30.40328 64.326938,35.61174 14.80691,3.12393 38.4149,3.14834 53.40245,0.0553 z M 125.63,195.00521 l -3.66082,-3.82106 20.26256,-20.29051 20.26255,-20.29052 -36.24714,-36.23097 C 106.31122,94.445106 90,77.532455 90,76.788475 90,75.165272 95.297981,70 96.962889,70 c 0.647218,0 19.170931,18.000759 41.163801,40.00169 l 39.98704,40.00168 -24.41147,24.41145 -24.41145,24.41145 -3.66081,-3.82106 z"
       id="path4174"
       inkscape:connector-curvature="0" />
    <path
       style="fill-opacity:1"
       d="M 121.875,279.82231 C 102.86166,277.40719 80.469442,269.05576 63.75,258.14395 51.712581,250.28782 30.962178,229.53741 23.10605,217.5 5.7494665,190.90566 -2.3226811,157.65725 1.0430888,126.62472 4.7325723,92.60755 17.440579,66.158992 41.799785,41.799785 66.284894,17.314677 92.883556,4.5935134 127.06246,1.0217748 158.14736,-2.2266355 190.96264,5.786646 217.5,23.10605 c 12.03741,7.856128 32.78782,28.606531 40.64395,40.64395 12.20351,18.698622 19.65424,40.0588 22.08427,63.31246 3.24842,31.0849 -4.76487,63.90018 -22.08427,90.43754 -7.85612,12.03741 -28.60654,32.78782 -40.64395,40.64395 -27.90946,18.2149 -62.01755,25.94726 -95.625,21.67836 z m 53.4801,-14.14476 c 23.78999,-6.9144 41.99244,-18.00594 59.13475,-36.03335 23.90019,-25.13419 35.59944,-54.3891 35.59944,-89.0192 0,-24.69013 -5.83535,-46.053745 -18.34914,-67.177419 C 243.35827,59.298689 221.95131,37.891728 207.80242,29.509845 186.56755,16.930192 165.6703,11.25 140.625,11.25 115.5797,11.25 94.682447,16.930192 73.447581,29.509845 59.298689,37.891728 37.891728,59.298689 29.509845,73.447581 16.996064,94.571255 11.160714,115.93487 11.160714,140.625 c 0,34.6301 11.699251,63.88501 35.599432,89.0192 28.230074,29.68765 63.857474,43.19964 105.739854,40.10272 6.53125,-0.48293 16.81605,-2.31416 22.8551,-4.06937 z m -49.7251,-70.67234 -3.66082,-3.82106 20.33696,-20.36502 20.33696,-20.36502 -36.32155,-36.11542 C 106.3447,94.475205 90,77.596081 90,76.829524 90,75.41705 95.171439,70 96.519871,70 c 0.403559,0 18.838369,18.089652 40.966259,40.19923 l 40.23251,40.19922 -24.21392,24.21391 -24.21391,24.21391 -3.66081,-3.82106 z"
       id="path4172"
       inkscape:connector-curvature="0" />
    <path
       style="fill-opacity:1"
       d="M 123.75,279.97777 C 62.455806,271.46413 16.18647,228.59251 3.0324938,168.125 -1.469066,147.43177 0.47079678,117.34306 7.706672,95.625 20.997537,55.733242 55.733242,20.997537 95.625,7.706672 c 28.33479,-9.4403941 61.66521,-9.4403941 90,0 39.89176,13.290865 74.62746,48.02657 87.91833,87.918328 9.4404,28.33479 9.4404,61.66521 0,90 -13.29087,39.89176 -48.02657,74.62746 -87.91833,87.91832 -18.16672,6.05268 -44.73349,8.81538 -61.875,6.43445 z m 29.58203,-10.06401 c 30.75079,-3.42892 57.50179,-16.17862 78.95246,-37.62927 50.98091,-50.98093 50.98091,-132.338057 0,-183.318972 -50.98093,-50.9809165 -132.338058,-50.9809165 -183.318973,0 -50.9809155,50.980914 -50.9809155,132.338042 0,183.318972 23.56979,23.56979 54.081103,36.79503 89.521243,38.80334 1.57398,0.0892 8.25434,-0.43914 14.84527,-1.17407 z m -27.70457,-74.91118 -3.65571,-3.81574 19.59814,-19.65593 c 10.77896,-10.81075 20.01322,-20.09943 20.52057,-20.64153 0.50735,-0.54209 -15.49189,-17.41709 -35.55386,-37.5 C 106.21604,93.047602 90.462175,76.321361 90.96765,75.625 c 0.499043,-0.6875 2.055091,-2.214872 3.457886,-3.39416 2.490693,-2.093852 3.495257,-1.199106 42.814964,38.13456 l 40.26443,40.27872 -24.11088,24.0871 -21.89883,20.82168 -5.86776,-0.55033 z"
       id="path4170"
       inkscape:connector-curvature="0"
       sodipodi:nodetypes="ssssssssssssssssccssssssccccc" />
    <path
       style="fill-opacity:1"
       d="M 123.75,279.85302 C 103.88363,277.58004 78.549364,267.99777 61.128476,256.16747 50.997663,249.28777 36.395229,235.32149 28.634986,225.08955 20.478841,214.33562 9.5553336,192.15315 5.6946791,178.50445 -7.6456034,131.34212 5.1508026,79.917279 39.127339,44.148821 51.149724,31.492378 61.844914,23.659279 78.125,15.58715 c 40.91193,-20.2852977 84.08807,-20.2852977 125,0 16.28009,8.072129 26.97527,15.905228 38.99766,28.561671 33.97654,35.768458 46.77294,87.193299 33.43266,134.355629 -3.86066,13.6487 -14.78416,35.83117 -22.94031,46.5851 -7.76024,10.23194 -22.36267,24.19822 -32.49349,31.07792 -18.25168,12.39449 -42.3668,21.30177 -64.2895,23.74629 -13.43058,1.4976 -18.54656,1.48791 -32.08202,-0.0608 z m 30.625,-9.89936 c 15.62424,-1.7719 27.88304,-5.35637 42.5,-12.427 56.63363,-27.39527 85.71537,-90.9198 69.25499,-151.27666 -1.4062,-5.15625 -5.2777,-15 -8.60333,-21.875 C 230.13139,27.741371 166.60686,-1.3403811 106.25,15.120011 c -5.15625,1.406201 -15,5.2777 -21.875,8.603329 C 27.757265,51.110921 -1.3647486,114.71786 15.11399,175 c 5.411752,19.79715 18.693524,42.43846 33.695534,57.44047 20.132261,20.13227 48.89776,34.23213 76.328996,37.41386 13.13084,1.52303 16.5792,1.53476 29.23648,0.0994 z m -28.4571,-74.64794 -3.36527,-3.51258 19.97368,-19.94442 c 10.98553,-10.96943 19.97369,-20.51 19.97369,-21.20126 0,-0.69126 -16.32878,-17.59265 -36.28616,-37.55864 l -36.286163,-36.301802 3.510807,-3.363566 3.510805,-3.363566 40.277811,40.292124 40.27783,40.29211 -24.11088,24.08711 -21.37215,19.24164 z"
       id="path4168"
       inkscape:connector-curvature="0"
       sodipodi:nodetypes="cssssssssssscccssssssssccccssscccccccc" />
    <path
       style="fill-opacity:1"
       d="M 130.625,280.5145 C 105.53051,277.11156 93.88067,273.84387 77.5,265.61339 8.353814,230.87077 -19.115714,146.50862 15.999486,76.738061 50.374111,8.4389535 135.18005,-18.933422 204.375,15.937069 272.84765,50.443561 300.22405,135.09942 265.31294,204.375 c -18.98625,37.67517 -56.32572,65.82754 -97.67532,73.643 -10.22331,1.9323 -30.89241,3.32644 -37.01262,2.4965 z m 23.75,-10.55478 c 16.19515,-1.82791 28.1038,-5.37239 43.75,-13.02176 26.02715,-12.72456 46.0984,-32.79747 58.80813,-58.81296 11.48589,-23.51044 15.70428,-46.0397 13.1181,-70.06011 C 268.18333,110.71603 264.87414,99.37942 256.93313,83.125 244.22091,57.104393 224.14561,37.029092 198.125,24.316869 174.61456,12.830976 152.0853,8.6125871 128.06489,11.198781 110.71603,13.066671 99.37942,16.375862 83.125,24.316869 57.104393,37.029092 37.029092,57.104393 24.316869,83.125 12.830976,106.63544 8.6125871,129.1647 11.198781,153.18511 c 1.86789,17.34885 5.177081,28.68547 13.118088,44.93989 12.709725,26.01549 32.780984,46.0884 58.808131,58.81296 24.41897,11.93833 45.96334,15.87581 71.25,13.02176 z m -28.4571,-74.65399 -3.36527,-3.51259 19.97368,-19.94442 c 10.98553,-10.96943 19.97369,-20.51 19.97369,-21.20126 0,-0.69126 -16.32878,-17.59265 -36.28616,-37.55864 l -36.286163,-36.301802 3.510807,-3.363566 3.510805,-3.363566 40.277811,40.292124 40.27783,40.29211 -24.11088,24.08711 -21.68816,19.97899 z"
       id="path4166"
       inkscape:connector-curvature="0"
       sodipodi:nodetypes="ssssssssssssssssssssccssscccccccc" />
  </g>
</svg>
