<?xml version="1.0" encoding="UTF-8" standalone="no"?>
<!-- Created with Inkscape (http://www.inkscape.org/) -->

<svg
   xmlns:dc="http://purl.org/dc/elements/1.1/"
   xmlns:cc="http://creativecommons.org/ns#"
   xmlns:rdf="http://www.w3.org/1999/02/22-rdf-syntax-ns#"
   xmlns:svg="http://www.w3.org/2000/svg"
   xmlns="http://www.w3.org/2000/svg"
   xmlns:sodipodi="http://sodipodi.sourceforge.net/DTD/sodipodi-0.dtd"
   xmlns:inkscape="http://www.inkscape.org/namespaces/inkscape"
   id="svg2"
   version="1.1"
   inkscape:version="0.91 r13725"
   width="3124.5303"
   height="3749.2385"
   viewBox="0 0 3124.5303 3749.2385"
   sodipodi:docname="CUSTOM BUS ICON.v2.svg">
  <metadata
     id="metadata8">
    <rdf:RDF>
      <cc:Work
         rdf:about="">
        <dc:format>image/svg+xml</dc:format>
        <dc:type
           rdf:resource="http://purl.org/dc/dcmitype/StillImage" />
        <dc:title></dc:title>
      </cc:Work>
    </rdf:RDF>
  </metadata>
  <defs
     id="defs6" />
  <sodipodi:namedview
     pagecolor="#ffffff"
     bordercolor="#666666"
     borderopacity="1"
     objecttolerance="10"
     gridtolerance="10"
     guidetolerance="10"
     inkscape:pageopacity="0"
     inkscape:pageshadow="2"
     inkscape:window-width="1920"
     inkscape:window-height="1017"
     id="namedview4"
     showgrid="false"
     fit-margin-top="0"
     fit-margin-left="0"
     fit-margin-right="0"
     fit-margin-bottom="0"
     inkscape:zoom="0.11839928"
     inkscape:cx="1575.7433"
     inkscape:cy="1874.2372"
     inkscape:window-x="-8"
     inkscape:window-y="-8"
     inkscape:window-maximized="1"
     inkscape:current-layer="svg2" />
  <path
     style="fill:#000000"
     d="M 209.65536,3555.3968 C 143.20586,3447.975 60.775156,2719.262 26.476556,1936.0346 -32.633444,586.22978 -16.856044,498.65685 329.08941,256.34715 808.6033,-79.517552 2304.6363,-87.096652 2777.2637,243.94445 c 308.8861,216.3523 347.2665,379.28333 347.2665,1474.20305 0,677.0325 -68.5721,1411.3268 -152.3825,1631.765 -163.6805,430.5123 -628.8675,553.6181 -628.8675,166.4218 0,-177.0832 -190.9722,-234.375 -781.25,-234.375 -590.2779,0 -781.25005,57.2918 -781.25005,234.375 0,283.753 -402.72374,311.2977 -571.12479,39.0625 z m 649.24979,-898.4375 c 0,-114.5832 -87.8906,-237.63 -195.3125,-273.4374 -116.18585,-38.7286 -195.31249,72.0486 -195.31249,273.4374 0,201.3889 79.12664,312.1662 195.31249,273.4375 107.4219,-35.8073 195.3125,-158.8542 195.3125,-273.4375 z m 1796.87505,-13.0207 c 0,-380.7883 -365.1206,-326.9641 -441.1444,65.031 -29.902,154.1819 49.8064,260.4897 195.3125,260.4897 144.9431,0 245.8319,-133.5931 245.8319,-325.5207 z m 156.25,-1393.2292 0,-468.75002 -1250,0 -1250.00004,0 0,468.75002 0,468.75 1250.00004,0 1250,0 0,-468.75 z"
     id="path4138"
     inkscape:connector-curvature="0" />
</svg>
