<?xml version="1.0" encoding="UTF-8" standalone="no"?>
<!-- Created with Inkscape (http://www.inkscape.org/) -->

<svg
   xmlns:dc="http://purl.org/dc/elements/1.1/"
   xmlns:cc="http://creativecommons.org/ns#"
   xmlns:rdf="http://www.w3.org/1999/02/22-rdf-syntax-ns#"
   xmlns:svg="http://www.w3.org/2000/svg"
   xmlns="http://www.w3.org/2000/svg"
   xmlns:sodipodi="http://sodipodi.sourceforge.net/DTD/sodipodi-0.dtd"
   xmlns:inkscape="http://www.inkscape.org/namespaces/inkscape"
   id="svg2"
   version="1.1"
   inkscape:version="0.91 r13725"
   width="3983.6714"
   height="4478.8179"
   viewBox="0 0 3983.6714 4478.8178"
   sodipodi:docname="CUSTOM LIGHTRAIL ICON.v2.svg">
  <metadata
     id="metadata8">
    <rdf:RDF>
      <cc:Work
         rdf:about="">
        <dc:format>image/svg+xml</dc:format>
        <dc:type
           rdf:resource="http://purl.org/dc/dcmitype/StillImage" />
        <dc:title></dc:title>
      </cc:Work>
    </rdf:RDF>
  </metadata>
  <defs
     id="defs6" />
  <sodipodi:namedview
     pagecolor="#ffffff"
     bordercolor="#666666"
     borderopacity="1"
     objecttolerance="10"
     gridtolerance="10"
     guidetolerance="10"
     inkscape:pageopacity="0"
     inkscape:pageshadow="2"
     inkscape:window-width="1920"
     inkscape:window-height="1017"
     id="namedview4"
     showgrid="false"
     fit-margin-top="0"
     fit-margin-left="0"
     fit-margin-right="0"
     fit-margin-bottom="0"
     inkscape:zoom="0.08100835"
     inkscape:cx="1989.8804"
     inkscape:cy="2238.5927"
     inkscape:window-x="-8"
     inkscape:window-y="-8"
     inkscape:window-maximized="1"
     inkscape:current-layer="svg2" />
  <path
     style="fill:#000000"
     d="M 257.71725,4463.4771 C 154.92712,4453.9423 55.054541,4421.3451 35.779091,4391.0391 16.503341,4360.7335 0.40909084,3491.1328 0.01459084,2458.5937 -0.52165916,1060.1164 13.644791,566.90188 55.546541,524.99998 c 36.8058,-36.80557 231.250079,-56.25 562.499959,-56.25 l 506.25,0 0,-140.625 C 1124.2965,195.31245 1113.8801,187.5 936.79647,187.5 780.54672,187.5 749.29649,171.87495 749.29649,93.75 749.29649,2.35845 780.54672,0 1991.484,0 c 1210.9376,0 1242.1875,2.35845 1242.1875,93.75 0,76.22535 -31.2499,93.75 -167.1757,93.75 -154.7198,0 -166.071,9.6048 -152.3438,128.90623 l 14.832,128.90625 466.1246,13.52588 c 256.3684,7.43917 493.6729,36.38917 527.3437,64.33335 48.5202,40.26832 61.2192,442.2237 61.2192,1937.76579 0,1697.9548 -7.7632,1893.4018 -77.5072,1951.2918 -62.4282,51.8175 -406.685,64.7463 -1769.531,66.459 -930.6135,1.1662 -1776.12555,-5.6765 -1878.91605,-15.2112 z M 778.75309,3859.894 c 23.01488,-91.6977 8.5455,-141.0777 -54.94085,-187.5 -47.40111,-34.6605 -99.21449,-63.0192 -115.14074,-63.0192 -15.92587,0 -67.73925,28.3587 -115.14038,63.0192 -63.48637,46.4223 -77.95575,95.8023 -54.94087,187.5 25.01625,99.6738 58.91062,124.4808 170.08125,124.4808 111.171,0 145.06497,-24.807 170.08159,-124.4808 z m 2773.66841,68.2308 c 149.4063,-149.4063 -35.7622,-373.152 -225,-271.875 -104.0787,55.7015 -128.2002,259.5365 -35.1562,297.0807 103.9818,41.9576 202.5423,32.4083 260.1562,-25.2057 z m -1631.25,-1982.8123 0,-914.0625 -867.1875,0 -867.1875,0 0,914.0625 0,914.0625 867.1875,0 867.1875,0 0,-914.0625 z m 1875,0 0,-914.0625 -867.1875,0 -867.1875,0 0,914.0625 0,914.0625 867.1875,0 867.1875,0 0,-914.0625 z M 2756.3165,316.40623 2771.1488,187.5 l -729.6762,0 -729.6761,0 0,141.84583 0,141.84593 714.8438,-12.9396 714.8437,-12.93968 14.8325,-128.90625 z"
     id="path4138"
     inkscape:connector-curvature="0" />
</svg>
