<?xml version="1.0" encoding="UTF-8" standalone="no"?>
<!-- Created with Inkscape (http://www.inkscape.org/) -->

<svg
   xmlns:dc="http://purl.org/dc/elements/1.1/"
   xmlns:cc="http://creativecommons.org/ns#"
   xmlns:rdf="http://www.w3.org/1999/02/22-rdf-syntax-ns#"
   xmlns:svg="http://www.w3.org/2000/svg"
   xmlns="http://www.w3.org/2000/svg"
   xmlns:sodipodi="http://sodipodi.sourceforge.net/DTD/sodipodi-0.dtd"
   xmlns:inkscape="http://www.inkscape.org/namespaces/inkscape"
   width="950.02686mm"
   height="950.66254mm"
   viewBox="0 0 3366.2369 3368.4893"
   id="svg2"
   version="1.1"
   inkscape:version="0.91 r13725"
   sodipodi:docname="CUSTOM TOGGLE RIGHT ICON.svg"
   inkscape:export-filename="CUSTOM MAIN MENU ICON.v2.svg"
   inkscape:export-xdpi="499.96481"
   inkscape:export-ydpi="499.96481">
  <defs
     id="defs4">
    <inkscape:path-effect
       effect="powerstroke"
       id="path-effect5739"
       is_visible="true"
       offset_points="0,0.5"
       sort_points="true"
       interpolator_type="CubicBezierJohan"
       interpolator_beta="0.2"
       start_linecap_type="zerowidth"
       linejoin_type="round"
       miter_limit="4"
       end_linecap_type="zerowidth"
       cusp_linecap_type="round" />
  </defs>
  <sodipodi:namedview
     id="base"
     pagecolor="#ffffff"
     bordercolor="#666666"
     borderopacity="1.0"
     inkscape:pageopacity="0.0"
     inkscape:pageshadow="2"
     inkscape:zoom="0.1767767"
     inkscape:cx="1340.3787"
     inkscape:cy="1722.6794"
     inkscape:document-units="px"
     inkscape:current-layer="layer1"
     showgrid="false"
     inkscape:window-width="1920"
     inkscape:window-height="1017"
     inkscape:window-x="-8"
     inkscape:window-y="-8"
     inkscape:window-maximized="1"
     fit-margin-top="0"
     fit-margin-left="0"
     fit-margin-right="0"
     fit-margin-bottom="0" />
  <metadata
     id="metadata7">
    <rdf:RDF>
      <cc:Work
         rdf:about="">
        <dc:format>image/svg+xml</dc:format>
        <dc:type
           rdf:resource="http://purl.org/dc/dcmitype/StillImage" />
        <dc:title></dc:title>
      </cc:Work>
    </rdf:RDF>
  </metadata>
  <g
     inkscape:label="Layer 1"
     inkscape:groupmode="layer"
     id="layer1"
     transform="translate(1310.3091,1165.6248)">
    <g
       id="g4136"
       transform="matrix(0,1,-1,0,891.42991,145.81021)">
      <path
         inkscape:connector-curvature="0"
         id="path4197"
         d="m 372.46788,-1165.6248 c 258.6103,0 517.2205,63.1472 773.43742,189.44141 282.7635,139.3797 581.2064,437.82208 720.586,720.58593 252.547,512.34456 252.5828,1034.95946 0.1094,1546.33786 -77.3051,156.5796 -140.4681,241.3065 -298.0645,399.8321 -263.4095,264.9621 -510.2019,403.1116 -855.82222,479.0683 l -0.002,0 c -348.9335,76.6845 -754.621601,19.2083 -1113.6816,-157.7793 -282.7075,-139.3519 -581.1713,-437.7944 -720.63478,-720.584 -140.6175,-285.129 -201.7949,-562.077 -186.3809,-843.75 15.111,-276.1407 60.4769,-447.1487 186.5274,-703.12496 139.21748,-282.71405 437.61428,-581.15198 720.48828,-720.58593 256.2167,-126.29421 514.8271,-189.44141 773.4375,-189.44141 z m 0.004,163.9941 c -61.7122,0 -123.425,8.45223 -226.8575,25.35551 -498.1065,81.40225 -899.7127,374.70066 -1119.6132,817.66799 -226.42148,456.103 -226.90818,895.8123 -1.4922,1349.8906 210.5825,424.1974 619.9576,733.5893 1078.4316,815.0449 349.326,62.0637 615.685,21.9488 947.29302,-142.6699 441.5619,-219.2027 735.055,-621.4899 816.3535,-1118.9629 33.807,-206.865 33.807,-246.8479 0,-453.7129 -108.118,-661.58282 -605.6767,-1159.13964 -1267.25982,-1267.25779 -103.4325,-16.90328 -165.1433,-25.35551 -226.8554,-25.35551 z M 47.303779,1002.8869 c 0.7321,0.5094 1.4609,1.0238 2.1836,1.5469 0.149,0.259 0.3002,0.5164 0.4492,0.7754 -0.7597,-0.3744 -1.8323,-1.0494 -2.1797,-1.5684 -0.1638,-0.2447 -0.3135,-0.4964 -0.4531,-0.7539 z m 815.572301,8.2891 c 0.1136,0.028 0.2282,0.052 0.3418,0.08 2.4215,1.053 4.841,2.1133 7.2636,3.166 0.4118,1.1415 0.7395,2.482 0.9864,3.832 -2.0919,-0.5131 -4.1838,-1.0276 -6.2735,-1.5488 -0.7066,-1.5818 -1.4768,-3.4162 -2.3183,-5.5293 z m -756.8301,9.1133 c 0.4752,1.2218 0.9633,2.4926 1.4668,3.8242 -0.7546,-0.066 -1.5093,-0.1317 -2.2637,-0.1992 -0.0546,-1.296 0.1914,-2.5167 0.7969,-3.625 z"
         style="fill:#000000" />
      <path
         inkscape:connector-curvature="0"
         inkscape:original-d="M 1399.7337,1286.4541 375.84308,-769.81233 -653.70432,1289.2826 Z"
         inkscape:path-effect="#path-effect5739"
         id="path5737"
         d="M 1400.1813,1286.2312 376.29066,-770.0352 a 0.5,0.5 0 0 0 -0.89479,-7.4e-4 l -1.6e-4,3.1e-4 -1029.54709,2059.09433 -1.5e-4,3e-4 a 0.5,0.5 0 0 0 0.4479,0.7236 l 2053.43803,-2.8285 z m -0.4483,-0.2771 -2053.43801,2.8285 0.4479,0.7236 1.6e-4,-3e-4 1029.54709,-2059.09431 1.5e-4,-3.1e-4 -0.89479,-7.4e-4 1023.8906,2056.26646 z"
         style="fill:#000000;fill-rule:evenodd;stroke:#000000;stroke-width:187.5;stroke-linecap:butt;stroke-linejoin:round;stroke-miterlimit:4;stroke-dasharray:none;stroke-opacity:1" />
    </g>
  </g>
</svg>
