<?xml version="1.0" encoding="UTF-8" standalone="no"?>
<!-- Created with Inkscape (http://www.inkscape.org/) -->

<svg
   xmlns:dc="http://purl.org/dc/elements/1.1/"
   xmlns:cc="http://creativecommons.org/ns#"
   xmlns:rdf="http://www.w3.org/1999/02/22-rdf-syntax-ns#"
   xmlns:svg="http://www.w3.org/2000/svg"
   xmlns="http://www.w3.org/2000/svg"
   xmlns:sodipodi="http://sodipodi.sourceforge.net/DTD/sodipodi-0.dtd"
   xmlns:inkscape="http://www.inkscape.org/namespaces/inkscape"
   id="svg2"
   version="1.1"
   inkscape:version="0.91 r13725"
   width="3750"
   height="3750"
   viewBox="0 0 3750 3750"
   sodipodi:docname="CUSTOM TAXI ICON.v2.svg">
  <metadata
     id="metadata8">
    <rdf:RDF>
      <cc:Work
         rdf:about="">
        <dc:format>image/svg+xml</dc:format>
        <dc:type
           rdf:resource="http://purl.org/dc/dcmitype/StillImage" />
        <dc:title></dc:title>
      </cc:Work>
    </rdf:RDF>
  </metadata>
  <defs
     id="defs6" />
  <sodipodi:namedview
     pagecolor="#ffffff"
     bordercolor="#666666"
     borderopacity="1"
     objecttolerance="10"
     gridtolerance="10"
     guidetolerance="10"
     inkscape:pageopacity="0"
     inkscape:pageshadow="2"
     inkscape:window-width="1920"
     inkscape:window-height="1017"
     id="namedview4"
     showgrid="false"
     fit-margin-top="0"
     fit-margin-left="0"
     fit-margin-right="0"
     fit-margin-bottom="0"
     inkscape:zoom="0.10697256"
     inkscape:cx="1905.0108"
     inkscape:cy="1874.9947"
     inkscape:window-x="-8"
     inkscape:window-y="-8"
     inkscape:window-maximized="1"
     inkscape:current-layer="svg2" />
  <path
     style="fill:#000000"
     d="M 0,2840.3342 C 0,2340.018 112.0782,1601.7367 249.0629,1199.7092 453.1272,600.8132 566.0467,468.75 874.06271,468.75 1104.0625,468.75 1250,377.7665 1250,234.375 1250,65.1042 1423.6111,0 1875,0 c 451.3889,0 625,65.1042 625,234.375 0,143.3915 145.9375,234.375 375.9371,234.375 308.0161,0 420.9358,132.0632 625,730.9592 136.9846,402.0275 249.0628,1140.3088 249.0628,1640.625 0,805.499 -35.7845,909.6658 -312.4999,909.6658 -173.6111,0 -312.5,-104.1668 -312.5,-234.375 0,-188.802 -243.0556,-234.375 -1250,-234.375 -1006.94439,0 -1250,45.573 -1250,234.375 C 625,3645.8332 486.1111,3750 312.5,3750 35.7846,3750 0,3645.8332 0,2840.3342 Z M 988.22761,2553.4388 C 1129.5295,2412.1371 779.3505,2013.9811 607.2957,2120.3167 391.8676,2253.4587 444.3179,2656.25 677.0832,2656.25 c 114.5835,0 254.59826,-46.265 311.14441,-102.8112 z M 3281.25,2431.0963 c 0,-123.8345 -56.0916,-259.82 -124.6479,-302.1901 -199.8895,-123.5384 -550.8121,163.0389 -433.0237,353.6245 155.0308,250.8451 557.6716,213.7094 557.6716,-51.4344 z m -2.1338,-829.5338 c -1.175,-64.4532 -44.5302,-275.3906 -96.3486,-468.75 C 3095.1656,805.9268 3002.0916,781.25 1856.7762,781.25 c -677.477,0 -1232.7365,52.7343 -1233.91,117.18748 -1.175,64.4531 -44.5302,275.39062 -96.3486,468.75002 -92.6612,345.7643 -70.7222,351.5625 1330.2586,351.5625 783.4605,0 1423.5135,-52.7344 1422.34,-117.1875 z"
     id="path4138"
     inkscape:connector-curvature="0" />
</svg>
