<?xml version="1.0" encoding="UTF-8" standalone="no"?>
<!-- Created with Inkscape (http://www.inkscape.org/) -->

<svg
   xmlns:dc="http://purl.org/dc/elements/1.1/"
   xmlns:cc="http://creativecommons.org/ns#"
   xmlns:rdf="http://www.w3.org/1999/02/22-rdf-syntax-ns#"
   xmlns:svg="http://www.w3.org/2000/svg"
   xmlns="http://www.w3.org/2000/svg"
   xmlns:sodipodi="http://sodipodi.sourceforge.net/DTD/sodipodi-0.dtd"
   xmlns:inkscape="http://www.inkscape.org/namespaces/inkscape"
   id="svg2"
   version="1.1"
   inkscape:version="0.91 r13725"
   width="3307.5603"
   height="3310.7427"
   viewBox="0 0 3307.5603 3310.7426"
   sodipodi:docname="CUSTOM BW MOOKY PERSON ICON.v2.svg">
  <metadata
     id="metadata8">
    <rdf:RDF>
      <cc:Work
         rdf:about="">
        <dc:format>image/svg+xml</dc:format>
        <dc:type
           rdf:resource="http://purl.org/dc/dcmitype/StillImage" />
        <dc:title></dc:title>
      </cc:Work>
    </rdf:RDF>
  </metadata>
  <defs
     id="defs6" />
  <sodipodi:namedview
     pagecolor="#ffffff"
     bordercolor="#666666"
     borderopacity="1"
     objecttolerance="10"
     gridtolerance="10"
     guidetolerance="10"
     inkscape:pageopacity="0"
     inkscape:pageshadow="2"
     inkscape:window-width="1920"
     inkscape:window-height="1017"
     id="namedview4"
     showgrid="false"
     fit-margin-top="0"
     fit-margin-left="0"
     fit-margin-right="0"
     fit-margin-bottom="0"
     inkscape:zoom="0.19790356"
     inkscape:cx="1614.1398"
     inkscape:cy="1691.0615"
     inkscape:window-x="-8"
     inkscape:window-y="-8"
     inkscape:window-maximized="1"
     inkscape:current-layer="svg2" />
  <g
     id="g4142"
     transform="matrix(6,0,0,6,-127.89225,-138.18782)">
    <path
       style="fill-opacity:1"
       d="M 279.375,574.12181 C 172.25631,566.79367 79.842944,499.17507 40.157335,399.08692 15.054739,335.77751 15.0926,261.50629 40.259781,198.125 77.281577,104.88893 158.72802,40.521386 258.75,25.451059 278.38046,22.493335 315.54291,22.471396 335,25.406046 427.55554,39.365903 504.43381,95.28364 544.96502,178.125 c 40.41162,82.59691 36.20707,182.73719 -10.98711,261.68081 -22.64087,37.87233 -58.26828,73.66195 -94.81924,95.25095 -49.17252,29.044 -105.38278,42.78669 -159.78367,39.06505 z m 41.25,-16.01143 c 22.54465,-1.60043 54.10797,-9.36179 76.25,-18.74974 37.77879,-16.01776 73.23683,-41.87968 98.40745,-71.77514 C 566.10339,383.47064 577.3937,267.06316 524.01606,171.3312 475.36094,84.06902 380.15655,32.320143 280.32881,38.87364 c -60.19582,3.951739 -114.34579,27.208487 -160.67356,69.00734 -23.23123,20.96018 -47.116169,54.26629 -59.978979,83.63708 -31.506829,71.94234 -31.18047,145.02046 0.966044,216.31583 26.689464,59.19256 77.062765,107.05185 140.051015,133.06137 20.90618,8.63273 54.3356,16.21904 78.36501,17.78378 14.93857,0.97277 21.02591,0.8895 41.56666,-0.56867 z M 192.55367,522.94286 c -5.12672,-2.39342 -14.52863,-7.41635 -20.89313,-11.16205 -6.3645,-3.74571 -12.01367,-6.73711 -12.55368,-6.64757 -5.68082,0.942 -13.77741,-4.55234 -16.54127,-11.22489 -1.25945,-3.04058 -2.37177,-3.70226 -7.12404,-4.23791 -7.11158,-0.80158 -12.56588,-5.74898 -14.56461,-13.211 -1.18641,-4.4293 -2.25203,-5.74908 -5.85126,-7.24684 -5.59474,-2.32815 -10.85068,-8.43023 -11.85015,-13.75786 -0.60738,-3.23762 -2.2386,-5.10861 -7.496943,-8.5989 C 88.945729,442.38683 86.25,438.05716 86.25,431.71242 c 0,-1.60298 -3.60438,-9.81592 -8.009732,-18.25097 C 15.141008,292.64357 60.965351,144.39695 181.25,80.214033 249.50856,43.791814 333.61085,41.985386 403.125,75.448394 474.37446,109.74675 522.90636,172.05011 539.58078,250.625 c 3.22809,15.21176 3.45147,18.2466 3.49632,47.5 0.0424,27.64544 -0.27866,32.86056 -2.78328,45.21282 -5.48738,27.06267 -13.76207,50.36335 -25.84333,72.77217 -3.92429,7.27891 -5.53259,11.84847 -5.95254,16.91247 -0.64645,7.7954 -2.79784,10.92928 -10.04045,14.62575 -3.13779,1.60145 -4.91698,3.50382 -5.42869,5.80449 -0.41863,1.88226 -1.02901,4.40971 -1.35637,5.61655 -1.06059,3.91 -6.6491,9.47918 -10.92974,10.89191 -3.63907,1.201 -4.26431,2.04027 -4.8669,6.53292 -0.9979,7.4399 -7.40291,13.56246 -15.09514,14.42948 C 456.369,491.42083 455,492.09063 455,493.7518 c 0,1.19718 -2.1854,4.63965 -4.85644,7.64994 -4.6677,5.26056 -5.14355,5.47746 -12.24457,5.58145 -6.25649,0.0916 -8.71964,0.882 -16.08107,5.16013 C 411.88418,517.91639 398.01601,525 396.64736,525 c -0.50816,0 3.27268,-3.78223 8.40185,-8.40495 5.12919,-4.62271 11.19648,-10.3329 13.48289,-12.6893 l 4.15709,-4.28436 -9.15709,-8.86305 c -16.56973,-16.03766 -18.71766,-20.3705 -13.87546,-27.98982 3.72495,-5.86131 9.55401,-11.51852 11.86842,-11.51852 1.41521,0 2.22494,-0.93974 2.22494,-2.58218 0,-3.36158 1.84973,-6.82928 7.12392,-13.35532 3.85703,-4.77249 4.84418,-5.3125 9.71129,-5.3125 4.86414,0 5.68098,-0.44598 7.99248,-4.36368 3.67772,-6.23326 9.46316,-9.37601 17.27052,-9.38164 4.09591,-0.003 7.07984,-0.67734 8.125,-1.83631 6.4006,-7.09745 7.5712,-7.89176 14.02533,-9.51692 5.34455,-1.34578 6.04273,-2.03576 11.32297,-11.19014 16.56875,-28.72534 15.96066,-51.92545 -2.06744,-78.87775 C 478.17415,301.25892 465.59075,290.01534 452.9336,284.16739 447.97274,281.87532 443.40306,280 442.77875,280 c -0.6243,0 -2.5786,-5.48438 -4.34289,-12.1875 -4.30225,-16.3457 -7.32559,-24.07014 -14.00271,-35.77589 -6.91741,-12.12702 -13.28879,-20.43352 -23.07059,-30.07762 -6.54245,-6.45035 -8.19875,-7.44884 -12.71989,-7.6681 -3.60827,-0.17499 -6.36557,-1.27663 -9.01572,-3.60209 -2.09976,-1.84251 -6.25885,-5.10309 -9.24243,-7.24573 -6.16517,-4.4275 -5.64286,-5.32911 3.84299,-6.63375 6.02261,-0.82832 6.12471,-0.90956 3.18478,-2.53432 -1.6705,-0.9232 -8.38104,-4.01966 -14.91229,-6.88101 -6.53125,-2.86135 -12.28007,-5.56625 -12.77516,-6.01089 -0.49509,-0.44463 -0.0799,-3.89085 0.92266,-7.65826 2.86753,-10.77561 2.71654,-11.22484 -3.7725,-11.22484 -3.09375,0 -5.625,-0.32171 -5.625,-0.71491 0,-0.3932 1.4597,-3.2057 3.24377,-6.25 1.78408,-3.0443 2.96554,-5.53509 2.62548,-5.53509 -0.34008,0 -16.41109,4.22968 -35.71338,9.39929 -34.52247,9.24592 -35.37956,9.55465 -52.53313,18.92222 -9.59095,5.23763 -24.83453,15.01443 -33.87462,21.72623 -15.44035,11.46365 -17.38107,13.40405 -32.02088,32.01526 -15.98842,20.32567 -22.8508,32.27806 -33.01074,57.49564 -3.98481,9.89053 -4.24088,10.20568 -8.89676,10.9502 -19.49423,3.11725 -43.98042,23.28783 -54.697453,45.05721 -5.634038,11.44436 -9.299315,27.12994 -8.399562,35.94597 0.941784,9.2279 8.441284,28.70944 13.974015,36.30048 4.12115,5.65431 4.61306,5.9375 10.3136,5.9375 5.27312,0 6.59961,0.58957 11.13785,4.95031 2.83348,2.72268 5.53228,6.1491 5.99731,7.61428 0.6522,2.05491 1.46097,2.46515 3.5375,1.79435 9.87765,-3.19083 17.08434,-1.19708 22.81076,6.31066 2.57428,3.37505 4.1994,4.3304 7.36631,4.3304 5.34608,0 16.88993,8.91087 16.88993,13.0376 0,2.84485 3.467,6.9624 5.86237,6.9624 0.7098,0 3.89988,2.42994 7.08908,5.39986 5.13974,4.78634 5.79855,6.00285 5.79855,10.70718 0,6.88881 -0.92054,8.44361 -11.21831,18.94771 l -8.62863,8.80151 6.9693,11.50936 c 3.8331,6.33017 8.86498,13.10034 11.18191,15.04486 4.20655,3.53036 7.65877,8.43112 5.8022,8.23678 -0.53981,-0.0565 -5.17607,-2.06099 -10.3028,-4.4544 z m 250.40275,-26.78359 c 2.25917,-1.77705 3.29358,-3.77636 3.29358,-6.36578 0,-3.16195 -2.18241,-5.88072 -13.4375,-16.73994 -11.25369,-10.85789 -14.0862,-12.9721 -17.42913,-13.00922 -2.74117,-0.0305 -4.6012,0.82597 -5.9375,2.73381 -4.08748,5.83571 -2.73945,8.45889 11.61733,22.60637 8.19552,8.07608 14.55979,13.36549 16.08143,13.36549 1.38502,0 4.00033,-1.16582 5.8118,-2.59073 z M 175.63315,482.8125 c 13.73469,-14.15765 15.1038,-16.91946 11.17097,-22.53436 -1.33227,-1.90209 -3.2273,-2.77814 -6.00952,-2.77814 -3.51399,0 -5.87145,1.83455 -17.42911,13.5632 C 155.28941,479.25872 150,485.62299 150,487.14463 c 0,4.25011 4.74002,9.10537 8.88927,9.10537 3.07204,0 5.94309,-2.3041 16.74388,-13.4375 z m 288.97379,-3.03039 c 5.62436,-5.28381 4.22254,-7.96517 -13.15185,-25.15637 -17.42549,-17.24175 -20.21553,-18.65035 -26.06203,-13.15785 -5.47085,5.1396 -4.14639,7.54746 13.66944,24.85101 17.73967,17.22959 20.17119,18.51111 25.54444,13.46321 z M 152.60154,469.0625 c 19.43355,-19.85361 21.13081,-22.06949 20.0378,-26.16045 -1.14981,-4.30355 -6.0782,-7.31489 -10.25565,-6.26641 -3.88755,0.97571 -33.63369,32.54457 -33.63369,35.69462 0,3.89318 4.81915,8.91974 8.55167,8.91974 2.61417,0 6.0465,-2.73411 15.29987,-12.1875 z m 327.85488,-9.15323 c 2.24715,-1.76761 3.29358,-3.77913 3.29358,-6.33121 0,-3.1087 -2.13388,-5.7853 -12.63356,-15.84677 -6.94846,-6.65846 -13.47862,-12.59048 -14.51145,-13.18226 -4.68368,-2.68362 -12.58038,5.27462 -10.51283,10.59474 1.74417,4.48799 25.62218,27.35623 28.56417,27.35623 1.37858,0 3.98863,-1.16582 5.8001,-2.59073 z M 126.62581,458.4375 C 136.73222,449.01059 150,433.59799 150,431.28475 150,427.83417 144.61919,422.5 141.13844,422.5 c -3.25917,0 -25.01598,20.8271 -27.83302,26.64366 -1.61211,3.32864 -1.62717,4.30864 -0.11125,7.2401 2.88949,5.58765 8.69186,6.47485 13.43164,2.05374 z m -11.20589,-25.81596 c 9.07723,-9.40238 10.07807,-12.47476 5.61219,-17.22848 -4.61575,-4.91324 -8.1882,-3.79229 -17.56324,5.51091 -9.301696,9.23043 -10.385551,12.51969 -5.750977,17.45297 4.747047,5.053 8.442677,3.85562 17.702027,-5.7354 z M 497.5,438.75 c 4.71585,-4.71585 3.3196,-8.79859 -6.12846,-17.91992 -9.48755,-9.15947 -12.29083,-10.02443 -17.05335,-5.26189 -4.88254,4.88252 -3.96595,7.83938 5.33578,17.21293 9.18992,9.26089 13.20958,10.60533 17.84603,5.96888 z"
       id="path4156"
       inkscape:connector-curvature="0" />
    <path
       style="fill-opacity:1"
       d="M 275,573.65561 C 211.89106,568.13423 154.60617,542.6879 107.5904,499.29114 103.17137,495.21226 94.313783,485.7541 87.90688,478.273 33.125788,414.30716 10.374149,328.81344 26.28625,246.72145 44.344376,153.55792 108.46036,76.503312 196.70041,41.917685 244.00247,23.37767 298.1272,18.235829 347.31121,27.60968 c 115.54302,22.021036 202.58539,111.49046 222.33094,228.5303 3.43962,20.38803 3.12324,67.94882 -0.58696,88.23502 C 553.12413,431.48106 501.64105,502.41609 424.91544,542.9754 380.76734,566.31332 323.95946,577.93905 275,573.65561 Z m 36.875,-14.84957 c 80.83262,-5.26784 151.45929,-44.62765 198.75012,-110.76224 16.35504,-22.87196 31.78279,-56.88805 39.34205,-86.7439 5.80513,-22.92773 6.80904,-32.13566 6.81967,-62.5499 0.009,-25.46308 -0.37011,-31.35034 -2.84599,-44.20801 C 547.75171,222.40053 539.19384,198.61469 523.97332,171.25 481.14071,94.242019 401.65974,44.31818 313.125,38.811285 260.04794,35.509871 210.68306,47.430454 164.40752,74.723436 92.29963,117.25216 46.006095,190.26979 37.545369,274.81994 28.67847,363.42909 69.041752,454.0163 141.16854,507.38119 c 41.11393,30.41921 88.34158,47.96163 138.16715,51.32134 7.58412,0.51138 14.07056,1.00048 14.41431,1.08688 0.34375,0.0864 8.5,-0.35611 18.125,-0.98337 z M 189.24746,520.79585 C 181.7551,517.10856 172.25,512.04751 168.125,509.54906 c -4.43848,-2.68832 -9.11917,-4.54395 -11.46659,-4.54585 -4.82886,-0.004 -10.55254,-4.52302 -13.44274,-10.61369 C 141.51574,490.80717 140.4425,490 137.37927,490 c -8.04815,0 -15.57663,-6.72875 -16.91868,-15.12145 -0.62806,-3.92769 -1.36734,-4.87906 -4.29019,-5.52104 -4.55593,-1.00065 -12.4204,-9.66737 -12.4204,-13.68742 0,-3.04958 -4.253261,-8.16478 -6.798201,-8.17588 -0.72974,-0.004 -3.119813,-1.68637 -5.311274,-3.74043 -2.992216,-2.8046 -4.184078,-5.21566 -4.785991,-9.68172 C 86.4137,430.80117 84.374311,425.03125 82.322559,421.25 61.456172,382.79456 51.851512,348.41415 50.370263,306.875 47.143231,216.37839 93.679026,131.61375 171.84416,85.611121 245.26704,42.399455 337.74522,40.325486 412.5,80.214033 458.58741,104.8059 493.80938,140.86985 517.28115,187.5 c 19.91172,39.55758 27.46187,74.02778 26.1207,119.25389 -1.11938,37.74666 -8.60467,67.53294 -25.78869,102.62111 -6.40318,13.0747 -8.72487,19.21974 -9.1812,24.30076 -0.65302,7.27123 -3.2828,10.63484 -11.98441,15.3286 -3.03241,1.63573 -3.94755,2.96933 -3.94755,5.75265 0,5.24768 -4.83679,11.75146 -10.80242,14.52549 -4.54145,2.11177 -5.25947,3.01915 -5.84532,7.38697 -0.97321,7.25587 -7.46643,13.39688 -15.0716,14.25409 C 456.369,491.42083 455,492.09063 455,493.7518 c 0,1.19718 -2.18584,4.63965 -4.85743,7.64994 -4.68182,5.27541 -5.12238,5.47472 -12.1875,5.51364 -6.46063,0.0356 -8.66447,0.79248 -18.58007,6.38136 -6.1875,3.48755 -13.91785,7.5141 -17.17856,8.94789 l -5.92855,2.60688 7.80355,-7.09186 c 4.29196,-3.90053 10.30749,-9.5314 13.36785,-12.51306 l 5.56427,-5.42122 -9.31427,-8.97518 c -16.73338,-16.12418 -18.8896,-20.43914 -14.03265,-28.08167 3.72495,-5.86131 9.55401,-11.51852 11.86842,-11.51852 1.41521,0 2.22494,-0.93974 2.22494,-2.58218 0,-3.36158 1.84973,-6.82928 7.12392,-13.35532 3.85703,-4.77249 4.84418,-5.3125 9.71129,-5.3125 4.86414,0 5.68098,-0.44598 7.99248,-4.36368 3.67772,-6.23326 9.46316,-9.37601 17.27052,-9.38164 4.09591,-0.003 7.07984,-0.67734 8.125,-1.83631 6.31115,-6.99826 7.31444,-7.6805 14.12538,-9.60537 5.67356,-1.60344 6.27238,-2.212 11.95255,-12.14726 12.33323,-21.57225 14.68495,-38.29842 8.10787,-57.66574 -4.13795,-12.18489 -14.84916,-27.91751 -25.83082,-37.94026 -8.4156,-7.68075 -12.80023,-10.4178 -25.10152,-15.66929 -4.53225,-1.93484 -6.07583,-3.32832 -6.66481,-6.01674 -6.62962,-30.26112 -19.14832,-53.84619 -38.58422,-72.69212 -8.29129,-8.03962 -9.70855,-8.93159 -14.19137,-8.93159 -3.12431,0 -5.61946,-0.77511 -6.69572,-2.08001 -0.94355,-1.144 -4.99201,-4.46774 -8.99659,-7.38608 -7.91324,-5.76677 -7.91025,-5.77447 2.90604,-7.49717 l 5.625,-0.8959 -10.64878,-5.19416 c -5.85682,-2.85681 -12.98325,-6.12826 -15.8365,-7.26989 l -5.18771,-2.07572 1.72947,-7.23803 C 353.40826,142.70112 353.34198,142.5 346.85394,142.5 l -5.64605,0 3.14605,-6.20845 c 1.73033,-3.41464 3.14606,-6.49446 3.14606,-6.84406 0,-0.34959 -1.54688,-0.0464 -3.4375,0.67365 -1.89063,0.7201 -17.86223,5.16496 -35.49244,9.87748 -27.94891,7.47068 -33.63435,9.42055 -44.38496,15.22229 -6.78151,3.65975 -14.40012,7.74765 -16.93026,9.08421 -2.53014,1.33658 -12.2646,8.1088 -21.63215,15.04939 -15.83688,11.73383 -18.07664,13.93138 -31.92158,31.31988 -16.12292,20.24954 -20.54171,27.66794 -31.1501,52.29579 l -6.93295,16.09516 -9.37153,2.40809 c -18.43258,4.73638 -39.90054,23.61972 -50.393332,44.32625 -5.110807,10.08568 -8.704227,25.97327 -8.018082,35.45032 0.694649,9.59452 7.460804,27.36114 14.101984,37.02909 4.34323,6.3227 4.46857,6.39627 9.86102,5.78846 4.6395,-0.52294 6.13116,-0.0816 9.90693,2.93115 2.44477,1.95074 5.4519,5.42062 6.6825,7.71086 1.75161,3.25989 2.7803,3.98664 4.73745,3.34693 9.62686,-3.14665 16.93303,-1.09129 22.61876,6.36311 2.57428,3.37505 4.1994,4.3304 7.36632,4.3304 5.34607,0 16.88992,8.91087 16.88992,13.0376 0,2.84485 3.467,6.9624 5.86238,6.9624 0.7098,0 3.89987,2.42994 7.08907,5.39986 5.13974,4.78634 5.79855,6.00285 5.79855,10.70718 0,6.89687 -0.91573,8.4387 -11.30765,19.03883 l -8.71795,8.89263 2.76035,4.54325 C 190.96826,512.94063 195,519.18137 195,518.25211 c 0,-0.58202 0.87001,-0.33618 1.93335,0.54632 2.14949,1.78391 7.28649,8.70157 6.46172,8.70157 -0.28883,0 -6.65526,-3.01688 -14.14761,-6.70415 z m 254.10948,-24.76374 c 1.86207,-1.74933 2.89306,-4.15187 2.89306,-6.74181 0,-3.49964 -1.75076,-5.66829 -13.4375,-16.6449 -11.21268,-10.53135 -14.09839,-12.62301 -17.42913,-12.63319 -2.71703,-0.009 -4.61296,0.87488 -5.9375,2.76593 -4.08748,5.83571 -2.73945,8.45889 11.61733,22.60637 14.55474,14.34259 17.07787,15.54764 22.29374,10.6476 z M 175.80727,482.8125 c 10.55524,-11.03374 12.86262,-14.12956 12.89874,-17.30626 0.0471,-4.14415 -2.49087,-7.14877 -7.27136,-8.6082 -2.55208,-0.77913 -4.82168,0.98367 -17.1875,13.34949 C 154.04022,480.45446 150,485.34105 150,487.47928 c 0,4.2983 4.68834,8.77072 9.19416,8.77072 3.14756,0 5.84753,-2.18386 16.61311,-13.4375 z m 288.79967,-3.03039 c 5.58601,-5.24779 4.19657,-7.90484 -13.04444,-24.94526 -8.76563,-8.66364 -16.96263,-16.10662 -18.21555,-16.53998 -2.53601,-0.87712 -6.91736,1.06353 -9.2447,4.09481 -3.82578,4.98294 -2.10955,7.75179 14.95746,24.13148 17.73916,17.02475 20.18662,18.29498 25.54723,13.25895 z M 155.82077,465.9375 c 8.33705,-8.42188 15.78182,-16.5413 16.54393,-18.04316 1.72299,-3.39543 0.0226,-8.4477 -3.47269,-10.31834 -5.95876,-3.18903 -8.08566,-1.85626 -24.0514,15.07121 -16.63469,17.63673 -18.18597,20.58625 -13.46831,25.60798 5.32001,5.66288 7.97138,4.32706 24.44847,-12.31769 z m 324.63565,-6.02823 c 2.3231,-1.82735 3.29377,-3.76103 3.29421,-6.5625 5.3e-4,-3.41298 -1.80204,-5.6837 -12.8125,-16.13992 -7.04722,-6.69248 -13.82504,-12.50475 -15.06183,-12.91615 -4.52453,-1.50505 -11.77629,5.90449 -10.30761,10.53187 1.1897,3.74843 26.33265,27.67743 29.08152,27.67743 1.38195,0 3.99475,-1.16582 5.80621,-2.59073 z m -356.28246,0.6199 C 127.63613,459.20062 150,433.78044 150,431.17369 150,427.74431 144.54077,422.5 140.97086,422.5 c -2.00353,0 -6.58981,3.7464 -14.91971,12.1875 -13.74494,13.92842 -15.30956,16.31254 -13.62063,20.75476 1.81748,4.78033 6.85543,6.96263 11.74344,5.08691 z m -8.75404,-27.90763 c 9.07723,-9.40238 10.07807,-12.47477 5.61219,-17.22848 -4.61575,-4.91324 -8.1882,-3.79229 -17.56324,5.51091 -9.301696,9.23043 -10.385551,12.51969 -5.750977,17.45297 4.747047,5.053 8.442677,3.85562 17.702027,-5.7354 z m 382.29416,6.55972 C 499.01599,438.00305 500,435.40093 500,433.13634 c 0,-3.27972 -1.51136,-5.43529 -8.62846,-12.30626 -9.48755,-9.15947 -12.29083,-10.02443 -17.05335,-5.26189 -5.15115,5.15113 -4.09764,8.60423 5.36931,17.59903 9.05531,8.60368 13.51939,10.09299 18.02658,6.01404 z"
       id="path4154"
       inkscape:connector-curvature="0" />
    <path
       style="fill-opacity:1"
       d="M 276.25,573.61416 C 204.33976,568.46753 133.03287,532.24381 87.317616,477.637 -0.60720104,372.61091 -0.57623004,224.35084 87.392384,119.72077 123.86382,76.341561 176.67742,44.040801 233.125,30.590822 c 31.72869,-7.560116 70.56375,-9.514458 101.18751,-5.092178 92.74568,13.393103 169.61553,69.328091 210.59655,153.242326 37.11246,75.99287 36.87516,165.48437 -0.63966,241.22612 -44.53905,89.92355 -129.26763,146.59393 -229.8944,153.76401 -9.625,0.68582 -18.90625,1.17156 -20.625,1.07941 -1.71875,-0.0921 -9.59375,-0.6305 -17.5,-1.19635 z m 35.625,-14.81724 c 44.37986,-2.91533 80.92396,-14.14727 118.36759,-36.3806 64.98114,-38.58458 109.96913,-103.68648 123.77064,-179.10781 2.36172,-12.90615 2.77846,-19.58944 2.77846,-44.55851 0,-24.88858 -0.42037,-31.67059 -2.75234,-44.40538 C 540.76807,181.87076 499.10784,119.11481 438.08329,79.671262 400.79911,55.572442 357.7291,41.484651 313.125,38.798597 237.81647,34.263528 166.82471,61.0911 113.13292,114.375 58.30606,168.78535 29.961896,246.89652 37.545369,322.68006 c 8.460726,84.55015 54.754261,157.56779 126.862161,200.0965 36.57153,21.56964 73.64605,33.20984 114.34247,35.89986 7.90625,0.5226 14.65625,1.02217 15,1.11014 0.34375,0.088 8.5,-0.35737 18.125,-0.98964 z M 195.44041,523.75836 c -1.47652,-0.59573 -3.06227,-1.69426 -3.52387,-2.44115 -0.46162,-0.7469 -1.44983,-0.98065 -2.19605,-0.51946 -0.8587,0.5307 -0.99255,0.24922 -0.36463,-0.76678 0.66424,-1.07476 0.41823,-1.40183 -0.74436,-0.98965 -1.41124,0.50034 -8.61413,-2.12293 -8.6105,-3.13592 5.6e-4,-0.15423 2.48627,-0.4405 5.52381,-0.63618 4.56522,-0.29408 5.86963,0.13938 7.52306,2.5 1.10016,1.57068 2.31757,2.66828 2.70537,2.43912 0.3878,-0.22918 1.0801,10e-4 1.53842,0.5129 0.45834,0.51126 0.16908,0.54896 -0.64279,0.0838 -0.81187,-0.46519 -1.82945,-0.27412 -2.26127,0.4246 -0.43183,0.69871 0.0586,1.27038 1.08986,1.27038 1.03125,0 2.22264,0.5625 2.64754,1.25 0.8923,1.44377 0.87314,1.44383 -2.68459,0.009 z m -2.50906,-4.43727 c -0.40711,-1.0609 -1.00829,-1.66083 -1.33594,-1.33316 -0.32766,0.32766 -0.22497,1.19567 0.22819,1.92891 1.23256,1.99432 1.95297,1.60689 1.10775,-0.59575 z M 187.5,517.5 c 0,-0.6875 -0.98438,-1.24139 -2.1875,-1.23086 -1.86944,0.0164 -1.91488,0.19532 -0.3125,1.23086 2.35901,1.52451 2.5,1.52451 2.5,0 z m 216.25,1.36383 c 0,-0.58174 0.86759,-1.77775 1.92797,-2.65779 1.56833,-1.3016 2.20958,-1.29594 3.4375,0.0304 1.18375,1.27854 1.17233,1.44003 -0.053,0.74825 -0.85937,-0.48519 -1.5625,-0.34664 -1.5625,0.30788 0,0.65452 -0.84375,1.51381 -1.875,1.90955 -1.03125,0.39572 -1.875,0.24352 -1.875,-0.33822 z m 6.86954,-3.87266 c -0.42789,-0.69236 0.0981,-1.59505 1.16905,-2.00598 1.07089,-0.41093 1.65111,-1.226 1.2894,-1.81125 -0.90641,-1.4666 5.21702,-5.30959 7.19446,-4.51514 0.92773,0.37271 0.54981,0.72239 -0.89745,0.83038 -2.5,0.18653 -2.5,0.18653 0,1.36788 2.09717,0.991 1.95845,1.07682 -0.86089,0.53257 -1.8485,-0.35684 -3.70982,-0.0842 -4.13627,0.60578 -0.42646,0.69003 0.10162,1.25459 1.17339,1.25459 1.07182,0 1.94877,0.54485 1.94877,1.21077 0,0.66592 -0.93603,0.85158 -2.08005,0.41258 -1.38915,-0.53306 -1.78279,-0.31719 -1.18509,0.64991 0.60314,0.97589 0.19553,1.1797 -1.25,0.625 -1.45527,-0.55845 -1.85436,-0.35288 -1.24115,0.63932 0.49712,0.80433 0.62258,1.46242 0.27883,1.46242 -0.34375,0 -0.9751,-0.56647 -1.403,-1.25883 z M 176.25,513.75 c -1.36246,-0.88049 -1.42771,-1.21695 -0.23873,-1.23086 0.89995,-0.01 1.27174,-0.60895 0.82622,-1.32984 -0.55005,-0.88999 -1.39881,-0.82208 -2.6443,0.21159 -1.45411,1.20681 -1.75487,1.187 -1.45122,-0.0955 0.21067,-0.88982 -0.3984,-1.90175 -1.35347,-2.24875 -1.11511,-0.40515 -1.40378,-0.0926 -0.80669,0.87352 0.65324,1.05698 0.14731,1.01578 -1.70101,-0.13851 -1.44694,-0.90369 -2.6308,-2.10341 -2.6308,-2.6661 0,-0.5627 0.5625,-0.67545 1.25,-0.25055 0.6875,0.4249 1.25,0.0788 1.25,-0.76912 0,-0.86857 1.30681,-0.31398 2.99312,1.27023 2.07261,1.9471 3.26759,2.36783 3.88552,1.368 0.50343,-0.81457 -0.25632,-2.24848 -1.74313,-3.28989 -1.44954,-1.01528 -2.61762,-2.51721 -2.59576,-3.3376 0.022,-0.82711 0.77952,-0.51709 1.70031,0.69588 1.89115,2.49129 3.89473,2.99851 2.46877,0.625 -0.74878,-1.24634 -0.55074,-1.24854 0.97873,-0.0113 1.0546,0.85341 2.37777,1.13466 2.94035,0.625 0.5626,-0.50965 0.61828,-0.22353 0.12375,0.63585 -0.55611,0.96635 -0.15565,1.5625 1.04959,1.5625 1.07183,0 1.94878,0.46654 1.94878,1.03675 0,0.57021 1.26562,0.99209 2.8125,0.9375 2.07167,-0.0731 2.70816,0.50999 2.4164,2.21369 -0.22188,1.29561 0.15248,1.9739 0.85112,1.54211 0.68598,-0.42395 1.57003,-0.24854 1.96455,0.38983 0.39454,0.63836 -0.26972,1.00338 -1.47612,0.81115 -1.2064,-0.19224 -2.12274,-1.22338 -2.03632,-2.29143 0.0909,-1.12364 -0.53421,-1.6766 -1.48357,-1.3123 -0.90239,0.34628 -1.37076,1.33305 -1.04084,2.19281 0.32991,0.85978 -0.19092,1.56323 -1.15742,1.56323 -1.08437,0 -1.52933,-0.87175 -1.16198,-2.27649 0.74118,-2.83426 -3.01699,-4.52637 -5.08485,-2.28945 -1.13266,1.22528 -1.13321,1.40551 -0.002,0.77059 1.83176,-1.02844 3.42971,1.2364 1.64888,2.33701 -0.70993,0.43876 -0.96717,1.32138 -0.57162,1.96138 0.90594,1.46585 0.4413,1.44503 -1.92838,-0.0864 z m 246.74734,-8.19164 c 0.24664,-5.40087 -0.0175,-5.82142 -9.1842,-14.62061 -16.84559,-16.17028 -19.02544,-20.50784 -14.1565,-28.16922 3.72495,-5.86132 9.55401,-11.51853 11.86842,-11.51853 1.41521,0 2.22494,-0.93974 2.22494,-2.58218 0,-3.36158 1.84973,-6.82928 7.12392,-13.35532 3.85703,-4.77249 4.84418,-5.3125 9.71129,-5.3125 4.86414,0 5.68098,-0.44598 7.99248,-4.36368 3.67772,-6.23326 9.46316,-9.37601 17.27052,-9.38164 4.09591,-0.003 7.07984,-0.67734 8.125,-1.83631 6.30873,-6.99556 7.44775,-7.78227 13.6927,-9.45738 3.0025,-0.80538 6.02159,-1.81338 6.70909,-2.24 2.04295,-1.26775 4.44173,-1.34023 3.68219,-0.11125 -0.3876,0.62713 -0.0758,1.14026 0.69281,1.14026 0.76865,0 1.10919,0.46658 0.75675,1.03682 -0.77983,1.26179 3.06287,1.09024 5.20272,-0.23227 1.8583,-1.14849 4.07825,0.0239 3.94184,2.08173 -0.0711,1.07343 -0.27456,1.05286 -0.72916,-0.0738 -0.34676,-0.85937 -1.1793,-1.5625 -1.85009,-1.5625 -0.67079,0 -0.89599,0.52364 -0.50045,1.16363 0.39555,0.64 0.0606,1.57066 -0.74436,2.06814 -0.82591,0.51044 -1.13104,0.36654 -0.70037,-0.33029 0.41973,-0.67915 -0.0581,-1.23481 -1.06205,-1.23481 -1.50984,0 -1.46687,0.39597 0.24871,2.29167 2.27616,2.51513 4.86681,3.15377 3.4421,0.84853 -0.57035,-0.92284 -0.34089,-1.10259 0.63645,-0.49856 0.84058,0.51951 1.27922,1.59376 0.97475,2.38721 -0.79648,2.07559 2.48832,5.00179 3.31751,2.95536 0.4576,-1.12932 0.64392,-1.10064 0.71696,0.11038 0.0542,0.89995 0.62233,1.31265 1.26232,0.91711 0.63999,-0.39555 1.57066,-0.0606 2.06813,0.74436 0.5649,0.91403 0.36268,1.12865 -0.53862,0.57161 -0.79373,-0.49055 -1.44314,-0.29621 -1.44314,0.43187 0,0.72807 0.5625,1.32377 1.25,1.32377 0.6875,0 1.1305,0.42187 0.98444,0.9375 -0.14606,0.51562 0.36335,2.06696 1.13203,3.44741 2.0693,3.7162 1.33407,14.6032 -1.25283,18.5513 -1.22618,1.87139 -4.73462,4.61965 -7.79653,6.10724 -4.83922,2.35107 -5.56711,3.21965 -5.56711,6.64309 0,5.46043 -6.34617,13.943 -11.41381,15.25615 -3.42045,0.88632 -4.16587,1.8434 -5.48639,7.04413 -2.11136,8.31542 -7.3683,13.34693 -14.82275,14.18715 -4.06028,0.45765 -5.77705,1.21785 -5.77705,2.5581 0,2.93265 -5.93194,10.03925 -10.23895,12.26649 -4.42391,2.2877 -17.98614,1.43593 -16.45979,-1.03375 0.49704,-0.80424 0.25091,-0.99009 -0.60812,-0.45917 -0.80844,0.49963 -1.45155,0.17226 -1.46228,-0.74437 -0.0143,-1.22228 -0.30969,-1.17698 -1.16752,0.17904 -1.31859,2.08438 -0.45802,4.20115 1.27303,3.1313 0.63999,-0.39554 1.16363,-0.25876 1.16363,0.30394 0,0.56269 -1.07024,1.69146 -2.37831,2.50836 -2.21469,1.3831 -2.36083,1.10273 -2.12435,-4.07555 z m 21.30561,-10.70068 c 2.28409,-2.71451 3.03402,-4.70034 2.47827,-6.5625 -0.96705,-3.24033 -9.43531,-12.23271 -20.93867,-22.23461 -6.71543,-5.83891 -9.11116,-7.24267 -11.25,-6.59182 -4.56035,1.38771 -7.09255,4.4615 -7.09255,8.6095 0,3.35772 2.00671,5.91824 13.5632,17.30626 15.27037,15.04779 17.71165,16.04293 23.23975,9.47317 z M 464.9513,479.7643 c 5.08607,-5.45925 3.71001,-8.01664 -13.61497,-25.30318 -14.02607,-13.99492 -16.69679,-16.12778 -20.19479,-16.12778 -4.75771,0 -8.6277,4.0146 -8.66873,8.99264 -0.0215,2.61458 3.41463,6.60542 16.5625,19.23602 17.87228,17.16913 20.8209,18.67124 25.91599,13.2023 z m 15.90564,-19.98219 c 1.87045,-1.7572 2.89306,-4.15055 2.89306,-6.77099 0,-3.53357 -1.71541,-5.66868 -13.38274,-16.65711 -13.34646,-12.56986 -16.33896,-14.17776 -20.47558,-11.00176 -2.98733,2.29361 -5.11879,6.96298 -4.32299,9.47033 0.38895,1.22547 6.52606,7.95422 13.63803,14.95278 13.89174,13.6702 16.47816,14.86564 21.65022,10.00675 z m 16.95556,-20.79085 c 1.23112,-1.05735 2.1875,-3.61711 2.1875,-5.85492 0,-3.27972 -1.51136,-5.43529 -8.62846,-12.30626 -4.74565,-4.58154 -9.7323,-8.33008 -11.08143,-8.33008 -4.31857,0 -9.04011,4.76323 -9.04011,9.11992 0,3.19952 1.44731,5.31569 7.71375,11.27863 10.34672,9.84562 13.34909,10.81611 18.84875,6.09271 z M 182.05358,504.375 c -1.03125,-1.03125 -2.61832,-1.88361 -3.52679,-1.89414 -1.23065,-0.0143 -1.17374,-0.3523 0.22321,-1.32585 1.38551,-0.96557 0.77363,-1.08885 -2.34389,-0.47218 -3.32457,0.65761 -4.03305,0.47496 -3.34226,-0.86167 0.48214,-0.93288 -0.28339,-0.37791 -1.70119,1.23329 -1.98182,2.25218 -4.30896,3.08644 -10.06565,3.60844 -6.69025,0.60665 -7.93827,0.33541 -11.71651,-2.5464 -2.32577,-1.77395 -5.17799,-5.22588 -6.33824,-7.67093 C 141.63757,491.06392 140.36927,490 137.94276,490 c -4.44766,0 -11.29109,-3.47003 -14.24205,-7.22158 -1.36471,-1.73495 -2.82277,-5.28988 -3.24012,-7.89987 -0.62806,-3.92769 -1.36734,-4.87906 -4.29019,-5.52104 -4.59117,-1.00838 -12.4204,-9.66699 -12.4204,-13.73611 0,-3.07678 -3.855181,-8.1214 -6.206505,-8.1214 -0.663577,0 -3.165199,-1.71975 -5.559158,-3.82168 -4.898043,-4.30055 -7.114077,-12.78085 -4.715482,-18.0452 1.018518,-2.23539 0.941586,-3.0727 -0.32705,-3.55952 -1.171844,-0.44967 -1.462709,0.16167 -0.990761,2.08242 0.783844,3.19012 0.0021,2.64839 -2.156437,-1.49437 -0.995101,-1.90982 -1.055296,-2.66129 -0.169317,-2.11373 0.75609,0.46729 1.37471,0.14143 1.37471,-0.72415 0,-1.16382 0.365555,-1.20822 1.403336,-0.17043 2.08245,2.08245 7.371489,-0.59058 6.423574,-3.24642 -0.398879,-1.11755 -0.279686,-1.62912 0.264871,-1.13681 1.159323,1.04809 5.649378,-4.2644 5.67736,-6.71727 0.0155,-1.35858 0.214884,-1.36927 1.047839,-0.0561 0.82004,1.29273 1.35912,1.22354 2.65766,-0.34111 1.38148,-1.66458 1.31724,-1.84316 -0.42284,-1.17543 -1.12849,0.43299 -2.0518,0.18228 -2.0518,-0.55721 0,-0.7627 -0.946591,-0.98606 -2.1875,-0.51617 -2.01863,0.76439 -2.030971,0.6703 -0.15985,-1.21866 1.296786,-1.30917 1.79466,-3.2658 1.381264,-5.42834 -0.423643,-2.21614 -0.185259,-3.09636 0.69177,-2.55433 0.735986,0.45487 1.125516,2.50722 0.865626,4.56079 -0.2599,2.05356 0.0964,3.73375 0.79185,3.73375 0.69541,0 0.94076,-0.52364 0.54522,-1.16362 -0.39554,-0.64 -0.14748,-1.51695 0.55123,-1.94878 0.69872,-0.43182 1.27039,0.0967 1.27039,1.17455 0,1.63543 1.11613,1.82851 6.74522,1.16693 6.14065,-0.72172 7.14449,-0.47418 11.20004,2.76182 2.45016,1.95502 5.46169,5.42842 6.69229,7.71866 1.75161,3.25989 2.7803,3.98664 4.73745,3.34693 9.62686,-3.14665 16.93302,-1.09129 22.61876,6.36311 2.57428,3.37505 4.1994,4.3304 7.36631,4.3304 5.34608,0 16.88993,8.91087 16.88993,13.0376 0,2.84485 3.467,6.9624 5.86237,6.9624 0.7098,0 3.89988,2.42994 7.08908,5.39986 5.13974,4.78634 5.79855,6.00285 5.79855,10.70718 0,6.8942 -0.91734,8.44033 -11.27788,19.00846 -7.82055,7.97726 -8.54461,9.13176 -7.2505,11.56089 1.28499,2.41202 1.22264,2.52125 -0.58722,1.0285 -2.38716,-1.96892 -4.67521,-0.93158 -4.53571,2.05638 0.06,1.2853 0.34447,1.50525 0.72583,0.56122 0.45608,-1.12902 1.2816,-1.20227 3.02632,-0.26853 1.31953,0.7062 2.39916,0.87045 2.39916,0.36501 0,-1.8985 2.57999,1.75098 3.08249,4.36029 0.61926,3.21555 0.2339,3.35856 -2.27891,0.84574 z m -5.89293,-21.83925 c 11.31165,-12.16418 12.7085,-14.16348 12.35871,-17.68891 -0.25406,-2.5606 -1.589,-4.86257 -3.75225,-6.47038 -2.95025,-2.19274 -3.78486,-2.29936 -6.875,-0.87835 C 172.40282,460.02237 150,484.19644 150,487.59545 c 0,4.30692 4.733,8.65455 9.42167,8.65455 3.46407,0 5.65553,-1.79546 16.73898,-13.71425 z m -20.42383,-16.32246 c 8.18851,-8.27019 15.69638,-16.71406 16.68417,-18.76417 1.63845,-3.40047 1.57272,-4.02775 -0.74918,-7.15078 -1.77645,-2.38939 -3.87332,-3.53753 -6.94261,-3.8014 -4.17525,-0.35898 -5.19499,0.46215 -20.18092,16.25 -16.90463,17.80921 -18.13879,20.22557 -13.08039,25.61 5.26611,5.60551 8.09826,4.18836 24.26893,-12.14365 z M 137.38947,447.8125 c 8.41543,-8.96734 12.61048,-14.39201 12.61049,-16.30681 5e-5,-3.70784 -5.31092,-9.00569 -9.02797,-9.00569 -3.61063,0 -27.95514,24.10231 -29.09356,28.8041 -1.15771,4.78148 3.3737,9.9459 8.72681,9.9459 3.69083,0 5.63296,-1.55487 16.78423,-13.4375 z m -22.10834,-14.96648 c 9.3568,-9.2851 10.62944,-13.23575 5.73317,-17.79732 -5.12952,-4.77889 -9.25026,-3.43196 -18.01614,5.8888 -8.714794,9.26644 -9.745433,12.66649 -5.280268,17.41944 4.615748,4.91323 8.188198,3.79228 17.563238,-5.51092 z M 419.375,503.75 c 0.4249,-0.6875 1.0206,-1.25 1.32377,-1.25 0.30318,0 0.55123,0.5625 0.55123,1.25 0,0.6875 -0.5957,1.25 -1.32377,1.25 -0.72808,0 -0.97613,-0.5625 -0.55123,-1.25 z m 88.21736,-81.76371 c -1.6257,-1.95885 0.22157,-3.96237 2.40764,-2.61129 0.6875,0.4249 1.25,0.17685 1.25,-0.55123 0,-0.72807 0.63138,-1.32377 1.40305,-1.32377 0.99513,0 0.96855,0.52356 -0.0914,1.8007 -0.83298,1.00369 -2.42221,1.45336 -3.59055,1.01596 -1.82621,-0.6837 -1.87521,-0.51317 -0.38056,1.3243 0.94357,1.15998 1.43431,2.10904 1.09057,2.10904 -0.34375,0 -1.28369,-0.79367 -2.08875,-1.76371 z M 87.450658,418.75 c -0.135691,-1.03125 -0.157095,-2.36589 -0.04756,-2.96585 0.109525,-0.59998 -0.696825,-0.74704 -1.791896,-0.32683 -1.195585,0.4588 -1.673376,0.25006 -1.195921,-0.52248 0.437314,-0.70759 1.943221,-0.92214 3.346458,-0.47677 1.923765,0.61058 2.309804,0.39248 1.569398,-0.88666 -0.540069,-0.93302 -0.505302,-1.26307 0.07726,-0.73345 1.315806,1.19625 1.763245,6.01115 0.485203,5.22128 -0.511537,-0.31615 -1.214953,0.13181 -1.563145,0.99547 -0.447199,1.10923 -0.705517,1.01976 -0.87979,-0.30471 z M 80.625,417.5 c -0.424899,-0.6875 -0.210043,-1.25 0.477458,-1.25 0.687499,0 1.597643,0.5625 2.022542,1.25 0.424899,0.6875 0.210043,1.25 -0.477458,1.25 -0.6875,0 -1.597643,-0.5625 -2.022542,-1.25 z m 426.35512,-2.0518 c -0.65833,-1.7156 -0.47542,-1.79293 1.11627,-0.47195 1.42628,1.18371 1.90361,1.20566 1.90361,0.0875 0,-0.82079 0.86886,-2.36121 1.9308,-3.42315 2.0385,-2.0385 1.77495,-4.95499 -0.40597,-4.49265 -0.70823,0.15014 -1.60205,-0.54624 -1.98628,-1.5475 -0.39779,-1.03665 -0.0451,-1.69239 0.81894,-1.52298 2.50786,0.49165 4.69876,4.32144 3.80483,6.65099 -0.57072,1.48728 -0.37172,1.89397 0.62526,1.2778 0.80433,-0.49711 1.46242,-0.24795 1.46242,0.55368 0,0.80162 -0.83517,1.13702 -1.85594,0.74532 -1.09092,-0.41864 -2.39715,0.2991 -3.16897,1.74126 -1.60099,2.99147 -3.19335,3.14213 -4.24496,0.40165 z M 76.748365,409.0625 c 0.517214,-0.89876 0.230651,-1.5625 -0.674594,-1.5625 -1.224044,0 -1.240437,-0.33334 -0.07377,-1.5 2.057478,-2.05748 1.9031,-4.14065 -0.178807,-2.41282 -1.30418,1.08237 -2.003644,0.68035 -3.134485,-1.80158 -0.800623,-1.75717 -0.92348,-2.86595 -0.273018,-2.46394 0.650463,0.402 1.762625,-0.26528 2.471474,-1.48287 1.68733,-2.89832 1.750596,-0.89524 0.07086,2.24338 -1.555648,2.90675 -0.199198,3.22822 1.842113,0.43656 1.181968,-1.61644 1.428385,-1.05104 1.3382,3.07043 -0.0608,2.77844 -0.600276,5.49814 -1.198842,6.04378 -0.598978,0.54601 -0.684013,0.28952 -0.189127,-0.57044 z m 438.351265,-3.66017 c -1.53384,-1.73013 -1.53384,-1.91592 0,-1.36557 0.97646,0.35037 2.90037,-0.27396 4.27537,-1.38737 2.44068,-1.97635 2.44803,-1.96266 0.30977,0.57705 -1.20462,1.43079 -1.814,2.97766 -1.35417,3.4375 0.45984,0.45984 0.32044,0.81466 -0.30976,0.78851 -0.63022,-0.0261 -1.94475,-0.9487 -2.92122,-2.05012 z M 488.75,397.45432 c 1.71875,-1.50488 3.125,-3.75086 3.125,-4.99107 0,-1.2402 0.42187,-2.67679 0.9375,-3.19241 0.51562,-0.51563 0.94611,-0.14063 0.95664,0.83332 0.0159,1.46507 0.25204,1.44708 1.36792,-0.10412 1.116,-1.55142 1.21811,-1.47347 0.59168,0.45167 -0.56961,1.75055 -0.27322,2.141 1.19701,1.57681 1.16566,-0.4473 1.63328,-0.23076 1.15897,0.53668 -0.43731,0.70759 -1.94322,0.92214 -3.34646,0.47676 -1.52208,-0.48308 -2.24795,-0.31886 -1.79927,0.4071 0.75746,1.22559 -1.96509,4.1444 -5.43899,5.83108 -1.03125,0.5007 -0.46875,-0.3209 1.25,-1.82578 z m 30,1.09794 c 0,-0.5671 1.125,-1.73365 2.5,-2.59235 1.51882,-0.94852 2.5,-2.91503 2.5,-5.0106 0,-2.45901 0.62802,-3.44381 2.1875,-3.43017 1.86944,0.0164 1.91488,0.19532 0.3125,1.23086 -1.03125,0.66645 -1.48239,1.22034 -1.00253,1.23086 0.47987,0.01 0.28444,1.70598 -0.43426,3.76765 -0.7498,2.15086 -1.87814,3.39538 -2.6474,2.91995 -0.81546,-0.50399 -1.05929,-0.0954 -0.62241,1.04315 0.42781,1.11484 0.009,1.87173 -1.03758,1.87173 -0.9657,0 -1.75582,-0.46399 -1.75582,-1.03108 z M 71.466781,395.8862 c -1.022291,-1.23178 -0.688653,-1.64546 1.409444,-1.7476 1.511826,-0.0736 2.042145,0.13816 1.178486,0.47056 -0.863657,0.3324 -1.252336,1.11883 -0.863729,1.7476 1.061177,1.71703 -0.192667,1.37483 -1.724201,-0.47056 z m 17.30236,-2.99993 c -0.0105,-0.8188 0.514678,-1.81865 1.167123,-2.22188 0.652445,-0.40323 1.004412,-2.26455 0.782149,-4.13627 -0.222263,-1.87172 0.09921,-4.52812 0.714393,-5.90312 1.045583,-2.337 1.084738,-2.32054 0.600549,0.25256 -0.284877,1.51391 0.125451,3.01639 0.911843,3.33883 0.984828,0.4038 0.943531,0.61695 -0.132698,0.68492 -0.859375,0.0542 -1.5625,0.72136 -1.5625,1.48243 0,0.76942 0.910896,1.03418 2.051805,0.59638 1.793248,-0.68813 1.832628,-0.51798 0.3125,1.3503 -1.526179,1.87572 -1.479059,2.04019 0.384535,1.34228 1.59088,-0.59579 1.929671,-0.28939 1.350078,1.22101 -0.57106,1.48816 -0.308784,1.74645 1.001158,0.98594 0.976209,-0.56675 1.338554,-0.55079 0.805212,0.0355 -1.590609,1.74847 -5.903788,1.94105 -5.924429,0.26452 C 91.218226,391.15364 90.799688,391.26258 90,392.5 c -0.728075,1.12661 -1.219358,1.28079 -1.230859,0.38627 z m 430.794189,-2.22123 c -0.73215,-1.90798 1.29003,-3.97834 2.60317,-2.66522 0.41259,0.4126 0.025,0.75018 -0.86123,0.75018 -1.29061,0 -1.30162,0.37325 -0.0552,1.875 0.89693,1.08074 1.01842,1.875 0.28678,1.875 -0.69812,0 -1.58617,-0.82574 -1.97346,-1.83496 z M 66.25,386.25 c -0.99987,-1.86827 -0.950612,-2.5 0.194932,-2.5 0.84309,0 0.441007,-0.84513 -0.89352,-1.87806 -1.822568,-1.41069 -1.909233,-1.69893 -0.348243,-1.15823 1.347395,0.46673 2.298524,-0.0816 2.70481,-1.55942 0.344651,-1.25362 0.569991,0.39258 0.500753,3.65821 -0.06924,3.26562 -0.282235,5.9375 -0.47333,5.9375 -0.191093,0 -0.949525,-1.125 -1.685402,-2.5 z m 453.29055,-1.51786 c 0.33384,-0.54018 1.41755,-0.98214 2.40822,-0.98214 0.99068,0 1.80123,0.44196 1.80123,0.98214 0,0.54018 -1.0837,0.98215 -2.40823,0.98215 -1.32452,0 -2.13507,-0.44196 -1.80122,-0.98215 z m -24.44186,0.0989 c -0.0542,-0.43669 0.73357,-2.68669 1.75077,-5 l 1.84946,-4.20601 -0.23375,3.97601 c -0.12857,2.18682 -0.63153,3.73019 -1.11771,3.42971 -0.48616,-0.30046 -1.16882,0.16033 -1.51701,1.02399 -0.3482,0.86366 -0.67749,1.21299 -0.73176,0.7763 z M 63.75,377.5 c -1.602371,-1.03554 -1.556934,-1.2145 0.3125,-1.23086 1.203125,-0.0105 2.1875,0.54336 2.1875,1.23086 0,1.52451 -0.140984,1.52451 -2.5,0 z m 465.625,0 c -0.4249,-0.6875 -2.98935,-1.25 -5.69877,-1.25 -2.85389,0 -4.92623,-0.59941 -4.92623,-1.42488 0,-0.98239 -2.16755,-1.20117 -6.97991,-0.70448 -8.59577,0.88716 -10.41872,0.2705 -9.64852,-3.26386 0.48894,-2.24376 0.34583,-2.39682 -0.80111,-0.85678 -1.07781,1.44721 -1.17385,1.01941 -0.42094,-1.875 0.53652,-2.0625 0.97548,-8.3376 0.97548,-13.94467 0,-5.60707 0.32812,-9.99119 0.72916,-9.74249 0.40105,0.24871 0.72918,-0.33556 0.72918,-1.29838 0,-0.96281 -0.47244,-1.6412 -1.04987,-1.50751 -0.57742,0.13367 -2.8855,-4.25695 -5.12907,-9.75695 -2.24358,-5.5 -5.87394,-12.60033 -8.06748,-15.77851 -2.19353,-3.17818 -3.7292,-6.1313 -3.41258,-6.5625 0.31661,-0.43119 0.27233,-0.57441 -0.0984,-0.31826 -0.37074,0.25614 -4.09604,-3.09792 -8.27845,-7.45347 -9.13549,-9.51366 -17.98801,-15.79787 -27.96854,-19.85426 -5.25467,-2.13566 -7.64515,-3.84753 -8.23356,-5.89619 -0.45602,-1.58775 -2.09914,-7.66806 -3.65137,-13.51181 -5.8307,-21.95114 -16.59672,-40.5527 -33.46012,-57.8125 -10.03596,-10.27188 -11.0016,-10.9375 -15.8672,-10.9375 -3.98274,0 -5.88173,-0.75653 -8.2113,-3.27123 -1.66671,-1.79917 -5.77275,-5.132 -9.12454,-7.40627 l -6.09414,-4.13506 7.6328,-1.50167 c 4.19804,-0.82591 7.36194,-1.93993 7.03087,-2.47561 -0.33107,-0.53567 -6.85804,-3.69204 -14.50439,-7.01415 -7.64635,-3.3221 -14.16599,-6.72694 -14.48808,-7.56629 -0.32208,-0.83936 0.25369,-5.20567 1.27952,-9.70291 l 1.86512,-8.17681 -5.50127,0 c -3.02572,0 -5.50129,-0.58491 -5.50129,-1.2998 0,-0.71489 1.125,-3.50498 2.5,-6.2002 3.16225,-6.19851 3.13786,-6.43064 -0.529,-5.0365 -1.66596,0.6334 -17.27534,4.89982 -34.6875,9.48095 -28.5312,7.50652 -33.0785,9.0755 -46.0335,15.88305 -18.32616,9.62997 -24.94691,13.82983 -41.875,26.56324 -11.99596,9.02342 -15.63818,12.72937 -28.55155,29.05111 -16.00834,20.23357 -22.06721,30.18051 -29.77288,48.87849 -2.73232,6.63006 -5.63335,13.62357 -6.44672,15.54115 -1.4782,3.48496 -5.79083,5.59755 -8.2828,4.05742 -0.72658,-0.44905 -1.32105,-0.32349 -1.32105,0.27904 0,0.60252 -3.20351,2.10531 -7.11893,3.33954 -7.50774,2.36661 -15.99193,8.03335 -26.13661,17.45712 -3.3657,3.12653 -6.54133,5.70053 -7.05696,5.71999 -0.51562,0.0195 -0.9375,0.52341 -0.9375,1.11987 0,0.59647 -2.47396,4.7738 -5.49769,9.28298 -3.023724,4.50916 -6.162806,10.21382 -6.975735,12.67703 -0.869867,2.63572 -2.030419,4.13716 -2.82045,3.6489 -0.787066,-0.48644 -0.980001,-0.24328 -0.46638,0.58777 C 91.419363,335.0353 88.892108,345 87.581004,345 c -0.425303,0 -0.700376,4.21294 -0.611276,9.36209 0.142026,8.20779 -0.0535,9.09397 -1.585825,7.1875 -1.542052,-1.91858 -1.654602,-1.54914 -0.955992,3.13791 0.518657,3.47972 0.322687,5.3125 -0.568038,5.3125 -0.836819,0 -1.35251,-3.00496 -1.340732,-7.8125 0.01349,-5.5054 0.376971,-7.2588 1.230859,-5.9375 0.955012,1.47777 1.19716,1.21296 1.143002,-1.25 -0.03779,-1.71875 -0.600325,-4.25 -1.250068,-5.625 -0.97774,-2.06911 -1.066215,-1.90753 -0.513329,0.9375 0.37666,1.9382 0.112437,3.4375 -0.60579,3.4375 -0.700599,0 -1.324546,-1.26563 -1.38655,-2.8125 -0.08691,-2.16814 -0.381478,-1.88176 -1.28574,1.25 l -1.173005,4.0625 -9.96426,0 c -8.608971,0 -9.981208,0.29754 -10.08886,2.1875 -0.07951,1.39589 -0.448019,1.05662 -1.018316,-0.9375 -0.491544,-1.71875 -0.440495,-3.31083 0.113437,-3.53795 0.553935,-0.22711 0.168428,-1.25168 -0.856685,-2.27679 -2.6009,-2.6009 -2.373272,-4.90002 0.274824,-2.77581 1.596689,1.2808 1.478572,0.76524 -0.46609,-2.03445 -3.849608,-5.54219 -6.001046,-22.84034 -5.985494,-48.125 0.01563,-25.39928 1.695868,-39.3343 7.460713,-61.875 8.686382,-33.96399 24.245477,-65.42061 45.443261,-91.875 9.49448,-11.8489 27.9642,-30.21943 40.15895,-39.94327 47.33034,-37.740253 111.58144,-57.582214 170.70443,-52.71678 39.56927,3.256293 75.19096,14.284887 107.43761,33.263053 75.70663,44.555717 121.97085,125.466267 121.83087,213.067517 -0.0296,18.54476 -3.78507,50.45933 -6.2418,53.0443 -0.56966,0.5994 -0.7666,1.7912 -0.43765,2.64845 0.32896,0.85725 -0.54914,3.6012 -1.95132,6.09768 -1.40219,2.49647 -2.02599,4.53905 -1.38622,4.53905 0.63977,0 0.4103,2.10937 -0.50992,4.6875 -0.92021,2.57812 -2.32111,4.53885 -3.11309,4.35716 -1.05975,-0.24312 -1.08416,0.33449 -0.0925,2.1875 1.35351,2.52906 0.83025,3.60703 -0.61545,1.26784 z m 2.24709,-6.66666 c 0.35176,-0.91668 -0.15057,-1.66668 -1.11627,-1.66668 -1.87246,0 -2.29025,1.13225 -0.92248,2.5 1.14225,1.14226 1.30638,1.07516 2.03875,-0.83332 z M 505,367.42623 c 0,-1.41558 -0.53794,-2.24132 -1.19541,-1.83497 -0.65748,0.40634 -0.87854,1.56454 -0.49126,2.57378 0.99153,2.58389 1.68667,2.2794 1.68667,-0.73881 z m 25.15259,-3.26998 c -1.47355,-2.53401 -1.82939,-1.72294 -0.62317,1.42043 0.42868,1.11712 1.04274,1.76782 1.36458,1.44598 0.32184,-0.32183 -0.0113,-1.61172 -0.74141,-2.86641 z M 506.25,362.5 c 0,-0.6875 -0.5625,-1.25 -1.25,-1.25 -0.6875,0 -1.25,0.5625 -1.25,1.25 0,0.6875 0.5625,1.25 1.25,1.25 0.6875,0 1.25,-0.5625 1.25,-1.25 z m 25.22916,-2.77084 C 530.58221,358.83221 530,358.75841 530,359.54166 c 0,0.71043 0.375,1.66668 0.83334,2.125 0.45832,0.45834 1.12395,0.54271 1.47916,0.1875 0.35521,-0.3552 -0.0198,-1.31145 -0.83334,-2.125 z m -26.87527,-2.46354 c -0.39903,-0.99716 -0.69523,-0.70097 -0.7552,0.75522 -0.0542,1.3177 0.24116,2.05598 0.65652,1.64062 0.41536,-0.41536 0.45977,-1.4935 0.0986,-2.39584 z M 61.875,373.75 c -0.424899,-0.6875 -0.176845,-1.25 0.551229,-1.25 0.728073,0 1.323771,0.5625 1.323771,1.25 0,0.6875 -0.248053,1.25 -0.551229,1.25 -0.303176,0 -0.898872,-0.5625 -1.323771,-1.25 z m 1.9112,-2.45235 c -1.011339,-0.63895 -1.356205,-1.61418 -0.766369,-2.16719 0.589838,-0.553 1.331373,-0.27886 1.647858,0.60922 0.470257,1.31956 0.93305,1.31956 2.532145,0 1.623709,-1.33988 1.855645,-1.30887 1.362817,0.18219 -0.771165,2.3332 -2.481331,2.82578 -4.776451,1.37578 z M 60.106997,369.375 c 0.130163,-2.36778 2.213449,-6.35481 2.286005,-4.375 0.03779,1.03125 -0.476557,2.71875 -1.143002,3.75 -0.666445,1.03125 -1.180796,1.3125 -1.143003,0.625 z M 63.75,365.9375 c 0,-0.97396 0.859375,-1.77084 1.909722,-1.77084 2.160912,0 1.841028,2.29143 -0.425347,3.04688 C 64.417969,367.48568 63.75,366.91146 63.75,365.9375 Z m 15.677634,-5.42816 c 0.540535,-8.01768 1.822366,-8.52249 1.822366,-0.71768 0,3.55209 -0.497113,6.45834 -1.104695,6.45834 -0.607583,0 -0.930535,-2.5833 -0.717671,-5.74066 z"
       id="path4152"
       inkscape:connector-curvature="0" />
    <path
       style="fill-opacity:1"
       d="M 259.33206,571.78561 C 209.23071,564.96619 159.67536,542.7902 118.81728,508.90532 51.358308,452.9595 13.9837,361.35627 22.578721,273.0296 34.482946,150.69591 124.41427,51.641937 244.85419,28.206446 346.71696,8.3857408 451.47193,47.974119 515.13601,130.34976 c 39.33243,50.89265 59.30686,113.455 56.9583,178.40024 -1.05186,29.08732 -5.40143,52.86212 -14.75029,80.625 -5.38217,15.98325 -20.58207,46.47677 -30.8424,61.875 -44.88991,67.36874 -116.73492,111.41565 -197.71883,121.21792 -14.62475,1.77018 -54.29607,1.38043 -69.45073,-0.68231 z M 337.5,556.10296 C 447.20222,539.10222 533.7421,453.9978 554.03935,343.15537 c 2.33198,-12.73478 2.75234,-19.5168 2.75234,-44.40537 0,-24.96398 -0.41697,-31.65353 -2.77679,-44.54874 C 540.74368,181.68095 499.15863,119.08046 438.08329,79.682433 391.03139,49.330542 337.39374,35.405534 280.625,38.804282 179.75972,44.843094 90.764448,109.8968 54.119666,204.375 46.900636,222.98722 43.14525,236.60234 39.983643,255.625 22.346932,361.74101 71.761521,468.19194 163.91144,522.59531 217.35575,554.14771 276.4769,565.55981 337.5,556.10296 Z m 93.125,-50.50236 c -3.99523,-2.15207 -23.87616,-20.89389 -29.65939,-27.95998 -5.60759,-6.85151 -4.4407,-12.5265 4.59108,-22.32812 2.05889,-2.23438 4.74465,-4.0625 5.96837,-4.0625 1.41521,0 2.22494,-0.93974 2.22494,-2.58218 0,-3.36158 1.84973,-6.82928 7.12392,-13.35532 3.85703,-4.77249 4.84418,-5.3125 9.71129,-5.3125 4.86414,0 5.68098,-0.44598 7.99248,-4.36368 3.68517,-6.2459 9.46071,-9.37602 17.31052,-9.38164 4.31685,-0.003 7.05675,-0.65159 8.125,-1.92305 4.97196,-5.91774 7.57176,-7.73888 13.21838,-9.25936 3.57108,-0.96159 6.0545,-0.9673 8.58408,-0.0197 4.1747,1.5638 18.57579,15.3147 21.15293,20.19789 4.1854,7.93056 0.90136,16.89795 -8.0106,21.87368 -5.38618,3.00721 -6.29075,4.0831 -6.83319,8.12726 -0.79455,5.92387 -5.85252,12.43265 -11.01115,14.16954 -3.35815,1.13068 -4.23652,2.28523 -5.48782,7.21338 -2.24803,8.85359 -8.6703,14.55965 -16.50126,14.66102 -2.85317,0.0369 -3.96136,1.00618 -5.99958,5.24748 -1.375,2.8612 -3.95495,6.25702 -5.73323,7.54625 -4.5534,3.30118 -12.16975,3.98782 -16.76677,1.51157 z m 11.98332,-8.45285 c 3.42707,-2.63123 4.99034,-6.73126 3.76648,-9.87841 -1.50448,-3.8687 -24.98385,-26.6988 -28.6235,-27.83197 -5.30933,-1.653 -12.0304,5.14433 -10.57806,10.69808 0.30256,1.15702 6.6033,8.06862 14.00163,15.35911 13.7378,13.53755 16.80625,15.20584 21.43345,11.65319 z M 465,480 c 2.49248,-2.49248 3.31309,-8.25239 1.51374,-10.625 -0.52139,-0.6875 -8.01605,-8.14063 -16.65483,-16.5625 -16.88314,-16.45926 -19.00581,-17.52924 -24.29072,-12.24431 -5.98825,5.98825 -4.70962,8.49561 13.25598,25.99431 C 456.43617,483.71681 459.639,485.361 465,480 Z m 15.85694,-20.21789 c 1.84438,-1.73272 2.89306,-4.1546 2.89306,-6.68146 0,-3.38749 -1.89626,-5.8085 -13.04677,-16.65711 -14.30924,-13.92182 -17.13637,-15.12403 -22.63504,-9.62535 -5.38118,5.38116 -4.25018,7.78608 10.49501,22.31632 14.55474,14.34259 17.07788,15.54764 22.29374,10.6476 z m 15.84734,-20.09461 c 6.21526,-5.65035 5.69318,-7.73359 -4.49013,-17.9169 -9.95139,-9.95139 -12.35595,-10.86036 -17.67057,-6.67988 -5.19793,4.08869 -4.44111,8.78284 2.64392,16.39894 5.98552,6.43419 12.1755,10.99704 14.9303,11.00566 0.82104,0.002 2.88495,-1.26095 4.58647,-2.80782 z m -346.70492,62.5 c -2.26618,-1.54688 -5.16466,-4.78125 -6.44107,-7.1875 -1.8623,-3.51076 -3.29756,-4.54568 -7.26569,-5.23899 C 127.55893,488.23506 120,480.2021 120,472.44666 c 0,-1.472 -1.2705,-2.52707 -3.68048,-3.05638 -4.2778,-0.93957 -12.56952,-9.54274 -12.56952,-13.04164 0,-4.31834 -1.49016,-6.42035 -6.286011,-8.86702 -8.714543,-4.44582 -13.14706,-13.70221 -10.02732,-20.93996 0.809991,-1.87916 5.236094,-7.4866 9.835782,-12.46096 7.502509,-8.11365 8.960659,-9.12621 14.170589,-9.84031 5.1371,-0.70411 6.32118,-0.38614 10.25728,2.75455 2.44737,1.9528 5.45663,5.42439 6.68723,7.71462 1.75161,3.25989 2.7803,3.98664 4.73745,3.34693 9.62686,-3.14665 16.93302,-1.09129 22.61876,6.36311 2.57428,3.37505 4.1994,4.3304 7.36631,4.3304 5.34608,0 16.88993,8.91087 16.88993,13.0376 0,2.84485 3.467,6.9624 5.86237,6.9624 0.7098,0 3.89988,2.42994 7.08908,5.39986 5.13974,4.78634 5.79855,6.00285 5.79855,10.70718 0,2.91902 -0.56353,6.36026 -1.25226,7.6472 -1.84508,3.44755 -25.09197,27.18569 -29.41139,30.0329 -5.08684,3.35306 -12.88329,3.20235 -18.08699,-0.34964 z m 16.71007,-9.51543 C 174.38087,485.61563 190,467.41997 190,465.5395 c 0,-2.86716 -6.85494,-9.2895 -9.91523,-9.2895 -2.74356,0 -3.35747,0.54899 -19.77227,17.68127 -11.77211,12.28667 -12.66428,15.1176 -6.42018,20.37168 4.49974,3.78627 7.31762,3.42773 12.8171,-1.63088 z m -10.19312,-27.10411 c 8.44728,-8.62512 15.88955,-17.06375 16.53838,-18.75251 1.74069,-4.53065 -2.51965,-9.81925 -8.31163,-10.31769 -4.14991,-0.35714 -5.22611,0.50164 -20.18832,16.10944 -17.00304,17.73668 -18.27098,20.23147 -13.08685,25.74974 5.42735,5.77713 8.30315,4.30883 25.04842,-12.78898 z m -19.14826,-17.5485 c 13.78249,-14.4356 14.91675,-17.0983 9.56376,-22.45127 -3.00707,-3.00709 -7.57682,-3.95614 -10.05681,-2.08862 -5.52306,4.15907 -25.625,26.65501 -25.625,28.67675 0,4.47805 4.73749,9.09368 9.33378,9.09368 3.64593,0 5.69283,-1.61351 16.78427,-13.23054 z M 115.56924,432.8125 c 8.17719,-8.49118 9.53086,-11.70417 6.95715,-16.5132 -1.57667,-2.94601 -7.42581,-4.97909 -10.76793,-3.74276 -4.56264,1.68784 -16.746571,16.4195 -16.752841,20.25596 -0.0074,4.50836 4.051574,8.4375 8.716251,8.4375 2.95905,0 5.38724,-1.72933 11.84737,-8.4375 z m 69.27131,-216.25 c -1.55484,-1.98258 -1.51063,-2.02679 0.47195,-0.47195 1.20312,0.94356 2.1875,1.92794 2.1875,2.1875 0,1.0288 -1.02649,0.36664 -2.65945,-1.71555 z m 225,-7.5 c -1.55484,-1.98258 -1.51063,-2.02679 0.47195,-0.47195 1.20312,0.94356 2.1875,1.92794 2.1875,2.1875 0,1.0288 -1.02649,0.36664 -2.65945,-1.71555 z m 114.00814,-2.29166 c 0.06,-1.45619 0.35617,-1.75238 0.7552,-0.75522 0.36108,0.90234 0.31668,1.98047 -0.0986,2.39584 -0.41536,0.41537 -0.7108,-0.32292 -0.65652,-1.64062 z m -106.89333,-1.40443 c -0.67835,-1.7815 -0.53477,-1.92507 0.69975,-0.69975 0.85428,0.84793 1.23834,1.85655 0.85348,2.24142 -0.38487,0.38486 -1.08382,-0.30889 -1.55323,-1.54167 z m -13.05527,-2.08165 c -2.32971,-2.47986 -2.47424,-3.08477 -0.88293,-3.69541 1.04653,-0.40159 2.28895,-0.10538 2.76094,0.65837 0.51966,0.84083 0.28891,1.03673 -0.58496,0.49664 -1.9943,-1.23253 -1.8126,0.31475 0.28305,2.4104 0.94941,0.9494 2.16459,1.3311 2.70041,0.84822 0.53581,-0.48289 0.56959,-0.17485 0.075,0.68452 -1.16921,2.03173 -1.10585,2.05215 -4.35155,-1.40274 z M 521.25,204.97551 c 0,-0.75517 -0.46875,-1.08335 -1.04166,-0.72927 -0.57293,0.35408 -1.04168,-0.17521 -1.04168,-1.17623 0,-1.001 0.27638,-1.54364 0.61417,-1.20586 0.33778,0.33779 1.30333,0.0421 2.14568,-0.6569 2.22516,-1.84672 3.21345,1.50755 1.04186,3.53611 -1.10735,1.03443 -1.71837,1.11698 -1.71837,0.23215 z M 75,202.5 c -1.126615,-0.72808 -1.280791,-1.21936 -0.386271,-1.23086 0.818801,-0.01 1.836372,0.54336 2.261271,1.23086 0.959131,1.55191 0.526404,1.55191 -1.875,0 z m 444.69529,-3.33045 c 0.86366,-0.34819 1.19862,-1.23444 0.74436,-1.96945 -0.49228,-0.79651 -0.2347,-0.97098 0.6376,-0.43186 1.7209,1.06357 0.68757,3.27567 -1.46352,3.13307 -1.06555,-0.0706 -1.04237,-0.27864 0.0815,-0.73176 z M 72.933993,196.46106 c 1.139303,-1.25891 1.648359,-2.75535 1.131235,-3.32541 -0.517125,-0.57005 -0.20046,-0.60919 0.703701,-0.087 1.309314,0.75624 1.206272,1.43311 -0.506235,3.32541 -1.182589,1.30674 -2.431413,2.3759 -2.775163,2.3759 -0.34375,0 0.307158,-1.03002 1.446462,-2.28894 z M 201.39939,196.875 c 1.11341,-1.375 1.77133,-3.1981 1.46206,-4.05134 -0.80025,-2.20765 2.61071,-5.22689 5.64667,-4.99819 1.41278,0.10638 2.30839,0.61465 1.99025,1.12942 -0.31813,0.51476 -1.36103,0.63561 -2.31753,0.26857 -1.66712,-0.63974 -4.96972,3.571 -3.7542,4.78651 0.32378,0.32378 -0.68039,1.66337 -2.23148,2.97685 -2.7976,2.36907 -2.80396,2.36818 -0.79577,-0.11187 z M 397.5,198.27079 c 0,-0.26357 1.12577,-0.7736 2.50172,-1.13343 1.37595,-0.35981 2.1865,-0.14417 1.80123,0.47921 -0.67281,1.08864 -4.30295,1.64055 -4.30295,0.65422 z m 6.66666,-2.43745 c 0,-0.91668 0.74108,-1.66668 1.64683,-1.66668 1.23062,0 1.29725,0.42121 0.26361,1.66668 -0.76076,0.91666 -1.50184,1.66666 -1.64683,1.66666 -0.14498,0 -0.26361,-0.75 -0.26361,-1.66666 z m -9.47916,-1.20762 c -1.89063,-0.74708 -3.4375,-1.84543 -3.4375,-2.4408 0,-0.59536 0.5441,-0.74618 1.20911,-0.33518 0.66501,0.411 1.92533,-0.39957 2.80069,-1.80124 1.87501,-3.00238 3.4902,-3.31405 3.4902,-0.6735 0,1.03125 -0.84375,1.875 -1.875,1.875 -2.48766,0 -2.3704,1.22334 0.3125,3.25994 2.55619,1.94042 2.16361,1.95861 -2.5,0.11575 z m -195.34177,-4.99669 0.0292,-5.16843 5.43043,-0.18946 c 3.38218,-0.118 4.7966,0.2087 3.75,0.86616 -0.92423,0.5806 -2.73525,0.72696 -4.02447,0.32525 -1.68788,-0.52594 -2.06787,-0.28352 -1.35744,0.86595 0.69481,1.12425 0.39145,1.36798 -1.02584,0.82411 -1.62211,-0.62246 -1.92237,-0.0608 -1.54813,2.89633 0.25536,2.01771 0.0711,3.91156 -0.4094,4.20853 -0.48053,0.29699 -0.86052,-1.78581 -0.84443,-4.62845 z m 317.96424,3.11265 c -1.05006,-1.49918 -2.28063,-2.35435 -2.73458,-1.90039 -0.45396,0.45396 -0.82539,0.22931 -0.82539,-0.49921 0,-0.72854 0.96722,-1.69577 2.1494,-2.14941 1.18216,-0.45364 1.75341,-0.42882 1.26942,0.0551 -0.48397,0.48399 0.0325,1.54714 1.1476,2.36256 1.11517,0.81544 1.77449,2.24185 1.46517,3.16983 -0.40385,1.21155 -1.10068,0.91875 -2.47162,-1.03855 z M 381.9873,191.3741 c -2.51265,-2.77645 -1.4922,-3.73181 4.85389,-4.54431 4.96346,-0.63549 5.6785,0.52591 1.81086,2.94128 -2.02849,1.26682 -2.9941,1.29368 -4.40521,0.12263 -0.99399,-0.82494 -2.12464,-1.1825 -2.51255,-0.79459 -0.38793,0.38791 0.8913,1.57055 2.8427,2.62808 2.13082,1.15476 2.75163,1.94277 1.55425,1.97282 -1.09658,0.0275 -2.96134,-1.01911 -4.14394,-2.32585 z M 387.5,188.75 c 0,-0.6875 -0.5957,-1.25 -1.32377,-1.25 -0.72808,0 -0.97613,0.5625 -0.55123,1.25 0.4249,0.6875 1.0206,1.25 1.32377,1.25 0.30318,0 0.55123,-0.5625 0.55123,-1.25 z m 121.69485,3.4585 c -0.38235,-0.61865 -0.35761,-1.4624 0.055,-1.875 0.4126,-0.41259 0.75879,0.0468 0.76931,1.02066 0.0156,1.44665 0.21263,1.46561 1.07605,0.1035 0.86979,-1.37211 1.17726,-1.35366 1.73669,0.10413 0.74339,1.93726 -2.48468,2.5112 -3.63703,0.64663 z m 1.31987,-5.65386 c 0.37302,-1.1988 0.10513,-3.02339 -0.59538,-4.05464 -1.04698,-1.54139 -1.2087,-1.43019 -0.90897,0.625 0.32553,2.23194 -0.30553,2.48341 -5.88537,2.34527 -49.17279,-1.21731 -67.91301,-2.11561 -70.51705,-3.38016 -2.35397,-1.14312 -3.13234,-1.12172 -3.54166,0.0974 -0.62355,1.85717 -10.31629,2.15078 -10.31629,0.31251 0,-0.76356 -5.80971,-1.25 -14.92913,-1.25 -12.97585,0 -15.14282,-0.29621 -16.5625,-2.26401 -0.89835,-1.2452 -2.47712,-2.74814 -3.50837,-3.33986 -1.32981,-0.76304 -1.23645,-0.34595 0.3211,1.43443 2.11969,2.42295 2.08144,2.56255 -1.09902,4.01168 -3.47299,1.5824 -5.0047,1.18535 -3.68222,-0.95448 0.43462,-0.70322 1.70822,-0.9263 2.83023,-0.49575 1.42875,0.54827 1.74904,0.312 1.0689,-0.78848 -0.53694,-0.86878 -2.16554,-1.27099 -3.64256,-0.89959 -2.443,0.61429 -2.48538,0.53237 -0.49557,-0.9579 2.04273,-1.52991 2.01045,-1.7747 -0.52736,-4.00034 -1.48677,-1.30389 -2.28946,-1.66331 -1.78374,-0.79871 0.72727,1.24332 0.25769,1.27044 -2.24593,0.12971 -1.74099,-0.79325 -2.81492,-2.00942 -2.38649,-2.70263 0.42985,-0.69551 0.15989,-0.87774 -0.60238,-0.40665 -1.74465,1.07825 -10.50655,-3.51536 -9.28441,-4.86754 0.49745,-0.55038 0.19629,-0.59295 -0.66924,-0.0946 -2.13303,1.22815 -6.78668,-0.36316 -5.78792,-1.97919 0.50477,-0.81675 -0.14119,-0.9953 -1.75165,-0.48416 -3.76451,1.19481 -4.13261,-0.50109 -2.25154,-10.37334 0.93465,-4.90522 1.62409,-8.95179 1.53208,-8.99236 -0.092,-0.0406 -2.2842,-0.23564 -4.87155,-0.43345 -2.58735,-0.19781 -4.98619,-0.64158 -5.33075,-0.98612 -0.34455,-0.34457 0.83608,-3.24327 2.62365,-6.44157 1.78756,-3.1983 2.78015,-5.809 2.20573,-5.80156 -0.5744,0.007 -3.85686,0.88019 -7.29436,1.93941 -3.4375,1.05924 -13.84375,3.90549 -23.125,6.32499 -19.99447,5.21231 -18.28364,4.7585 -29.83924,7.91506 -5.06783,1.38435 -9.66042,2.24124 -10.20573,1.90422 -0.54533,-0.33703 -1.18017,-0.16084 -1.41077,0.39153 -0.71143,1.70419 -16.57938,9.8868 -18.14713,9.35792 -0.81283,-0.27422 -2.12662,0.71362 -2.91953,2.1952 -0.95766,1.78941 -2.2456,2.48351 -3.83635,2.06752 -1.31709,-0.34443 -2.07654,-0.11138 -1.68767,0.51777 0.77967,1.26154 -4.50079,3.67007 -6.04705,2.75818 -0.53265,-0.31414 -0.88792,-0.1075 -0.78948,0.45926 0.4485,2.58178 -0.27921,3.07766 -2.19532,1.49596 -1.54575,-1.27596 -2.20704,-1.33317 -2.58077,-0.22327 -0.27636,0.82076 -1.30666,1.18369 -2.28953,0.80652 -0.98289,-0.37717 -1.55035,-1.06878 -1.26103,-1.53692 0.28934,-0.46814 -0.53086,-0.85116 -1.82265,-0.85116 -1.29179,0 -2.09911,0.24958 -1.79407,0.55463 0.30505,0.30504 -0.0831,1.3231 -0.86265,2.26235 -0.7795,0.93924 -1.05588,2.06913 -0.61415,2.51084 0.44171,0.44173 0.80312,0.11363 0.80312,-0.72897 0,-0.84267 0.64941,-1.13075 1.44314,-0.6402 0.9602,0.59343 1.10074,0.3379 0.41994,-0.76365 -0.75254,-1.21765 -0.44595,-1.43405 1.1591,-0.81814 1.20026,0.46059 2.41753,0.83742 2.70506,0.83742 0.28751,0 0.52276,0.84375 0.52276,1.875 0,1.03125 -0.70312,1.73438 -1.5625,1.5625 -0.85937,-0.17187 -1.39014,0.48584 -1.17947,1.46159 0.3072,1.42284 0.0199,1.4727 -1.45122,0.2518 -1.42665,-1.18401 -2.04077,-1.18811 -2.76366,-0.0185 -0.58922,0.95339 -0.4012,1.17738 0.51371,0.61193 0.79373,-0.49055 1.44314,-0.38479 1.44314,0.23502 0,0.61981 -1.93434,2.16865 -4.29854,3.44185 -2.3642,1.27321 -4.05492,2.70909 -3.75718,3.19086 0.44598,0.72163 -2.23094,2.38791 -3.83624,2.38791 -0.24061,0 -0.2696,-1.54688 -0.0644,-3.4375 0.20522,-1.89063 0.16072,-4 -0.0989,-4.6875 -0.45944,-1.21677 -37.71199,-1.34983 -52.94476,-0.18913 -5.64104,0.42984 -5.97758,0.35925 -1.875,-0.39326 l 5,-0.91713 -5.3125,-0.18775 C 161.14062,172.58449 158.75,171.9375 158.75,171.25 c 0,-0.6875 -2.25,-1.25 -5,-1.25 -2.75,0 -5,0.58229 -5,1.29397 0,0.87448 -0.81586,0.85735 -2.51656,-0.0529 -1.50089,-0.80325 -3.29773,-0.90966 -4.45207,-0.26366 -1.06453,0.59573 -5.10299,0.65332 -8.97436,0.12797 -3.87137,-0.52536 -7.5172,-0.65956 -8.10185,-0.29822 -2.5908,1.6012 -19.44346,0.6423 -23.24297,-1.3225 -2.994159,-1.54834 -3.983655,-1.65934 -4.050046,-0.45433 -0.04832,0.87706 -0.571287,0.46964 -1.162144,-0.90536 -0.590857,-1.375 -1.113822,-1.79688 -1.162144,-0.9375 -0.04833,0.85937 -0.632702,1.5625 -1.298625,1.5625 -0.665924,0 -0.886992,-0.84375 -0.491264,-1.875 0.395728,-1.03125 0.09682,-1.875 -0.664231,-1.875 -0.761055,0 -1.383736,0.5625 -1.383736,1.25 0,0.6875 -0.703125,1.22978 -1.5625,1.20505 -0.859375,-0.0248 0.103012,-1.40609 2.13865,-3.06969 2.035633,-1.6636 3.301258,-3.42462 2.8125,-3.91337 -0.488758,-0.48877 -0.88865,-0.2324 -0.88865,0.56967 0,0.80209 -0.597451,1.45834 -1.32767,1.45834 -0.730217,0 0.485519,-2.52483 2.701639,-5.61071 3.029769,-4.21888 4.422788,-5.28415 5.615491,-4.29429 1.17714,0.97693 1.94882,0.5703 2.99232,-1.57679 1.28855,-2.65126 1.25361,-2.70402 -0.41782,-0.63091 -1.13959,1.41346 -2.12751,1.77114 -2.63298,0.95327 -0.864966,-1.39953 0.1743,-2.9662 6.38152,-9.61987 2.16562,-2.32139 3.60726,-4.2207 3.20364,-4.2207 -0.40363,0 0.85739,-1.66091 2.80225,-3.69091 1.94487,-2.03 3.87823,-3.57688 4.29637,-3.4375 0.41813,0.13937 0.9199,-0.30909 1.11503,-0.99659 0.64772,-2.28205 11.99313,-13.15496 23.39521,-22.42086 15.54715,-12.634399 30.32759,-22.003101 48.3913,-30.673225 84.19687,-40.412376 183.51949,-29.885803 257.8587,27.328805 19.55316,15.04895 50.92949,49.11379 48.64389,52.81198 -0.53039,0.85817 -0.36628,1.13152 0.39634,0.6602 0.71583,-0.4424 1.99661,0.0333 2.8462,1.05686 0.84957,1.02368 1.09651,1.86124 0.54873,1.86124 -0.54777,0 0.28604,1.36461 1.8529,3.03246 1.56688,1.66787 2.4995,3.59774 2.07251,4.28863 -0.427,0.6909 -0.11775,1.6632 0.68718,2.16067 0.97567,0.603 1.12642,0.35909 0.45225,-0.73176 -0.65496,-1.05975 -0.52204,-1.33391 0.37728,-0.7781 0.7637,0.47199 1.04223,1.82453 0.61897,3.00564 -0.42326,1.1811 -0.32906,1.7497 0.20933,1.26355 0.5384,-0.48615 2.19917,0.9201 3.69061,3.125 4.74874,7.02044 4.96832,7.83327 1.25181,4.63391 -2.3747,-2.04427 -2.92782,-2.26041 -1.59941,-0.625 3.23213,3.97908 3.9521,7.71336 1.65692,8.5941 -1.47326,0.56535 -1.81687,0.19596 -1.31579,-1.41446 z M 225,176.04249 c 0,-0.65452 0.70312,-0.7854 1.5625,-0.29085 0.85937,0.49455 1.14152,0.43489 0.627,-0.13257 -0.51453,-0.56746 -2.47768,-1.19616 -4.36256,-1.39712 -2.54634,-0.27149 -2.9484,-0.0627 -1.5645,0.81219 1.35796,0.85855 1.41926,1.18276 0.22628,1.19672 -0.89995,0.01 -1.30381,0.55708 -0.89746,1.21455 0.87999,1.42385 4.40874,0.30095 4.40874,-1.40292 z M 377.5,168.75 c -1.03125,-0.66645 -2.4375,-1.21171 -3.125,-1.21171 -0.6875,0 -0.40625,0.54526 0.625,1.21171 1.03125,0.66645 2.4375,1.21171 3.125,1.21171 0.6875,0 0.40625,-0.54526 -0.625,-1.21171 z m -11.09489,-4.08334 c -1.23452,-1.22532 -1.3781,-1.08175 -0.69975,0.69975 0.46942,1.23278 1.16837,1.92653 1.55323,1.54166 0.38486,-0.38486 8e-4,-1.39348 -0.85348,-2.24141 z m 11.52675,1.27084 C 377.61319,165.42187 376.29385,165 375,165 c -1.29385,0 -2.61319,0.42187 -2.93186,0.9375 -0.31868,0.51562 1.00066,0.9375 2.93186,0.9375 1.9312,0 3.25054,-0.42188 2.93186,-0.9375 z M 502.5,166.94877 c 0,-0.30317 -0.5625,-0.89887 -1.25,-1.32377 -0.6875,-0.4249 -1.25,-0.17685 -1.25,0.55122 0,0.72808 0.5625,1.32378 1.25,1.32378 0.6875,0 1.25,-0.24805 1.25,-0.55123 z m -404.194734,-3.76 c -0.09915,-1.68366 -0.620581,-2.62147 -1.158745,-2.08401 -0.538162,0.53745 -0.618606,1.915 -0.178764,3.06121 1.117889,2.91318 1.548093,2.59887 1.337509,-0.9772 z m 397.126084,-3.86768 c -0.40711,-1.0609 -1.00829,-1.66083 -1.33594,-1.33317 -0.32766,0.32767 -0.22497,1.19568 0.22819,1.92892 1.23256,1.99432 1.95297,1.60688 1.10775,-0.59575 z m -244.85974,-1.73472 c 0.39555,-0.63999 0.24124,-1.45899 -0.34289,-1.82001 -0.58413,-0.36101 -1.06206,0.16261 -1.06206,1.16363 0,2.10771 0.39418,2.29186 1.40495,0.65638 z M 265.625,151.25 c 0.4249,-0.6875 0.17685,-1.25 -0.55123,-1.25 -0.72807,0 -1.32377,0.5625 -1.32377,1.25 0,0.6875 0.24805,1.25 0.55122,1.25 0.30318,0 0.89888,-0.5625 1.32378,-1.25 z M 377.5,186.17622 c 0,-0.72807 -0.52364,-1.00015 -1.16363,-0.60461 -0.64,0.39555 -1.57066,0.0606 -2.06813,-0.74436 -0.5649,-0.91403 -0.36268,-1.12865 0.53862,-0.57161 0.91735,0.56695 1.44314,-0.0727 1.44314,-1.75564 0,-1.45615 -0.5625,-2.2999 -1.25,-1.875 -0.6875,0.4249 -1.22977,-0.24503 -1.20505,-1.48873 0.0361,-1.8195 0.61979,-1.55838 2.98725,1.33651 2.86625,3.50476 3.0428,3.54763 6.83005,1.65829 2.13826,-1.0667 3.88775,-1.42007 3.88775,-0.78527 0,0.63481 -0.5957,1.1542 -1.32377,1.1542 -0.72808,0 -1.01256,0.50356 -0.63218,1.11902 0.38038,0.61545 -0.17814,1.45277 -1.24115,1.86068 -1.10675,0.4247 -1.60636,0.21357 -1.16905,-0.49401 0.42002,-0.67963 0.15034,-1.23569 -0.59931,-1.23569 -0.74965,0 -1.68678,0.84375 -2.0825,1.875 -0.82223,2.14266 -2.95204,2.54036 -2.95204,0.55122 z m -165.18635,-1.48987 c 0.94603,-0.94603 1.85797,-1.01473 2.67146,-0.20124 0.81349,0.81349 0.32316,1.30381 -1.43635,1.43635 -2.01204,0.15156 -2.31691,-0.15331 -1.23511,-1.23511 z M 514.375,185 c -0.4249,-0.6875 -0.17685,-1.25 0.55123,-1.25 0.72807,0 1.32377,0.5625 1.32377,1.25 0,0.6875 -0.24805,1.25 -0.55123,1.25 -0.30317,0 -0.89887,-0.5625 -1.32377,-1.25 z M 84.065228,183.11435 c 0.517125,-0.57006 -0.04538,-2.16319 -1.25,-3.54028 -1.333278,-1.52417 -1.495771,-2.09497 -0.415304,-1.45888 1.317908,0.77587 1.573357,0.51965 0.992092,-0.9951 -1.039327,-2.70844 0.73617,-3.66655 3.275509,-1.76755 1.531587,1.14537 1.702796,1.98687 0.691237,3.39746 -1.134121,1.5815 -1.234443,1.53259 -0.640908,-0.3125 0.387026,-1.20313 0.21902,-2.1875 -0.373349,-2.1875 -1.717536,0 -2.521045,3.32346 -1.137909,4.7066 0.848313,0.84831 0.714021,1.57765 -0.410181,2.22772 -0.919278,0.53157 -1.248313,0.50008 -0.731188,-0.07 z m 284.778582,-1.79359 -2.99385,-2.25826 3.63753,0.0246 c 2.00062,0.0135 2.87073,0.29258 1.93357,0.62006 -1.41336,0.49385 -1.41953,0.77116 -0.0362,1.62611 0.91725,0.56689 1.39438,1.30409 1.06026,1.63819 -0.33411,0.33411 -1.9547,-0.40874 -3.60131,-1.65078 z m -283.338175,-9.0139 c -0.552599,-0.89412 -0.342895,-1.10382 0.55123,-0.55122 0.85513,0.5285 1.443135,0.0979 1.443135,-1.05687 0,-1.07182 0.93093,-1.94877 2.068735,-1.94877 1.8604,0 1.84089,0.25176 -0.193735,2.5 -2.647289,2.92522 -2.704926,2.94096 -3.869365,1.05686 z M 91.25,172.64754 c 0,-0.6875 0.5625,-1.59764 1.25,-2.02254 0.6875,-0.4249 1.25,-0.21004 1.25,0.47746 0,0.6875 -0.5625,1.59764 -1.25,2.02254 -0.6875,0.4249 -1.25,0.21004 -1.25,-0.47746 z M 237.5,168.75 c 0,-0.6875 0.5957,-1.25 1.32377,-1.25 0.72808,0 0.97613,0.5625 0.55123,1.25 -0.4249,0.6875 -1.0206,1.25 -1.32378,1.25 -0.30317,0 -0.55122,-0.5625 -0.55122,-1.25 z"
       id="path4150"
       inkscape:connector-curvature="0" />
    <path
       style="fill-opacity:1"
       d="M 256.875,571.31809 C 227.37282,566.69607 204.49532,559.62686 178.125,546.98414 149.35489,533.19087 126.23556,517.03119 104.07526,495.22565 60.748224,452.59224 33.625154,399.06326 24.155867,337.5 21.117661,317.74752 21.136988,278.39254 24.194232,259.375 33.900221,198.99907 59.932127,146.6232 100.625,105.59724 c 52.65701,-53.088036 122.04262,-82.125 196.25,-82.128039 31.7453,-0.0013 56.4753,3.989867 87.16019,14.066758 C 496.0177,74.310923 572.5,180.20619 572.5,298.47911 c 0,104.31134 -59.00627,199.97444 -151.94395,246.33701 -24.6947,12.31912 -47.09114,19.77437 -76.18105,25.35889 -20.09454,3.85764 -66.31858,4.4615 -87.5,1.14308 z m 56.25,-12.56867 c 114.0188,-7.20806 208.91309,-86.4247 237.33492,-198.12442 3.95534,-15.54471 5.98707,-31.9567 6.66272,-53.82049 0.99164,-32.08832 -2.26869,-57.30687 -10.985,-84.96895 C 518.89084,135.36524 450.04231,69.491145 362.5,46.13155 331.52064,37.865088 285.44056,36.056646 252.5,41.814534 181.93124,54.149687 120.04841,94.586255 79.598877,154.79462 70.398472,168.48926 55.140811,199.54376 50.08668,214.86193 40.065731,245.23363 36.967301,265.04565 36.967301,298.75 c 0,44.46902 7.034364,75.29951 26.117658,114.46954 C 103.69516,496.5753 187.21131,552.91286 278.75,558.70089 c 7.90625,0.49991 14.65625,0.98204 15,1.0714 0.34375,0.0894 9.0625,-0.37093 19.375,-1.02287 z m 118.75,-52.92848 c -4.07195,-1.84635 -25.37492,-21.22316 -30.9375,-28.14019 -5.5667,-6.92216 -4.39776,-12.58273 4.61919,-22.36825 2.05889,-2.23438 4.74465,-4.0625 5.96837,-4.0625 1.41521,0 2.22494,-0.93974 2.22494,-2.58218 0,-3.36158 1.84973,-6.82928 7.12392,-13.35532 3.85703,-4.77249 4.84418,-5.3125 9.71129,-5.3125 4.86414,0 5.68098,-0.44598 7.99248,-4.36368 3.80877,-6.45538 9.41615,-9.37608 18.01161,-9.38165 6.48005,-0.004 7.35921,-0.32272 8.63814,-3.12967 0.78312,-1.71875 1.85588,-3.125 2.38392,-3.125 0.52804,0 1.75196,-0.7919 2.71984,-1.75978 2.83117,-2.83117 10.47346,-4.44343 14.96132,-3.15633 4.41615,1.26653 18.81254,14.73806 21.79332,20.39325 4.16323,7.89858 -1.00085,19.19907 -10.58837,23.17036 -2.97737,1.23326 -3.81863,2.47332 -4.34618,6.40649 -0.82129,6.12317 -5.18625,11.7202 -11.04138,14.15796 -3.81732,1.58932 -4.63596,2.63571 -5.29721,6.77092 -1.34568,8.41539 -8.9683,15.15435 -17.33505,15.32547 -2.0712,0.0424 -3.54368,1.46531 -5.37523,5.19445 -4.4299,9.01953 -13.29942,12.91297 -21.22742,9.31815 z m 12.55681,-10.13913 c 1.6875,-1.6875 3.06819,-4.3028 3.06819,-5.8118 0,-3.3407 -25.40599,-29.61055 -29.67244,-30.68136 -5.76722,-1.44748 -13.16324,6.94987 -10.4272,11.83892 0.64009,1.14375 6.97123,7.84519 14.06921,14.89208 14.26643,14.16371 17.27965,15.44476 22.96224,9.76216 z m 20.88664,-15.36931 c 3.91011,-4.37309 3.24827,-9.39185 -1.90385,-14.43696 -31.49086,-30.83675 -31.98596,-31.16782 -37.84641,-25.30735 -5.97593,5.97591 -4.67263,8.59281 12.97672,26.05607 14.422,14.26993 16.4886,15.87574 20.43128,15.87574 2.59902,0 5.18332,-0.89135 6.34226,-2.1875 z m 14.78987,-19.41475 c 3.42707,-2.63123 4.99034,-6.73126 3.76648,-9.87841 -0.61906,-1.59189 -6.72785,-8.37872 -13.57509,-15.08184 -13.72189,-13.43309 -16.69726,-14.65359 -22.23152,-9.11931 -5.3878,5.3878 -4.25182,7.83472 10.36931,22.33562 13.78437,13.67103 16.93619,15.37908 21.67082,11.74394 z m 17.48783,-22.0516 c 2.00962,-2.00961 3.65385,-4.64066 3.65385,-5.84678 0,-3.40579 -17.72796,-20.49937 -21.26016,-20.49937 -4.33174,0 -8.73984,4.69895 -8.73984,9.3165 0,3.11305 1.54544,5.39024 7.8125,11.51164 10.74227,10.49258 12.91284,11.13883 18.53365,5.51801 z m -346.56693,63.9308 c -3.59101,-2.36831 -7.649,-7.1507 -8.83351,-10.41039 -0.44026,-1.21157 -2.74279,-2.27842 -5.80337,-2.68893 C 128.34942,488.59884 120,479.95574 120,472.7087 c 0,-1.36271 -1.58154,-2.77837 -4.13578,-3.702 -6.1121,-2.21016 -10.9504,-7.8756 -11.73754,-13.74415 -0.58722,-4.37807 -1.30022,-5.29932 -5.603116,-7.23966 -8.990126,-4.05398 -13.956843,-13.43279 -11.096985,-20.95478 1.645371,-4.32765 14.498871,-18.38832 19.316471,-21.13061 6.31464,-3.59445 10.81626,-2.8477 16.65514,2.76281 2.83348,2.72268 5.53228,6.1491 5.99731,7.61428 0.6522,2.05491 1.46097,2.46515 3.5375,1.79435 9.87765,-3.19083 17.08434,-1.19708 22.81076,6.31066 2.57428,3.37505 4.1994,4.3304 7.36631,4.3304 5.34608,0 16.88993,8.91088 16.88993,13.0376 0,2.84485 3.467,6.9624 5.86237,6.9624 0.7098,0 3.89988,2.42994 7.08908,5.39986 5.13974,4.78634 5.79855,6.00285 5.79855,10.70718 0,7.11355 -0.85571,8.4394 -13.48409,20.89228 -19.09402,18.82868 -19.65631,19.25164 -25.58201,19.24244 -2.9639,-0.005 -6.78676,-0.98291 -8.65468,-2.21481 z M 170.92616,488.4375 C 181.84079,477.92563 190,468.07797 190,465.4166 c 0,-2.89031 -6.97913,-9.1666 -10.1931,-9.1666 -4.16729,0 -29.7241,26.88854 -29.7722,31.32359 -0.0514,4.73451 4.94171,9.77981 9.78602,9.8884 0.93265,0.0209 5.93011,-4.04012 11.10544,-9.02449 z m -14.27655,-22.90033 c 8.37396,-8.64206 15.74051,-17.03597 16.37013,-18.65313 2.09016,-5.36869 -4.90099,-12.46557 -10.76837,-10.9312 -1.21927,0.31883 -9.25588,7.84498 -17.85912,16.72475 C 131.50216,465.982 128.75,469.47603 128.75,472.53631 c 0,4.81568 3.95322,8.71369 8.83711,8.71369 3.27185,0 6.0801,-2.31479 19.0625,-15.71283 z m -19.21895,-17.46161 c 13.68228,-14.06302 15.03121,-17.16889 9.85145,-22.6825 -5.26131,-5.6004 -8.58254,-4.13787 -21.97315,9.6761 -6.70118,6.91304 -12.69909,13.9007 -13.3287,15.52813 -2.07498,5.36353 4.88836,12.48753 10.71628,10.9635 1.19063,-0.31135 7.82098,-6.3797 14.73412,-13.48523 z M 115.824,432.8125 c 9.69195,-10.3774 10.47173,-15.78545 2.84477,-19.7295 -4.94841,-2.55892 -8.08835,-1.01921 -16.54179,8.11151 C 96.815918,426.93109 95,429.82982 95,432.57125 c 0,4.84543 3.962809,8.67875 8.97191,8.67875 3.29196,0 5.32089,-1.4444 11.85209,-8.4375 z"
       id="path4148"
       inkscape:connector-curvature="0" />
    <path
       style="fill-opacity:1"
       d="M 268.75,572.8809 C 154.3153,560.61329 59.09018,478.71985 30.609445,368.08044 23.94223,342.18024 21.990179,326.4786 21.990179,298.75 c 0,-27.70836 1.94763,-43.3915 8.609887,-69.33044 C 50.332627,152.59249 102.34798,88.333355 173.85134,52.448666 232.19966,23.165967 300.64367,15.705134 363.97205,31.724296 443.24087,51.775659 507.62223,103.7476 543.78057,176.875 c 37.83605,76.5204 38.08769,165.9283 0.68249,242.5 -27.28524,55.85527 -70.38672,98.94439 -126.33806,126.30178 -41.04296,20.06795 -77.26964,28.28556 -122.87653,27.87317 -12.16791,-0.11 -24.09222,-0.4111 -26.49847,-0.66905 z m 55,-14.84154 c 42.99164,-3.42597 90.5451,-21.93519 128.18957,-49.89517 59.08968,-43.88814 96.02744,-108.22153 104.39623,-181.8237 1.852,-16.28809 0.8646,-53.75303 -1.84674,-70.07049 C 545.41322,201.62954 517.52054,148.92176 477.60887,110.97238 439.52818,74.763929 393.57591,50.98408 345.08339,42.391722 309.90192,36.157942 266.88616,37.26188 235,45.216854 135.85728,69.95103 59.255889,150.99512 40.66592,250.82186 c -6.766058,36.33323 -5.402841,77.76409 3.716684,112.95749 6.381382,24.62655 21.499336,58.50861 35.216273,78.92602 35.277783,52.51033 87.318593,90.30037 147.654713,107.22117 30.8096,8.64031 59.55269,11.05685 96.49641,8.11282 z m 109.11604,-52.12559 c -4.26439,-1.63681 -26.17164,-20.98571 -31.92854,-28.19988 -5.56196,-6.9699 -4.39776,-12.61587 4.61919,-22.40139 2.05889,-2.23438 4.74465,-4.0625 5.96837,-4.0625 1.41521,0 2.22494,-0.93974 2.22494,-2.58218 0,-3.36158 1.84973,-6.82928 7.12392,-13.35532 3.87683,-4.79699 4.82805,-5.3125 9.80267,-5.3125 4.77698,0 5.75112,-0.46781 7.32932,-3.51973 1.00108,-1.93583 4.06263,-5.07377 6.80346,-6.97317 4.14924,-2.87543 6.08054,-3.39521 11.53868,-3.10553 5.77941,0.30676 6.79039,-0.0145 8.54115,-2.71432 1.09219,-1.68424 2.41772,-3.2531 2.94562,-3.48636 0.5279,-0.23325 1.7015,-1.16578 2.60799,-2.07228 2.51984,-2.51984 9.69896,-4.03212 14.39181,-3.03165 4.54473,0.96891 17.08082,12.35858 21.61972,19.6426 3.80697,6.10942 2.37121,13.83761 -3.53404,19.02249 -2.44641,2.14799 -5.72185,4.38972 -7.27874,4.98165 -2.13199,0.81059 -3.03484,2.43752 -3.65772,6.59121 -0.89152,5.94503 -6.12075,12.23043 -12.02573,14.4546 -2.43681,0.91785 -3.54587,2.67154 -4.81082,7.60711 -1.93185,7.53769 -7.3281,12.45553 -14.78799,13.47694 -4.01288,0.54945 -5.08203,1.3867 -7.0162,5.49443 -4.0353,8.57002 -12.6078,12.56627 -20.47706,9.54578 z m 12.04323,-10.45735 c 1.42491,-1.81146 2.59073,-4.45641 2.59073,-5.87766 0,-3.72684 -27.33465,-30.82876 -31.0935,-30.82876 -1.56684,0 -4.55046,1.70166 -6.63026,3.78146 -5.57595,5.57594 -4.24164,8.33653 11.23591,23.2463 11.14012,10.73145 14.0235,12.88093 17.33462,12.92244 2.83877,0.0356 4.71082,-0.88974 6.5625,-3.24378 z m 20.61157,-15.51761 c 1.38728,-1.33175 2.39582,-3.99146 2.39582,-6.31824 0,-3.52131 -1.99694,-5.92506 -16.14582,-19.43493 -8.88022,-8.47915 -17.46043,-15.77543 -19.06715,-16.21395 -4.30655,-1.17542 -9.47708,3.11631 -9.9852,8.28806 -0.37264,3.79272 0.77337,5.33012 13.75,18.44605 19.52651,19.73611 22.65351,21.37569 29.05235,15.23301 z M 479.319,461.72352 c 2.74105,-1.05184 5.97446,-7.5797 5.10747,-10.31136 -0.38628,-1.21709 -6.52122,-7.93896 -13.6332,-14.93752 -14.2348,-14.00779 -17.13948,-15.24207 -22.72508,-9.65645 -5.67577,5.67575 -4.4093,8.44473 10.36931,22.67146 13.07809,12.58971 15.7994,14.18405 20.8815,12.23387 z m 17.31354,-21.75613 c 6.90748,-5.43343 5.22207,-10.94756 -6.43207,-21.04371 -8.17358,-7.0809 -11.61848,-7.87593 -16.05741,-3.70579 -5.38159,5.05575 -4.02897,9.52532 5.7354,18.95204 4.74565,4.58153 9.7323,8.33007 11.08143,8.33007 1.34913,0 3.90182,-1.13967 5.67265,-2.53261 z m -346.25653,62.50389 c -2.19944,-1.44999 -5.01194,-4.78632 -6.25,-7.41405 -2.00011,-4.24517 -2.85507,-4.84717 -7.67052,-5.40098 -6.87582,-0.79076 -13.54116,-6.87982 -15.49664,-14.15677 -1.13531,-4.22485 -2.27411,-5.54279 -6.4806,-7.5 -5.79517,-2.69642 -10.72825,-9.24634 -10.72825,-14.24449 0,-2.73742 -0.95974,-3.80809 -5.078356,-5.66533 -10.33059,-4.65844 -14.524063,-14.12834 -10.066393,-22.7324 1.348455,-2.60274 6.068741,-8.29032 10.489524,-12.63906 6.516375,-6.41019 8.996375,-8.03538 13.102095,-8.58608 4.26277,-0.57176 5.76774,-0.118 9.50876,2.86705 2.44445,1.95048 5.45132,5.42015 6.68192,7.71039 1.75161,3.25989 2.7803,3.98664 4.73745,3.34693 9.62686,-3.14665 16.93302,-1.09129 22.61876,6.36311 2.57428,3.37505 4.1994,4.3304 7.36631,4.3304 5.34608,0 16.88993,8.91087 16.88993,13.0376 0,2.84485 3.467,6.9624 5.86237,6.9624 0.7098,0 3.89988,2.42994 7.08908,5.39986 5.23811,4.87795 5.79427,5.93508 5.75425,10.9375 -0.0244,3.0457 -0.72748,6.66665 -1.5625,8.04655 -0.83501,1.37989 -8.11809,8.91468 -16.18463,16.74396 -13.98115,13.56993 -14.94485,14.2583 -20.625,14.73242 -4.55082,0.37983 -6.90336,-0.12552 -9.95756,-2.13902 z m 23.65957,-17.15878 c 17.07966,-16.7392 18.76987,-20.69102 11.34696,-26.52989 -5.70808,-4.48997 -7.64758,-3.47561 -21.94504,11.47725 -14.82067,15.50008 -16.08767,18.45359 -10.36931,24.17195 5.11236,5.11238 7.51044,4.06939 20.96739,-9.11931 z M 157.1674,465.21547 c 8.41081,-8.71226 15.63053,-17.05371 16.04379,-18.53655 1.4436,-5.17981 -5.56296,-12.68791 -10.40595,-11.1508 -1.27445,0.40449 -9.45824,7.9526 -18.1862,16.77358 -14.26355,14.41554 -15.86904,16.48191 -15.86904,20.42449 0,6.04508 5.05761,10.30091 10.625,8.9406 1.375,-0.33597 9.38157,-7.73905 17.7924,-16.45131 z M 137.1875,448.21871 C 147.42805,437.96989 150,434.68226 150,431.841 c 0,-6.53397 -6.74215,-10.99236 -12.99471,-8.59303 -3.56013,1.36614 -25.75529,26.66263 -25.75529,29.35407 0,4.06633 6.87958,10.24644 10.30345,9.25585 1.55185,-0.44898 8.58717,-6.5866 15.63405,-13.63918 z m -21.25,-15.30952 c 8.52141,-8.93766 9.70355,-12.79688 5.50729,-17.97904 -4.18828,-5.17231 -9.27192,-3.89014 -17.71932,4.46913 -8.401066,8.31339 -10.47124,12.56508 -8.268907,16.98252 1.810041,3.63059 6.824697,6.28994 10.168437,5.3925 1.375,-0.36905 6.01563,-4.35835 10.3125,-8.86511 z"
       id="path4146"
       inkscape:connector-curvature="0" />
    <path
       style="fill-opacity:1"
       d="M 270,572.8813 C 216.67316,567.16953 166.27371,546.60505 125,513.71698 111.59093,503.03225 87.901385,478.78684 77.669031,465.2754 48.710591,427.03689 30.223532,381.62792 23.613036,332.5 21.563596,317.26896 21.555764,280.3201 23.598726,265 31.92865,202.53424 59.136713,147.20137 102.7474,104.03586 126.68086,80.346715 147.51031,65.494403 176.875,51.179639 215.15312,32.519734 253.08849,23.825217 296.44783,23.774404 362.95294,23.696463 422.9538,45.48695 474.93271,88.594679 542.46014,144.59726 579.77503,236.05411 571.17128,324.4704 558.64112,453.2364 460.37091,554.59775 331.25,571.93853 c -11.91795,1.60056 -49.68179,2.18183 -61.25,0.94277 z m 53.75,-14.84039 c 46.15905,-3.66962 96.28474,-24.14647 135.625,-55.40417 49.24846,-39.13024 83.97415,-97.34667 94.69187,-158.74775 3.99018,-22.85934 3.95463,-68.81942 -0.0704,-90.9475 C 539.14157,171.27299 485.47433,100.41164 411.32985,64.566745 377.57319,48.247201 350.57474,41.085744 314.16651,38.793742 251.12571,34.825145 192.24332,52.10492 141.875,89.354841 57.092242,152.05597 18.557779,259.25515 43.954779,361.75946 63.123994,439.12794 117.69679,504.1025 191.04266,536.88281 c 42.26426,18.88909 81.85349,25.20096 132.70734,21.1581 z m 109.17317,-52.17396 c -2.17349,-0.82058 -9.11922,-6.2732 -15.43492,-12.11695 -6.3157,-5.84375 -11.85893,-10.90625 -12.31829,-11.25 -3.46517,-2.5931 -7.66996,-9.52247 -7.66996,-12.63989 0,-5.9253 9.5596,-18.61011 14.02506,-18.61011 1.41521,0 2.22494,-0.93974 2.22494,-2.58218 0,-3.36158 1.84973,-6.82928 7.12392,-13.35532 4.00197,-4.95182 4.71209,-5.3125 10.45977,-5.3125 4.39355,0 6.16631,-0.49327 6.16631,-1.7158 0,-0.94369 2.5876,-4.10098 5.75024,-7.01617 5.6315,-5.19094 5.9023,-5.28939 13.11486,-4.76768 6.07456,0.43939 7.48045,0.16781 8.02577,-1.55037 2.00114,-6.30502 13.28041,-11.43293 20.92653,-9.51388 3.6266,0.91023 20.7145,17.73975 22.38941,22.05089 2.80149,7.21086 -1.4949,15.53195 -10.36975,20.08376 -3.88059,1.99031 -4.65689,3.12067 -5.35908,7.8033 -0.92216,6.14927 -6.54312,12.63434 -12.14662,14.01389 -2.60354,0.64097 -3.4515,1.77219 -4.04711,5.39896 -1.52994,9.31616 -9.08941,16.4631 -17.41338,16.4631 -2.27737,0 -3.46215,0.93344 -4.36304,3.4375 -1.66737,4.6344 -5.98128,8.97006 -11.0197,11.07525 -4.87925,2.03868 -4.93932,2.0393 -10.06495,0.10425 z m 11.9861,-10.41053 c 1.42491,-1.81146 2.59073,-4.45641 2.59073,-5.87766 0,-1.6263 -5.23443,-7.8185 -14.12234,-16.70642 -15.9272,-15.9272 -18.29227,-16.93078 -23.97739,-10.17443 -5.03884,5.98835 -3.69323,8.69453 11.54937,23.22688 11.2299,10.70662 14.07487,12.80186 17.39713,12.8125 2.81142,0.009 4.72867,-0.94952 6.5625,-3.28087 z m 20.18688,-15.36027 c 6.23362,-6.23361 5.41371,-7.82656 -13.3997,-26.03365 -18.38516,-17.79263 -20.76665,-19.0461 -26.30339,-13.84461 -1.81356,1.70376 -2.89306,4.15917 -2.89306,6.58053 0,3.28983 2.3635,6.20272 15.9375,19.64209 19.55481,19.36089 20.47966,19.83463 26.65865,13.65564 z m 17.31312,-20.88973 C 483.83418,457.39496 485,454.75121 485,453.33143 c 0,-1.61589 -5.04945,-7.63088 -13.5,-16.08143 -10.92869,-10.92869 -14.187,-13.5 -17.10694,-13.5 -4.88785,0 -9.39035,4.44353 -9.40357,9.28039 -0.009,3.25825 2.02489,5.79871 13.335,16.65711 11.3532,10.89978 13.95374,12.8125 17.41979,12.8125 2.91266,0 4.81291,-0.93903 6.665,-3.29358 z m 15.60462,-20.55233 c 1.77986,-2.11524 3.23611,-5.05393 3.23611,-6.5304 0,-3.78788 -16.58336,-19.62369 -20.55005,-19.62369 -4.68368,0 -6.8945,1.26692 -8.86695,5.08123 -2.5551,4.941 -1.08734,7.87934 8.54492,17.10627 9.49518,9.09561 12.71148,9.81901 17.63597,3.96659 z m -349.2767,61.81063 c -2.76102,-2.49441 -5.35487,-5.86941 -5.76411,-7.5 C 142.40109,490.68574 141.37859,490 138.55241,490 c -7.74806,0 -16.30649,-7.42438 -17.81253,-15.45225 -0.6722,-3.58316 -1.60364,-4.63894 -5.11497,-5.79778 -5.62402,-1.85609 -10.42952,-7.71286 -11.42224,-13.92098 -0.69346,-4.33663 -1.48263,-5.30032 -6.128955,-7.48435 -6.778965,-3.18649 -8.751141,-5.44258 -10.500105,-12.01169 -1.769542,-6.64641 -0.344356,-9.69771 9.491937,-20.32209 11.972833,-12.93209 17.950703,-14.36467 26.332643,-6.31055 2.83348,2.72268 5.53228,6.1491 5.99731,7.61428 0.6522,2.05491 1.46097,2.46515 3.5375,1.79435 9.87765,-3.19083 17.08434,-1.19708 22.81076,6.31066 2.57428,3.37505 4.1994,4.3304 7.36631,4.3304 5.34608,0 16.88993,8.91087 16.88993,13.0376 0,2.83121 3.46348,6.9624 5.83709,6.9624 0.69587,0 3.88595,2.47551 7.08907,5.50114 5.22215,4.9328 5.81926,6.0628 5.77954,10.9375 -0.0244,2.99 -0.72748,6.56828 -1.5625,7.95176 -2.10438,3.48657 -28.40086,28.69914 -31.74853,30.43987 -5.44747,2.8326 -11.28135,1.74147 -16.65748,-3.11555 z m 27.14047,-17.08706 c 15.51941,-15.51941 16.48848,-17.64615 10.76348,-23.62176 -5.91202,-6.17081 -8.27195,-5.10819 -23.20364,10.44805 C 151.98918,482.13111 150,484.80414 150,488.26102 c 0,4.53127 4.67319,9.23898 9.17124,9.23898 1.6263,0 7.8185,-5.23443 16.70642,-14.12234 z m -18.67598,-18.1277 c 8.42967,-8.73122 15.68438,-17.22765 16.12157,-18.88094 0.92614,-3.50233 -0.34974,-5.90406 -4.96825,-9.35228 -3.01281,-2.24939 -3.65233,-2.31428 -6.77834,-0.68773 -1.89841,0.98779 -10.06104,8.57453 -18.13916,16.85941 -13.15394,13.49062 -14.6875,15.52602 -14.6875,19.49378 0,6.07345 4.99826,10.31626 10.625,9.01907 1.375,-0.31698 9.397,-7.72007 17.82667,-16.45131 z M 136.5,449 c 10.92869,-10.92869 13.5,-14.187 13.5,-17.10694 0,-4.98244 -4.43905,-9.39306 -9.4536,-9.39306 -3.5031,0 -5.63699,1.74227 -16.6571,13.60011 -14.19968,15.27913 -15.15937,17.80715 -8.79339,23.16378 2.11524,1.77986 4.75899,3.23611 5.875,3.23611 1.116,0 8.10409,-6.075 15.52909,-13.5 z m -20.5625,-15.7857 c 6.61421,-6.7224 7.8125,-8.61844 7.8125,-12.36157 0,-4.85951 -4.47838,-9.60273 -9.06655,-9.60273 -1.37685,0 -6.39721,3.8183 -11.28976,8.58659 -7.387519,7.19987 -8.810356,9.25052 -8.810356,12.69782 0,5.46119 5.519296,10.49951 10.280086,9.38424 1.79387,-0.42024 6.77721,-4.33719 11.07408,-8.70435 z"
       id="path4144"
       inkscape:connector-curvature="0" />
  </g>
</svg>
