<?xml version="1.0" encoding="UTF-8" standalone="no"?>
<!-- Created with Inkscape (http://www.inkscape.org/) -->

<svg
   xmlns:dc="http://purl.org/dc/elements/1.1/"
   xmlns:cc="http://creativecommons.org/ns#"
   xmlns:rdf="http://www.w3.org/1999/02/22-rdf-syntax-ns#"
   xmlns:svg="http://www.w3.org/2000/svg"
   xmlns="http://www.w3.org/2000/svg"
   xmlns:sodipodi="http://sodipodi.sourceforge.net/DTD/sodipodi-0.dtd"
   xmlns:inkscape="http://www.inkscape.org/namespaces/inkscape"
   id="svg2"
   version="1.1"
   inkscape:version="0.91 r13725"
   width="3074.114"
   height="5868.75"
   viewBox="0 0 3074.114 5868.75"
   sodipodi:docname="CUSTOM SURGE ICON.v2.svg">
  <metadata
     id="metadata8">
    <rdf:RDF>
      <cc:Work
         rdf:about="">
        <dc:format>image/svg+xml</dc:format>
        <dc:type
           rdf:resource="http://purl.org/dc/dcmitype/StillImage" />
        <dc:title></dc:title>
      </cc:Work>
    </rdf:RDF>
  </metadata>
  <defs
     id="defs6" />
  <sodipodi:namedview
     pagecolor="#ffffff"
     bordercolor="#666666"
     borderopacity="1"
     objecttolerance="10"
     gridtolerance="10"
     guidetolerance="10"
     inkscape:pageopacity="0"
     inkscape:pageshadow="2"
     inkscape:window-width="1920"
     inkscape:window-height="1017"
     id="namedview4"
     showgrid="false"
     fit-margin-top="0"
     fit-margin-left="0"
     fit-margin-right="0"
     fit-margin-bottom="0"
     inkscape:zoom="0.075399361"
     inkscape:cx="1513.621"
     inkscape:cy="2941.0064"
     inkscape:window-x="-8"
     inkscape:window-y="-8"
     inkscape:window-maximized="1"
     inkscape:current-layer="svg2" />
  <path
     style="fill:#000000"
     d="m 132.56318,5852.3439 c 2.59425,-9.0236 18.01642,-64.922 34.27132,-124.2188 16.25505,-59.2969 39.37695,-141.5625 51.3822,-182.8125 12.00525,-41.25 28.43168,-100.3125 36.50303,-131.25 15.16687,-58.1344 27.23257,-102.0273 85.044,-309.375 18.68932,-67.0312 46.23877,-166.1719 61.22107,-220.3125 14.9823,-54.1407 42.53175,-153.2812 61.22108,-220.3125 18.68925,-67.0312 41.59597,-149.2969 50.90392,-182.8125 9.30788,-33.5157 38.75235,-138.9844 65.43218,-234.375 26.67975,-95.3907 58.38352,-209.2969 70.4529,-253.125 12.06915,-43.8282 48.2079,-174.6094 80.3079,-290.625 32.1,-116.0156 65.83799,-238.3594 74.97449,-271.875 9.13575,-33.5156 27.6015,-98.7239 41.034,-144.9072 13.43325,-46.1834 24.42375,-91.5349 24.42375,-100.7813 0,-15.9249 -23.0475,-16.8115 -437.03114,-16.8115 -411.774498,0 -436.757098,-0.9481 -432.29379801,-16.4063 2.60540001,-9.0234 17.58950001,-62.8125 33.29790001,-119.5312 15.7085,-56.7188 52.7193,-189.6094 82.246298,-295.3125 29.5269,-105.7031 61.08202,-219.6094 70.12252,-253.125 9.04043,-33.5156 46.40535,-168.5156 83.03295,-300 36.62775,-131.4844 81.7965,-293.9063 100.37505,-360.9375 18.57855,-67.0313 45.6312,-164.0625 60.117,-215.625 14.48588,-51.5625 37.17623,-132.7735 50.42295,-180.4688 13.2468,-47.6953 34.3872,-123.6328 46.97888,-168.75 12.5916,-45.1172 46.56735,-168.5156 75.50167,-274.2187 C 631.43963,878.672 667.05878,750.0001 681.65978,698.4375 696.26003,646.875 732.23903,518.2032 761.61353,412.5 790.98727,306.7969 827.33152,176.4676 842.37802,122.8792 857.42377,69.291 869.73502,19.7206 869.73502,12.723 869.73502,2.0812 1050.0245,0 1971.9245,0 l 1102.1895,0 -77.1052,147.6562 c -42.408,81.2111 -110.7578,210.9375 -151.8893,288.2813 -41.1315,77.3437 -94.6777,178.5937 -118.9927,225 -24.3143,46.4064 -83.2905,158.2032 -131.0573,248.4376 -118.0005,222.9098 -167.6872,316.8815 -223.0642,421.875 -64.7213,122.7089 -222.1328,421.02 -267.1365,506.25 -20.4195,38.6719 -81.5445,154.6875 -135.8333,257.8125 -54.2887,103.125 -113.4382,214.9219 -131.4427,248.4375 -18.0053,33.5156 -62.2388,117.8906 -98.2973,187.5 -36.0577,69.6094 -69.273,130.5703 -73.8105,135.4687 -30.5047,32.9303 -23.868,33.2813 629.25,33.2813 350.625,0 637.5,2.8378 637.5,6.3061 0,3.4684 -32.748,46.7106 -72.774,96.0938 -40.0252,49.3832 -84.0165,104.5532 -97.758,122.6001 -13.7415,18.0469 -84.8625,106.6406 -158.0475,196.875 -268.2817,330.7828 -389.5665,481.0935 -430.7955,533.8943 -42.8872,54.9244 -260.0355,324.3586 -378.1725,469.2307 -119.0145,145.9479 -244.779,302.0505 -287.4525,356.7957 -23.2035,29.7666 -91.185,114.5946 -151.0702,188.5065 -59.8853,73.9119 -158.076,195.5571 -218.2028,270.3228 -60.126,74.7656 -141.91048,175.6991 -181.74223,224.2968 -39.8325,48.5975 -80.85975,99.9723 -91.17225,114.1659 -10.3125,14.1939 -71.33625,90.4478 -135.60899,169.4534 -240.4107,295.5214 -321.4467,397.0969 -325.88978,408.4902 -3.36315,8.6239 -40.37062,11.7187 -140.1363,11.7187 -124.65757,0 -135.1866,-1.3201 -130.84927,-16.4062 z"
     id="path4138"
     inkscape:connector-curvature="0" />
</svg>
