<?xml version="1.0" encoding="UTF-8" standalone="no"?>
<!-- Created with Inkscape (http://www.inkscape.org/) -->

<svg
   xmlns:dc="http://purl.org/dc/elements/1.1/"
   xmlns:cc="http://creativecommons.org/ns#"
   xmlns:rdf="http://www.w3.org/1999/02/22-rdf-syntax-ns#"
   xmlns:svg="http://www.w3.org/2000/svg"
   xmlns="http://www.w3.org/2000/svg"
   xmlns:sodipodi="http://sodipodi.sourceforge.net/DTD/sodipodi-0.dtd"
   xmlns:inkscape="http://www.inkscape.org/namespaces/inkscape"
   width="955.25836mm"
   height="955.25836mm"
   viewBox="0 0 3384.7737 3384.7737"
   id="svg2"
   version="1.1"
   inkscape:version="0.91 r13725"
   sodipodi:docname="CUSTOM TOGGLE DOWN ICON.ORANGE.v2.svg"
   inkscape:export-filename="CUSTOM MAIN MENU ICON.v2.svg"
   inkscape:export-xdpi="499.96481"
   inkscape:export-ydpi="499.96481">
  <defs
     id="defs4">
    <inkscape:path-effect
       effect="powerstroke"
       id="path-effect5739"
       is_visible="true"
       offset_points="0,0.5"
       sort_points="true"
       interpolator_type="Linear"
       interpolator_beta="0.2"
       start_linecap_type="zerowidth"
       linejoin_type="round"
       miter_limit="4"
       end_linecap_type="zerowidth"
       cusp_linecap_type="round" />
  </defs>
  <sodipodi:namedview
     id="base"
     pagecolor="#ffffff"
     bordercolor="#666666"
     borderopacity="1.0"
     inkscape:pageopacity="0.0"
     inkscape:pageshadow="2"
     inkscape:zoom="0.1767767"
     inkscape:cx="-1335.1192"
     inkscape:cy="1728.6962"
     inkscape:document-units="px"
     inkscape:current-layer="layer1"
     showgrid="false"
     inkscape:window-width="1920"
     inkscape:window-height="1017"
     inkscape:window-x="-8"
     inkscape:window-y="-8"
     inkscape:window-maximized="1"
     fit-margin-top="0"
     fit-margin-left="0"
     fit-margin-right="0"
     fit-margin-bottom="0" />
  <metadata
     id="metadata7">
    <rdf:RDF>
      <cc:Work
         rdf:about="">
        <dc:format>image/svg+xml</dc:format>
        <dc:type
           rdf:resource="http://purl.org/dc/dcmitype/StillImage" />
        <dc:title></dc:title>
      </cc:Work>
    </rdf:RDF>
  </metadata>
  <g
     inkscape:label="Layer 1"
     inkscape:groupmode="layer"
     id="layer1"
     transform="translate(1320.326,1175.8923)">
    <g
       id="g4161"
       transform="matrix(0,1,-1,0,888.55539,144.43362)">
      <path
         sodipodi:nodetypes="ccscc"
         inkscape:connector-curvature="0"
         inkscape:original-d="M -395.02419,1545.5439 1661.2422,521.65329 C 1189.4295,285.379 742.09382,58.895531 263.06682,-180.26447 50.626346,-286.32794 -168.0471,-394.8846 -397.85269,-507.89411 Z"
         inkscape:path-effect="#path-effect5739"
         id="path5737"
         d="M -394.80132,1545.9915 1661.4651,522.10087 a 0.5002796,0.49996881 45.082995 0 0 0,-0.89465 l -2e-4,-7e-5 C 1189.6574,284.93396 742.31586,58.447533 263.29016,-180.71182 50.848986,-286.77564 -167.82525,-395.33269 -397.63191,-508.34272 l -1.4e-4,-7e-5 a 0.49895691,0.50005626 13.116678 0 0 -0.72064,0.44937 l 2.8285,2053.43802 z m 0.27713,-0.4483 -2.8285,-2053.438 -0.72064,0.44937 1.3e-4,7e-5 c 229.80442,113.00893 448.476991,221.56516 660.91668,327.62824 479.02821,239.160601 926.35792,465.64107 1398.17472,701.91741 l 10e-5,7e-5 10e-4,-0.89465 -2056.26636,1023.89059 z"
         style="fill:#ff0000;fill-opacity:1;fill-rule:evenodd;stroke:#e8390e;stroke-width:187.5;stroke-linecap:butt;stroke-linejoin:round;stroke-miterlimit:4;stroke-dasharray:none;stroke-opacity:1" />
      <path
         inkscape:connector-curvature="0"
         id="path4139"
         d="m -298.2329,967.7587 c -2.0606,-230.5191 -3.7483,-622.2303 -3.7507,-870.4692 l 0,-451.34358 871.611,436.46308 c 479.386,240.0548 869.4968,438.5151 866.9129,441.023 -2.584,2.5079 -393.1212,197.8107 -867.8604,434.006 l -863.1622,429.4463 -3.7465,-419.1256 z"
         style="fill:#e8390e;fill-opacity:0;stroke:#e8390c;stroke-width:56.56854248;stroke-linejoin:round;stroke-miterlimit:4;stroke-dasharray:none;stroke-opacity:0.00392157" />
      <path
         inkscape:connector-curvature="0"
         id="path4141"
         d="m -298.2365,954.0959 c -2.0632,-238.0333 -3.7512,-629.7561 -3.7512,-870.4952 l 0,-437.70749 871.569,436.53149 c 479.3628,240.0923 869.4736,438.5645 866.9128,441.0493 -2.5608,2.4848 -393.0788,197.7685 -867.8177,433.9638 l -863.1616,429.4459 -3.7513,-432.7878 z"
         style="fill:#e8390e;fill-opacity:0;stroke:#e8390c;stroke-width:56.56854248;stroke-linejoin:round;stroke-miterlimit:4;stroke-dasharray:none;stroke-opacity:0.00392157" />
      <path
         inkscape:connector-curvature="0"
         id="path4143"
         d="m -298.232,942.3022 c -2.0613,-244.5195 -3.7496,-636.2479 -3.7518,-870.5076 l 0,-425.92668 871.5483,436.56478 c 479.3515,240.1106 869.4623,438.5886 866.9128,441.062 -2.5494,2.4734 -393.0578,197.7477 -867.7964,433.9428 l -863.1611,429.4457 -3.7479,-444.581 z"
         style="fill:#e8390e;fill-opacity:1;stroke:#e8390c;stroke-width:56.56900024;stroke-linejoin:round;stroke-miterlimit:4;stroke-dasharray:none;stroke-opacity:1" />
      <circle
         r="1604.8868"
         cy="516.49451"
         cx="372.06088"
         id="path4147"
         style="fill:none;fill-opacity:1;stroke:#e8390e;stroke-width:175;stroke-linejoin:round;stroke-miterlimit:4;stroke-dasharray:none;stroke-opacity:1" />
    </g>
  </g>
</svg>
