<?xml version="1.0" encoding="UTF-8" standalone="no"?>
<!-- Created with Inkscape (http://www.inkscape.org/) -->

<svg
   xmlns:dc="http://purl.org/dc/elements/1.1/"
   xmlns:cc="http://creativecommons.org/ns#"
   xmlns:rdf="http://www.w3.org/1999/02/22-rdf-syntax-ns#"
   xmlns:svg="http://www.w3.org/2000/svg"
   xmlns="http://www.w3.org/2000/svg"
   xmlns:sodipodi="http://sodipodi.sourceforge.net/DTD/sodipodi-0.dtd"
   xmlns:inkscape="http://www.inkscape.org/namespaces/inkscape"
   id="svg2"
   version="1.1"
   inkscape:version="0.91 r13725"
   width="5109.8843"
   height="5110.9116"
   viewBox="0 0 5109.8842 5110.9116"
   sodipodi:docname="CUSTOM PHONE ICON.v1.svg">
  <metadata
     id="metadata8">
    <rdf:RDF>
      <cc:Work
         rdf:about="">
        <dc:format>image/svg+xml</dc:format>
        <dc:type
           rdf:resource="http://purl.org/dc/dcmitype/StillImage" />
        <dc:title></dc:title>
      </cc:Work>
    </rdf:RDF>
  </metadata>
  <defs
     id="defs6" />
  <sodipodi:namedview
     pagecolor="#ffffff"
     bordercolor="#666666"
     borderopacity="1"
     objecttolerance="10"
     gridtolerance="10"
     guidetolerance="10"
     inkscape:pageopacity="0"
     inkscape:pageshadow="2"
     inkscape:window-width="1920"
     inkscape:window-height="1017"
     id="namedview4"
     showgrid="false"
     fit-margin-top="0"
     fit-margin-left="0"
     fit-margin-right="0"
     fit-margin-bottom="0"
     inkscape:zoom="0.11523438"
     inkscape:cx="3442.4877"
     inkscape:cy="2555.6425"
     inkscape:window-x="-8"
     inkscape:window-y="-8"
     inkscape:window-maximized="1"
     inkscape:current-layer="svg2" />
  <path
     style="fill:#000000"
     d="m 2354.9424,5108.9396 c -202.2357,-23.9748 -306.2984,-41.3612 -425,-71.0078 C 1017.5838,4810.0648 299.81963,4092.3008 71.9526,3179.9422 16.5222,2958.004 0,2814.488 0,2554.9422 c 0,-259.546 16.5222,-403.0617 71.9526,-625 C 299.81963,1017.5836 1017.5838,299.81951 1929.9424,71.9525 2151.8807,16.522 2295.3964,0 2554.9424,0 c 259.5458,0 403.0618,16.522 625,71.9525 912.3586,227.86701 1630.1229,945.6311 1857.9899,1857.9897 55.43,221.9383 71.952,365.454 71.952,625 0,259.5458 -16.522,403.0618 -71.952,625 -225.1671,901.545 -929.0952,1614.0656 -1828.3106,1850.6256 -206.908,54.4322 -367.4724,75.279 -609.6792,79.1578 -115.5,1.8498 -225.75,1.496 -245,-0.786 z M 2799.3486,4779.819 C 3755.2036,4668.0066 4530.2502,3973.9506 4739.0973,3042.7698 4991.4233,1917.7287 4342.531,784.04279 3241.173,425.73245 2235.7767,98.6417 1141.3015,524.56301 610.06353,1449.6439 177.7391,2202.4801 226.6345,3142.9336 735.11833,3854.9422 1204.5525,4512.2712 2008.2351,4872.3606 2799.3487,4779.819 Z m 550.5938,-791.3708 c -16.5,-1.9236 -72.75,-8.2964 -125,-14.162 -255.8838,-28.7252 -526.1217,-111.7498 -784.442,-241.0022 -773.6861,-387.1196 -1282.5878,-1175.339 -1322.2868,-2048.042 -9.1481,-201.1016 -5.2201,-210.2281 164.488,-382.1822 163.8476,-166.0159 192.357,-181.9278 327.2408,-182.6414 77.4496,-0.41 98.022,3.2832 147.5264,26.4827 70.306,32.9478 155.2979,111.4356 189.9705,175.4329 14.1863,26.1845 51.3666,141.5493 82.6228,256.3663 51.6318,189.6652 56.4926,216.1884 53.1484,290 -5.1146,112.8835 -34.2495,171.6928 -139.2359,281.0492 l -82.6724,86.1134 23.1338,72.0395 c 133.1959,414.778 486.0689,771.0804 904.6607,913.4528 38.1418,12.9728 76.535,23.587 85.318,23.587 8.7832,0 53.8242,-38.0526 100.0914,-84.5614 101.9084,-102.4406 150.5516,-126.8192 265.8716,-133.2468 74.091,-4.1296 96.9646,0.03 290,52.7536 115.2606,31.4804 230.9884,68.7376 257.173,82.794 63.854,34.278 142.4304,119.2858 175.3796,189.7342 22.5632,48.242 26.914,71.2446 26.9588,142.5264 0.08,134.6596 -14.0408,160.925 -173.4752,322.5704 -163.98,166.254 -187.1742,178.2788 -339.3466,175.9312 -53.4186,-0.824 -110.6248,-3.072 -127.1248,-4.9956 z"
     id="path4138"
     inkscape:connector-curvature="0" />
</svg>
