<?xml version="1.0" encoding="UTF-8" standalone="no"?>
<!-- Created with Inkscape (http://www.inkscape.org/) -->

<svg
   xmlns:dc="http://purl.org/dc/elements/1.1/"
   xmlns:cc="http://creativecommons.org/ns#"
   xmlns:rdf="http://www.w3.org/1999/02/22-rdf-syntax-ns#"
   xmlns:svg="http://www.w3.org/2000/svg"
   xmlns="http://www.w3.org/2000/svg"
   xmlns:sodipodi="http://sodipodi.sourceforge.net/DTD/sodipodi-0.dtd"
   xmlns:inkscape="http://www.inkscape.org/namespaces/inkscape"
   id="svg2"
   version="1.1"
   inkscape:version="0.91 r13725"
   width="3757.2915"
   height="3292.9299"
   viewBox="0 0 3757.2915 3292.9299"
   sodipodi:docname="CUSTOM CAR ICON.v2.svg">
  <metadata
     id="metadata8">
    <rdf:RDF>
      <cc:Work
         rdf:about="">
        <dc:format>image/svg+xml</dc:format>
        <dc:type
           rdf:resource="http://purl.org/dc/dcmitype/StillImage" />
        <dc:title></dc:title>
      </cc:Work>
    </rdf:RDF>
  </metadata>
  <defs
     id="defs6" />
  <sodipodi:namedview
     pagecolor="#ffffff"
     bordercolor="#666666"
     borderopacity="1"
     objecttolerance="10"
     gridtolerance="10"
     guidetolerance="10"
     inkscape:pageopacity="0"
     inkscape:pageshadow="2"
     inkscape:window-width="1920"
     inkscape:window-height="1017"
     id="namedview4"
     showgrid="false"
     fit-margin-top="0"
     fit-margin-left="0"
     fit-margin-right="0"
     fit-margin-bottom="0"
     inkscape:zoom="0.12270382"
     inkscape:cx="1899.821"
     inkscape:cy="1648.1132"
     inkscape:window-x="-8"
     inkscape:window-y="-8"
     inkscape:window-maximized="1"
     inkscape:current-layer="svg2" />
  <g
     id="g4156"
     transform="matrix(125,0,0,125,-1086.4584,-1238.32)">
    <path
       style="fill-opacity:1"
       d="M 9.0323765,26.5625 C 9.3332754,21.234375 10.222663,15.328125 11.008794,13.4375 12.418982,10.046034 12.589608,10 23.75,10 c 11.160392,0 11.331019,0.04603 12.741206,3.4375 0.78613,1.890625 1.675519,7.796875 1.976418,13.125 0.518977,9.189725 0.41183,9.6875 -2.085268,9.6875 C 34.93456,36.25 33.75,35.6875 33.75,35 c 0,-0.729166 -4.166666,-1.25 -10,-1.25 -5.833334,0 -10,0.520834 -10,1.25 0,0.6875 -1.18456,1.25 -2.632356,1.25 -2.4970975,0 -2.6042454,-0.497775 -2.0852675,-9.6875 z M 16.25,25.625 c 0,-1.03125 -0.84375,-1.875 -1.875,-1.875 -1.03125,0 -1.875,0.84375 -1.875,1.875 0,1.03125 0.84375,1.875 1.875,1.875 1.03125,0 1.875,-0.84375 1.875,-1.875 z m 18.75,0 c 0,-1.03125 -0.84375,-1.875 -1.875,-1.875 -1.03125,0 -1.875,0.84375 -1.875,1.875 0,1.03125 0.84375,1.875 1.875,1.875 1.03125,0 1.875,-0.84375 1.875,-1.875 z m 0,-6.168625 c 0,-0.298995 -0.548578,-1.986495 -1.219061,-3.75 C 32.631474,12.683053 32.058806,12.5 23.75,12.5 15.441194,12.5 14.868526,12.683053 13.719061,15.706375 13.048578,17.46988 12.5,19.15738 12.5,19.456375 12.5,19.755369 17.5625,20 23.75,20 29.9375,20 35,19.755369 35,19.456375 Z"
       id="path4178"
       inkscape:connector-curvature="0" />
    <path
       style="fill-opacity:1"
       d="M 9.0323765,26.5625 C 9.3332754,21.234375 10.222663,15.328125 11.008794,13.4375 12.416752,10.051395 12.604759,10 23.583336,10 l 11.145215,0 2.010724,5.025295 c 1.123736,2.808494 2.010725,8.598309 2.010725,13.125 0,7.266371 -0.257211,8.099705 -2.5,8.099705 -1.375,0 -2.5,-0.5625 -2.5,-1.25 0,-0.729166 -4.166666,-1.25 -10,-1.25 -5.833334,0 -10,0.520834 -10,1.25 0,0.6875 -1.18456,1.25 -2.632356,1.25 -2.4970975,0 -2.6042454,-0.497775 -2.0852675,-9.6875 z M 16.25,25.625 c 0,-1.03125 -0.84375,-1.875 -1.875,-1.875 -1.03125,0 -1.875,0.84375 -1.875,1.875 0,1.03125 0.84375,1.875 1.875,1.875 1.03125,0 1.875,-0.84375 1.875,-1.875 z m 18.75,0 c 0,-1.03125 -0.84375,-1.875 -1.875,-1.875 -1.03125,0 -1.875,0.84375 -1.875,1.875 0,1.03125 0.84375,1.875 1.875,1.875 1.03125,0 1.875,-0.84375 1.875,-1.875 z m 0,-6.168625 c 0,-0.298995 -0.548578,-1.986495 -1.219061,-3.75 C 32.631474,12.683053 32.058806,12.5 23.75,12.5 15.441194,12.5 14.868526,12.683053 13.719061,15.706375 13.048578,17.46988 12.5,19.15738 12.5,19.456375 12.5,19.755369 17.5625,20 23.75,20 29.9375,20 35,19.755369 35,19.456375 Z"
       id="path4176"
       inkscape:connector-curvature="0" />
    <path
       style="fill-opacity:1"
       d="M 9.0323765,26.5625 C 9.3332754,21.234375 10.222663,15.328125 11.008794,13.4375 12.416752,10.051395 12.604759,10 23.583336,10 l 11.145215,0 2.010724,5.025295 c 1.123736,2.808494 2.010725,8.598309 2.010725,13.125 0,7.266371 -0.257211,8.099705 -2.5,8.099705 -1.375,0 -2.5,-0.5625 -2.5,-1.25 0,-0.729166 -4.166666,-1.25 -10,-1.25 -5.833334,0 -10,0.520834 -10,1.25 0,0.6875 -1.18456,1.25 -2.632356,1.25 -2.4970975,0 -2.6042454,-0.497775 -2.0852675,-9.6875 z M 16.25,25.625 c 0,-1.03125 -0.84375,-1.875 -1.875,-1.875 -1.03125,0 -1.875,0.84375 -1.875,1.875 0,1.03125 0.84375,1.875 1.875,1.875 1.03125,0 1.875,-0.84375 1.875,-1.875 z m 18.75,0 c 0,-1.03125 -0.84375,-1.875 -1.875,-1.875 -1.03125,0 -1.875,0.84375 -1.875,1.875 0,1.03125 0.84375,1.875 1.875,1.875 1.03125,0 1.875,-0.84375 1.875,-1.875 z m 0,-6.168625 c 0,-0.298995 -0.548578,-1.986495 -1.219061,-3.75 C 32.631474,12.683053 32.058806,12.5 23.75,12.5 15.441194,12.5 14.868526,12.683053 13.719061,15.706375 13.048578,17.46988 12.5,19.15738 12.5,19.456375 12.5,19.755369 17.5625,20 23.75,20 29.9375,20 35,19.755369 35,19.456375 Z"
       id="path4174"
       inkscape:connector-curvature="0" />
    <path
       style="fill-opacity:1"
       d="m 8.75,28.972674 c 0,-4.00253 0.8966261,-9.90878 1.992503,-13.125 L 12.735005,10 23.75,10 l 11.014995,0 1.992502,5.847674 c 1.095877,3.21622 1.992503,9.12247 1.992503,13.125 0,6.443992 -0.286277,7.277326 -2.5,7.277326 -1.375,0 -2.5,-0.5625 -2.5,-1.25 0,-0.729166 -4.166666,-1.25 -10,-1.25 -5.833334,0 -10,0.520834 -10,1.25 0,0.6875 -1.125,1.25 -2.5,1.25 -2.2137227,0 -2.5,-0.833334 -2.5,-7.277326 z m 7.878526,-3.330555 C 16.764087,24.964034 15.890625,24.219664 14.6875,23.987964 13.319246,23.724462 12.5,24.337552 12.5,25.625 c 0,2.174736 3.69412,2.190054 4.128526,0.01711 z M 35,25.625 c 0,-1.03125 -0.84375,-1.875 -1.875,-1.875 -1.03125,0 -1.875,0.84375 -1.875,1.875 0,1.03125 0.84375,1.875 1.875,1.875 1.03125,0 1.875,-0.84375 1.875,-1.875 z m 0,-6.168625 c 0,-0.298995 -0.548578,-1.986495 -1.219061,-3.75 C 32.621424,12.65662 32.10243,12.5 23.155939,12.5 15.86952,12.5 13.75,12.899473 13.75,14.272766 c 0,0.97502 -0.341431,2.66252 -0.758736,3.75 C 12.333625,19.736546 13.749339,20 23.616264,20 29.877319,20 35,19.755369 35,19.456375 Z"
       id="path4172"
       inkscape:connector-curvature="0" />
    <path
       style="fill-opacity:1"
       d="m 8.75,28.972674 c 0,-4.00253 0.8966261,-9.90878 1.992503,-13.125 L 12.735005,10 23.75,10 l 11.014995,0 1.992502,5.847674 c 1.095877,3.21622 1.992503,9.12247 1.992503,13.125 0,6.443992 -0.286277,7.277326 -2.5,7.277326 -1.375,0 -2.5,-0.5625 -2.5,-1.25 0,-0.729166 -4.166666,-1.25 -10,-1.25 -5.833334,0 -10,0.520834 -10,1.25 0,0.6875 -1.125,1.25 -2.5,1.25 -2.2137227,0 -2.5,-0.833334 -2.5,-7.277326 z m 7.878526,-3.330555 C 16.764087,24.964034 15.890625,24.219664 14.6875,23.987964 13.319246,23.724462 12.5,24.337552 12.5,25.625 c 0,2.174736 3.69412,2.190054 4.128526,0.01711 z M 35,25.625 c 0,-1.03125 -0.810553,-1.875 -1.801229,-1.875 -2.088305,0 -3.498007,1.784096 -2.331455,2.95065 C 32.361261,28.194595 35,27.507787 35,25.625 Z M 34.508736,18.022766 C 34.091431,16.935286 33.75,15.247786 33.75,14.272766 33.75,12.890143 31.549247,12.5 23.75,12.5 c -5.5,0 -10.007681,0.421875 -10.017069,0.9375 -0.0094,0.515625 -0.356242,2.203125 -0.770788,3.75 C 12.220384,19.955361 12.391411,20 23.737946,20 c 9.999866,0 11.428861,-0.262326 10.77079,-1.977234 z"
       id="path4170"
       inkscape:connector-curvature="0" />
    <path
       style="fill-opacity:1"
       d="m 8.75,28.972674 c 0,-4.00253 0.8966261,-9.90878 1.992503,-13.125 L 12.735005,10 23.75,10 l 11.014995,0 1.992502,5.847674 c 1.095877,3.21622 1.992503,9.12247 1.992503,13.125 0,6.338525 -0.309071,7.277326 -2.395834,7.277326 -1.317707,0 -2.597267,-0.604305 -2.843466,-1.3429 C 32.864535,32.968604 14.685011,32.819965 14.042359,34.747924 13.766977,35.574066 12.463542,36.25 11.145833,36.25 9.0590713,36.25 8.75,35.311199 8.75,28.972674 Z m 7.878526,-3.330555 C 16.764087,24.964034 15.890625,24.219664 14.6875,23.987964 13.319246,23.724462 12.5,24.337552 12.5,25.625 c 0,2.174736 3.69412,2.190054 4.128526,0.01711 z M 35,25.833334 c 0,-0.916668 -0.37012,-2.036786 -0.822489,-2.489155 -1.130414,-1.130415 -4.315662,1.671017 -3.464977,3.047455 C 31.77767,28.115059 35,27.695457 35,25.833334 Z M 34.982931,19.0625 c -0.0094,-0.515625 -0.356242,-2.203125 -0.770789,-3.75 C 33.511326,12.697415 32.766734,12.5 23.604211,12.5 c -5.419816,0 -9.861892,0.421875 -9.87128,0.9375 -0.0094,0.515625 -0.356242,2.203125 -0.770789,3.75 C 12.220852,19.953615 12.396364,20 23.604211,20 c 6.267684,0 11.388108,-0.421875 11.37872,-0.9375 z"
       id="path4168"
       inkscape:connector-curvature="0" />
    <path
       style="fill-opacity:1"
       d="m 8.973012,27.1875 c 0.2729439,-4.984375 1.324751,-10.75 2.337349,-12.8125 1.809503,-3.685668 2.026207,-3.756162 12.631941,-4.10922 L 34.733156,9.9065598 36.741579,15.800954 C 37.84621,19.04287 38.75,24.970144 38.75,28.972674 c 0,6.443992 -0.286277,7.277326 -2.5,7.277326 -1.388889,0 -2.5,-0.833334 -2.5,-1.875 0,-1.510416 -1.944445,-1.875 -10,-1.875 -8.055555,0 -10,0.364584 -10,1.875 0,1.074052 -1.126291,1.875 -2.636625,1.875 -2.4853512,0 -2.6081522,-0.519951 -2.140363,-9.0625 z m 7.095379,-3.031325 c -1.868886,-2.251871 -4.215973,-0.146726 -3.094577,2.775584 0.657387,1.713126 1.151162,1.813151 2.681391,0.543172 1.455765,-1.208176 1.548256,-1.951081 0.413186,-3.318756 z M 35,25.833334 c 0,-0.916668 -0.37012,-2.036786 -0.822489,-2.489155 -1.130414,-1.130415 -4.315662,1.671017 -3.464977,3.047455 C 31.77767,28.115059 35,27.695457 35,25.833334 Z M 34.982931,19.0625 c -0.0094,-0.515625 -0.356242,-2.203125 -0.770789,-3.75 C 33.511326,12.697415 32.766734,12.5 23.604211,12.5 c -5.419816,0 -9.861892,0.421875 -9.87128,0.9375 -0.0094,0.515625 -0.356242,2.203125 -0.770789,3.75 C 12.220852,19.953615 12.396364,20 23.604211,20 c 6.267684,0 11.388108,-0.421875 11.37872,-0.9375 z"
       id="path4166"
       inkscape:connector-curvature="0" />
    <path
       style="fill-opacity:1"
       d="M 9.1881477,34.338815 C 7.9956519,31.231221 9.3762419,18.427575 11.340804,14.375 c 1.8075,-3.728581 1.878377,-3.75 12.409196,-3.75 10.520095,0 10.603861,0.02521 12.45745,3.75 1.107643,2.225806 1.876585,7.295158 1.891844,12.47221 0.02157,7.321282 -0.325641,8.791586 -2.161794,9.154155 C 34.59805,36.265854 33.75,35.670877 33.75,34.466655 33.75,32.84167 32.012687,32.5 23.75,32.5 c -8.055555,0 -10,0.364584 -10,1.875 0,2.456057 -3.616497,2.427371 -4.5618523,-0.03619 z m 6.8802433,-10.18264 c -1.868886,-2.251871 -4.215973,-0.146726 -3.094577,2.775584 0.657387,1.713126 1.151162,1.813151 2.681391,0.543172 1.455765,-1.208176 1.548256,-1.951081 0.413186,-3.318756 z m 18.457795,0.162066 c -0.657387,-1.713126 -1.151162,-1.813151 -2.681391,-0.543172 -1.455765,1.208176 -1.548256,1.951081 -0.413186,3.318756 1.868886,2.251871 4.215973,0.146726 3.094577,-2.775584 z M 34.982931,19.0625 c -0.0094,-0.515625 -0.356242,-2.203125 -0.770789,-3.75 C 33.511326,12.697415 32.766734,12.5 23.604211,12.5 c -5.419816,0 -9.861892,0.421875 -9.87128,0.9375 -0.0094,0.515625 -0.356242,2.203125 -0.770789,3.75 C 12.220852,19.953615 12.396364,20 23.604211,20 c 6.267684,0 11.388108,-0.421875 11.37872,-0.9375 z"
       id="path4164"
       inkscape:connector-curvature="0" />
    <path
       style="fill-opacity:1"
       d="M 9.1881477,34.338815 C 7.9956519,31.231221 9.3762419,18.427575 11.340804,14.375 c 1.8075,-3.728581 1.878377,-3.75 12.409196,-3.75 10.528636,0 10.602129,0.02219 12.419015,3.75 2.424016,4.973494 3.363294,19.099664 1.398702,21.035631 C 36.429656,36.532112 35.70327,36.362787 34.465546,34.6875 32.268642,31.71394 14.420225,31.450441 13.297968,34.375 12.366766,36.801672 10.125663,36.781941 9.1881477,34.338815 Z M 17.5,26.26932 c 0,-0.529765 -0.793673,-1.621898 -1.763715,-2.426962 -2.091794,-1.736034 -3.861145,0.226303 -2.769369,3.071427 C 13.649169,28.691705 17.5,28.144235 17.5,26.26932 Z m 16.995047,-2.032225 c -0.790302,-2.059495 -0.956168,-2.061656 -2.978477,-0.03881 -1.869081,1.869572 -1.904329,2.288805 -0.277019,3.294877 2.423983,1.498609 4.343369,-0.42111 3.255496,-3.256059 z M 34.982931,19.0625 c -0.0094,-0.515625 -0.356242,-2.203125 -0.770789,-3.75 C 33.511326,12.697415 32.766734,12.5 23.604211,12.5 c -5.419816,0 -9.861892,0.421875 -9.87128,0.9375 -0.0094,0.515625 -0.356242,2.203125 -0.770789,3.75 C 12.220852,19.953615 12.396364,20 23.604211,20 c 6.267684,0 11.388108,-0.421875 11.37872,-0.9375 z"
       id="path4162"
       inkscape:connector-curvature="0" />
    <path
       style="fill-opacity:1"
       d="M 9.5833334,35.416666 C 7.8173412,33.650675 8.8391931,21.249184 11.205578,15.728631 L 13.661156,10 23.75,10 l 10.088844,0 2.455577,5.728631 C 40.494044,25.525952 38.92472,40.808504 34.360067,34.565969 32.266674,31.703084 14.385491,31.540956 13.297968,34.375 12.536274,36.359939 10.966739,36.800072 9.5833334,35.416666 Z M 17.5,25.625 c 0,-2.0579 -3.423959,-3.413818 -4.445735,-1.760549 -0.426689,0.690396 -0.465995,2.062596 -0.08735,3.049334 C 13.779459,29.031236 17.5,27.973462 17.5,25.625 Z m 17.088296,-1.144905 c -0.430941,-1.123013 -1.552022,-1.62775 -2.665979,-1.200285 -2.312922,0.887551 -2.540336,3.78525 -0.359817,4.584774 2.208688,0.809851 3.906549,-1.089283 3.025796,-3.384489 z M 34.982931,19.0625 c -0.0094,-0.515625 -0.356242,-2.203125 -0.770789,-3.75 C 33.511326,12.697415 32.766734,12.5 23.604211,12.5 c -5.419816,0 -9.861892,0.421875 -9.87128,0.9375 -0.0094,0.515625 -0.356242,2.203125 -0.770789,3.75 C 12.220852,19.953615 12.396364,20 23.604211,20 c 6.267684,0 11.388108,-0.421875 11.37872,-0.9375 z"
       id="path4160"
       inkscape:connector-curvature="0" />
    <path
       style="fill-opacity:1"
       d="M 9.5833334,35.416666 C 7.8173412,33.650675 8.8391931,21.249184 11.205578,15.728631 L 13.661156,10 23.75,10 l 10.088844,0 2.455577,5.728631 C 40.494044,25.525952 38.92472,40.808504 34.360067,34.565969 32.266674,31.703084 14.385491,31.540956 13.297968,34.375 12.536274,36.359939 10.966739,36.800072 9.5833334,35.416666 Z M 17.5,25.565035 c 0,-2.348609 -2.466304,-3.598731 -4.024894,-2.040141 -1.86666,1.866661 -0.224605,5.33832 2.102577,4.445296 C 16.634957,27.564476 17.5,26.482156 17.5,25.565035 Z M 34.580209,24.459021 C 34.166749,23.38156 33.230654,22.5 32.5,22.5 c -2.149125,0 -3.019191,3.90658 -1.130095,5.074105 2.218153,1.370894 4.195472,-0.547775 3.210304,-3.115084 z M 34.982931,19.0625 c -0.0094,-0.515625 -0.356242,-2.203125 -0.770789,-3.75 C 33.511326,12.697415 32.766734,12.5 23.604211,12.5 c -5.419816,0 -9.861892,0.421875 -9.87128,0.9375 -0.0094,0.515625 -0.356242,2.203125 -0.770789,3.75 C 12.220852,19.953615 12.396364,20 23.604211,20 c 6.267684,0 11.388108,-0.421875 11.37872,-0.9375 z"
       id="path4158"
       inkscape:connector-curvature="0" />
  </g>
  <circle
     style="fill:#ffffff;fill-opacity:1;stroke:#ffffff;stroke-width:7.45087481;stroke-linejoin:round;stroke-miterlimit:4;stroke-dasharray:none;stroke-opacity:1"
     id="path4184"
     cx="691.22784"
     cy="1928.8812"
     r="270.21484" />
  <circle
     style="fill:#ffffff;fill-opacity:1;stroke:#ffffff;stroke-width:7.45087481;stroke-linejoin:round;stroke-miterlimit:4;stroke-dasharray:none;stroke-opacity:1"
     id="path4184-8"
     cx="2995.5156"
     cy="1941.2765"
     r="270.21484" />
</svg>
