<?xml version="1.0" encoding="UTF-8" standalone="no"?>
<!-- Created with Inkscape (http://www.inkscape.org/) -->

<svg
   xmlns:dc="http://purl.org/dc/elements/1.1/"
   xmlns:cc="http://creativecommons.org/ns#"
   xmlns:rdf="http://www.w3.org/1999/02/22-rdf-syntax-ns#"
   xmlns:svg="http://www.w3.org/2000/svg"
   xmlns="http://www.w3.org/2000/svg"
   xmlns:sodipodi="http://sodipodi.sourceforge.net/DTD/sodipodi-0.dtd"
   xmlns:inkscape="http://www.inkscape.org/namespaces/inkscape"
   id="svg2"
   version="1.1"
   inkscape:version="0.91 r13725"
   width="3117.063"
   height="3118.3413"
   viewBox="0 0 3117.063 3118.3413"
   sodipodi:docname="CUSTOM PASSWORD ICON.v4.svg">
  <metadata
     id="metadata8">
    <rdf:RDF>
      <cc:Work
         rdf:about="">
        <dc:format>image/svg+xml</dc:format>
        <dc:type
           rdf:resource="http://purl.org/dc/dcmitype/StillImage" />
        <dc:title></dc:title>
      </cc:Work>
    </rdf:RDF>
  </metadata>
  <defs
     id="defs6" />
  <sodipodi:namedview
     pagecolor="#ffffff"
     bordercolor="#666666"
     borderopacity="1"
     objecttolerance="10"
     gridtolerance="10"
     guidetolerance="10"
     inkscape:pageopacity="0"
     inkscape:pageshadow="2"
     inkscape:window-width="1920"
     inkscape:window-height="1017"
     id="namedview4"
     showgrid="false"
     fit-margin-top="0"
     fit-margin-left="0"
     fit-margin-right="0"
     fit-margin-bottom="0"
     inkscape:zoom="0.1888"
     inkscape:cx="1921.5734"
     inkscape:cy="1437.2077"
     inkscape:window-x="-8"
     inkscape:window-y="-8"
     inkscape:window-maximized="1"
     inkscape:current-layer="svg2" />
  <path
     style="fill:#000000"
     d="M 1446.0316,3114.8709 C 1128.6817,3090.1469 824.80455,2970.1187 580.40635,2772.9581 499.6584,2707.8172 374.2503,2578.6558 314.3192,2498.9072 154.04057,2285.6292 55.055975,2047.2948 14.239875,1776.3787 c -18.9865,-126.0224 -18.9865,-309.6723 0,-435.6947 C 65.353175,1001.4206 205.92427,715.3831 439.6908,474.96552 574.7972,336.01515 701.71725,243.11508 867.90635,161.53018 1026.5574,83.645675 1163.798,40.889575 1340.6841,14.239875 c 126.0225,-18.9865 309.6725,-18.9865 435.6945,0 176.8865,26.6497 314.127,69.4058 472.778,147.290305 166.189,81.5849 293.109,174.48497 428.2155,313.43534 233.7665,240.41758 374.3375,526.45508 425.451,865.71848 18.9865,126.0224 18.9865,309.6723 0,435.6947 -26.65,176.8863 -69.406,314.1267 -147.2905,472.7777 -81.585,166.1891 -174.485,293.1092 -313.4355,428.2156 -198.4325,192.9431 -429.2415,323.0615 -692.9475,390.6484 -156.973,40.2316 -353.352,58.5185 -503.118,46.8505 z m 291.867,-197.1878 c 299.092,-38.9221 573.733,-174.7495 789.384,-390.4006 215.651,-215.6511 351.4785,-490.2922 390.4005,-789.3837 12.3365,-94.7989 12.3365,-263.9359 0,-358.7348 -65.5735,-503.89055 -408.146,-930.87108 -890.4015,-1109.79122 -79.729,-29.58 -199.476,-58.6005 -289.383,-70.1316 -95.066,-12.1927 -264.4785,-12.1273 -358.7345,0.1386 -299.0917,38.922 -573.73275,174.74949 -789.3838,390.40057 C 374.1292,805.4314 238.30167,1080.0724 199.37967,1379.164 c -12.3365,94.7989 -12.3365,263.9359 0,358.7347 65.58473,503.9781 407.98338,930.6919 890.56893,1109.8701 75.4799,28.0248 196.47,57.8694 281.083,69.3346 90.163,12.2173 275.1925,12.5096 366.867,0.5794 z m -979.36725,-1077.9017 144.0016,-569.8093 -31.5016,-92.6907 112.5,0 89.38035,-92.4524 -10.7588,-140.4528 -59.8715,1.6552 18.75,0 0,-53.125 0,-53.125 18.75,0 18.75,0 0,-43.75 c 0,-42.5 0.446,-43.75 15.625,-43.75 l 15.625,0 0,-71.875 0,-71.875 28.125,0 28.1251,0 0,-25 c 0,-25 0,-25 25,-25 l 25.0001,0 0,-28.125 0,-28.125 340.625,0 340.625,0 0,28.125 0,28.125 25,0 c 25,0 25,0 25,25 l 0,25 28.125,0 28.125,0 0,71.875 0,71.875 18.75,0 18.75,0 0,43.75 0,43.75 18.75,0 18.75,0 0,53.125 0,53.125 21.875,0 21.875,0 0,115.625 0,115.625 106.25,0 15.2145,62.8972 91.0355,599.6028 -134.0705,561.5334 -644.0545,100.9666 -602.67505,-109.2426 z m 881.25025,0 0,-112.5 -103.125,0 -103.125,0 0,112.5 0,112.5 103.125,0 103.125,0 z m 125,-831.25 0,-168.75 -62.5,0 -62.5,0 0,-62.5 0,-62.5 -103.125,0 -103.125,0 0,62.5 0,62.5 -65.625,0 -65.625,0 0,168.75 0,168.75 231.25,0 231.25,0 z"
     id="path4138"
     inkscape:connector-curvature="0"
     sodipodi:nodetypes="ssssssssssssssssscsssssssssssccccccccccccccsscccccsscccccccsscccccccccccccccccccccccccccccccccccccccccccccccccc" />
  <rect
     style="fill:none;fill-opacity:1;stroke:#000000;stroke-width:156.65658569;stroke-linejoin:round;stroke-miterlimit:4;stroke-dasharray:none;stroke-opacity:1"
     id="rect4164"
     width="964.1651"
     height="764.91382"
     x="1070.6479"
     y="578.28064" />
  <rect
     style="fill:none;fill-opacity:1;stroke:#000000;stroke-width:250;stroke-linejoin:miter;stroke-miterlimit:4;stroke-dasharray:none;stroke-opacity:1"
     id="rect4166"
     width="319.45181"
     height="9.103548"
     x="1370.0464"
     y="710.59045" />
  <rect
     style="fill:none;fill-opacity:1;stroke:#000000;stroke-width:439.84942627;stroke-linejoin:round;stroke-miterlimit:4;stroke-dasharray:none;stroke-opacity:1"
     id="rect4183"
     width="1163.1289"
     height="970.65643"
     x="969.12085"
     y="1342.9573" />
</svg>
