<?xml version="1.0" encoding="UTF-8" standalone="no"?>
<!-- Created with Inkscape (http://www.inkscape.org/) -->

<svg
   xmlns:dc="http://purl.org/dc/elements/1.1/"
   xmlns:cc="http://creativecommons.org/ns#"
   xmlns:rdf="http://www.w3.org/1999/02/22-rdf-syntax-ns#"
   xmlns:svg="http://www.w3.org/2000/svg"
   xmlns="http://www.w3.org/2000/svg"
   xmlns:sodipodi="http://sodipodi.sourceforge.net/DTD/sodipodi-0.dtd"
   xmlns:inkscape="http://www.inkscape.org/namespaces/inkscape"
   id="svg2"
   version="1.1"
   inkscape:version="0.91 r13725"
   width="3374.2847"
   height="3376.9814"
   viewBox="0 0 3374.2847 3376.9814"
   sodipodi:docname="CUSTOM LIST FORMAT.v5.svg">
  <metadata
     id="metadata8">
    <rdf:RDF>
      <cc:Work
         rdf:about="">
        <dc:format>image/svg+xml</dc:format>
        <dc:type
           rdf:resource="http://purl.org/dc/dcmitype/StillImage" />
        <dc:title></dc:title>
      </cc:Work>
    </rdf:RDF>
  </metadata>
  <defs
     id="defs6">
    <inkscape:perspective
       sodipodi:type="inkscape:persp3d"
       inkscape:vp_x="0 : 70.312499 : 1"
       inkscape:vp_y="0 : 999.99999 : 0"
       inkscape:vp_z="166.875 : 70.312499 : 1"
       inkscape:persp3d-origin="83.437501 : 46.874999 : 1"
       id="perspective4182" />
  </defs>
  <sodipodi:namedview
     pagecolor="#ffffff"
     bordercolor="#666666"
     borderopacity="1"
     objecttolerance="10"
     gridtolerance="10"
     guidetolerance="10"
     inkscape:pageopacity="0"
     inkscape:pageshadow="2"
     inkscape:window-width="1920"
     inkscape:window-height="1017"
     id="namedview4"
     showgrid="false"
     fit-margin-top="0"
     fit-margin-left="0"
     fit-margin-right="0"
     fit-margin-bottom="0"
     inkscape:zoom="0.14833529"
     inkscape:cx="1770.5479"
     inkscape:cy="1672.8032"
     inkscape:window-x="-8"
     inkscape:window-y="-8"
     inkscape:window-maximized="1"
     inkscape:current-layer="svg2" />
  <path
     style="fill:#000000"
     d="M 1476.2049,3370.871 C 1323.1606,3353.7215 1064.9009,3270.087 901.98612,3184.917 486.37765,2967.6415 198.23543,2612.9072 56.614125,2144.1737 c -75.4855,-249.8399 -75.4855,-664.2227 0,-914.0625 C 233.57012,644.42702 644.42712,233.57012 1230.1111,56.614125 c 249.84,-75.4855 664.2228,-75.4855 914.0625,0 585.6843,176.955995 996.5412,587.812905 1173.497,1173.497075 75.4855,249.8398 75.4855,664.2226 0,914.0625 -175.6765,581.4488 -593.5642,1001.7688 -1161.7782,1168.5393 -165.1922,48.484 -505.874,77.6347 -679.6875,58.158 z m 583.3717,-171.3537 C 2893.5403,2986.2253 3409.0311,2133.8992 3199.5174,1314.7084 2949.8808,338.63842 1856.5616,-158.79068 976.97487,303.51492 207.76962,707.80467 -92.839575,1643.0785 303.81092,2397.9053 642.51417,3042.459 1371.7989,3375.421 2059.5766,3199.5173 Z M 561.22017,2131.7972 c -25.78125,-25.7812 -20.54101,-3.4372 -20.54101,-16.3278 0,-27.6115 32.92201,-46.0859 59.30476,-46.0859 42.54895,0 53.93425,14.5667 53.93425,55.3028 0,40.736 -20.60225,30.2854 -63.15125,30.2854 -10.02225,0 -3.7655,2.6067 -29.54675,-23.1745 z m 293.891,0.6578 0,-82.0313 1019.53123,0 1019.5312,0 0,82.0313 0,82.0311 -1019.5312,0 -1019.53124,0 z M 566.48716,1717.8225 c -25.78125,-25.7812 -17.90774,-21.8711 -17.90774,-34.7617 0,-27.6115 17.12149,-31.6022 43.50424,-31.6022 42.549,0 49.98425,-5.1838 49.98425,35.5523 0,40.7361 -3.48524,40.8191 -46.03425,40.8191 -10.02225,0 -3.76525,15.7738 -29.5465,-10.0075 z m 288.62401,-30.6801 0,-82.0312 1019.53123,0 1019.5312,0 0,82.0312 0,82.0313 -1019.5312,0 -1019.53124,0 z m -338.1695,-329.7991 c -20.25679,-20.2567 -36.83053,-56.4174 -36.83053,-80.3571 0,-23.9398 16.57375,-60.1005 36.83053,-80.3572 75.687,-75.687 197.5445,-18.365 197.5445,92.9254 0,93.4075 -128.00126,137.3322 -197.5445,67.7889 z m 338.1695,-92.0759 0,-82.0312 1019.53123,0 1019.5312,0 0,82.0312 0,82.0313 -1019.5312,0 -1019.53124,0 z"
     id="path4138"
     inkscape:connector-curvature="0"
     sodipodi:nodetypes="ssssssssssssssssssssscccccccccsssssscccccccccsssssccccccccc" />
  <circle
     style="fill:#000000;fill-opacity:1;stroke:#000000;stroke-width:9.95807838;stroke-linejoin:round;stroke-miterlimit:4;stroke-dasharray:none;stroke-opacity:1"
     id="path4212"
     cx="597.5127"
     cy="1278.6349"
     r="114.75415" />
  <circle
     style="fill:#000000;fill-opacity:1;stroke:#000000;stroke-width:9.95807838;stroke-linejoin:round;stroke-miterlimit:4;stroke-dasharray:none;stroke-opacity:1"
     id="path4212-5"
     cx="598.23706"
     cy="1684.4686"
     r="114.75415" />
  <circle
     style="fill:#000000;fill-opacity:1;stroke:#000000;stroke-width:9.95807838;stroke-linejoin:round;stroke-miterlimit:4;stroke-dasharray:none;stroke-opacity:1"
     id="path4212-5-5"
     cx="597.81134"
     cy="2133.6345"
     r="114.75415"
     inkscape:transform-center-x="-2.6334009"
     inkscape:transform-center-y="-22.383885" />
</svg>
