<?xml version="1.0" encoding="UTF-8" standalone="no"?>
<!-- Created with Inkscape (http://www.inkscape.org/) -->

<svg
   xmlns:dc="http://purl.org/dc/elements/1.1/"
   xmlns:cc="http://creativecommons.org/ns#"
   xmlns:rdf="http://www.w3.org/1999/02/22-rdf-syntax-ns#"
   xmlns:svg="http://www.w3.org/2000/svg"
   xmlns="http://www.w3.org/2000/svg"
   xmlns:sodipodi="http://sodipodi.sourceforge.net/DTD/sodipodi-0.dtd"
   xmlns:inkscape="http://www.inkscape.org/namespaces/inkscape"
   id="svg2"
   version="1.1"
   inkscape:version="0.91 r13725"
   width="3107.8113"
   height="3108.053"
   viewBox="0 0 3107.8113 3108.053"
   sodipodi:docname="CUSTOM EMAIL ICON.v1.svg">
  <metadata
     id="metadata8">
    <rdf:RDF>
      <cc:Work
         rdf:about="">
        <dc:format>image/svg+xml</dc:format>
        <dc:type
           rdf:resource="http://purl.org/dc/dcmitype/StillImage" />
        <dc:title></dc:title>
      </cc:Work>
    </rdf:RDF>
  </metadata>
  <defs
     id="defs6" />
  <sodipodi:namedview
     pagecolor="#ffffff"
     bordercolor="#666666"
     borderopacity="1"
     objecttolerance="10"
     gridtolerance="10"
     guidetolerance="10"
     inkscape:pageopacity="0"
     inkscape:pageshadow="2"
     inkscape:window-width="1920"
     inkscape:window-height="1017"
     id="namedview4"
     showgrid="false"
     fit-margin-top="0"
     fit-margin-left="0"
     fit-margin-right="0"
     fit-margin-bottom="0"
     inkscape:zoom="0.1888"
     inkscape:cx="1634.3694"
     inkscape:cy="1633.4577"
     inkscape:window-x="-8"
     inkscape:window-y="-8"
     inkscape:window-maximized="1"
     inkscape:current-layer="svg2" />
  <path
     style="fill:#000000"
     d="m 1378.9057,3103.7818 c -212.2277,-28.606 -371.5925,-77.2897 -541.76958,-165.5032 -153.5555,-79.5975 -276.28225,-171.4137 -402.0549,-300.7914 -123.25005,-126.7826 -204.82077,-242.6245 -281.09277,-399.1908 -72.1252,-148.054 -116.2764,-287.2773 -141.7153,-446.875 -16.3642,-102.6661 -16.3642,-372.334 0,-475 C 53.26945,1059.2196 154.66945,820.58816 312.36957,610.18456 369.21342,534.34346 495.99737,403.83462 573.35922,341.5271 787.04777,169.4216 1042.631,56.1937 1316.4057,12.3444 c 102.7635,-16.4592 372.2365,-16.4592 475,0 164.951,26.4195 317.9025,75.8977 465.625,150.6251 161.1751,81.53257 285.5316,173.48709 415.6996,307.38598 123.25,126.78273 204.8205,242.62448 281.0925,399.19088 72.1255,148.05394 116.2765,287.27734 141.7155,446.87504 16.364,102.666 16.364,372.3339 0,475 -40.9965,257.2017 -142.3966,495.8332 -300.0965,706.2368 -56.844,75.8411 -183.628,206.3499 -260.9895,268.6574 -212.187,170.8963 -469.0841,285.0684 -739.9216,328.842 -72.1605,11.6628 -350.2682,17.4335 -415.625,8.6241 z m 365.5605,-191.3904 c 92.9315,-12.6855 221.9945,-46.5362 309.274,-81.1166 464.0906,-183.8742 789.3086,-597.2956 860.0371,-1093.2909 14.1794,-99.4333 14.1794,-268.6918 0,-368.1251 C 2826.2157,755.81916 2352.0077,281.61133 1737.9682,194.0496 c -99.4333,-14.1792 -268.6918,-14.1792 -368.1251,0 -614.03963,87.56173 -1088.24748,561.76956 -1175.80925,1175.8092 -14.1791,99.4333 -14.1791,268.6918 0,368.1251 91.83212,643.9863 608.37007,1130.9786 1256.55115,1184.6774 77.9288,6.456 203.4962,2.068 293.8812,-10.2699 z m -1203.06053,-1292.845 0,-759.37504 1009.37503,0 1009.375,0 0,759.37504 0,759.375 -1009.375,0 -1009.37503,0 0,-759.375 z m 1743.24913,585.9375 c -18.46,-19.7657 -131.8401,-136.4696 -251.9551,-259.342 l -218.3915,-223.4046 -66.241,64.5966 c -52.462,51.1597 -73.37,67.2498 -100.514,77.3516 -69.4047,25.8297 -138.0232,23.8479 -199.4891,-5.7616 -15.6934,-7.5598 -57.5051,-41.8845 -92.9149,-76.2769 l -64.3815,-62.5318 -216.9517,221.5906 c -119.32333,121.8748 -233.51413,239.1687 -253.75728,260.6531 l -36.8058,39.0625 767.48298,0 767.4829,0 -33.564,-35.9375 z M 937.91002,1876.0592 1192.3025,1616.9471 935.80562,1358.8717 l -256.497,-258.0753 -0.2015,517.1875 c -0.1105,284.4531 0.83615,517.1875 2.1044,517.1875 1.2682,0 116.7825,-116.6005 256.69845,-259.1122 z M 2422.6557,1625.2756 c 0,-280.4428 -2.1094,-508.8877 -4.6875,-507.6554 -2.5779,1.2323 -116.8464,115.0789 -253.93,252.9925 l -249.242,250.7519 251.5765,256.9034 c 138.3675,141.2969 252.6355,256.9034 253.93,256.9034 1.2941,0 2.353,-229.4532 2.353,-509.8958 z m -829.4868,107.6128 c 12.0152,-5.0978 164.4128,-154.8066 378.5538,-371.875 l 358.4426,-363.34204 -773.7217,0 -773.72143,0 71.5213,73.43754 c 242.76343,249.2673 648.25573,654.8242 661.77263,661.8782 20.5976,10.7489 51.6793,10.7092 77.1528,-0.099 z"
     id="path4138"
     inkscape:connector-curvature="0" />
</svg>
