<?xml version="1.0" encoding="UTF-8" standalone="no"?>
<!-- Created with Inkscape (http://www.inkscape.org/) -->

<svg
   xmlns:dc="http://purl.org/dc/elements/1.1/"
   xmlns:cc="http://creativecommons.org/ns#"
   xmlns:rdf="http://www.w3.org/1999/02/22-rdf-syntax-ns#"
   xmlns:svg="http://www.w3.org/2000/svg"
   xmlns="http://www.w3.org/2000/svg"
   xmlns:sodipodi="http://sodipodi.sourceforge.net/DTD/sodipodi-0.dtd"
   xmlns:inkscape="http://www.inkscape.org/namespaces/inkscape"
   width="950.02686mm"
   height="950.66254mm"
   viewBox="0 0 3366.2369 3368.4893"
   id="svg2"
   version="1.1"
   inkscape:version="0.91 r13725"
   sodipodi:docname="CUSTOM MAIN MENU ICON.v4.svg"
   inkscape:export-filename="CUSTOM MAIN MENU ICON.v2.svg"
   inkscape:export-xdpi="499.96481"
   inkscape:export-ydpi="499.96481">
  <defs
     id="defs4" />
  <sodipodi:namedview
     id="base"
     pagecolor="#ffffff"
     bordercolor="#666666"
     borderopacity="1.0"
     inkscape:pageopacity="0.0"
     inkscape:pageshadow="2"
     inkscape:zoom="0.1767767"
     inkscape:cx="1590.4785"
     inkscape:cy="1699.0737"
     inkscape:document-units="px"
     inkscape:current-layer="layer1"
     showgrid="false"
     inkscape:window-width="1920"
     inkscape:window-height="1017"
     inkscape:window-x="-8"
     inkscape:window-y="-8"
     inkscape:window-maximized="1"
     fit-margin-top="0"
     fit-margin-left="0"
     fit-margin-right="0"
     fit-margin-bottom="0" />
  <metadata
     id="metadata7">
    <rdf:RDF>
      <cc:Work
         rdf:about="">
        <dc:format>image/svg+xml</dc:format>
        <dc:type
           rdf:resource="http://purl.org/dc/dcmitype/StillImage" />
        <dc:title></dc:title>
      </cc:Work>
    </rdf:RDF>
  </metadata>
  <g
     inkscape:label="Layer 1"
     inkscape:groupmode="layer"
     id="layer1"
     transform="translate(1310.3091,1165.6248)">
    <path
       style="fill:#000000"
       d="m 32.905585,2169.64 c -345.620495,-75.9567 -592.413495,-214.1048 -855.822995,-479.0669 -157.59645,-158.5256 -220.75899,-243.2536 -298.06399,-399.8332 -252.4735,-511.37844 -252.437,-1033.99349 0.11,-1546.33809 139.37954,-282.76385 437.82149,-581.2057 720.58499,-720.5854 512.434,-252.58831 1034.4415,-252.58831 1546.87501,0 282.874,139.43395 581.271,437.87135 720.4885,720.5854 126.0505,255.97625178 171.416,426.98425 186.527,703.125 15.414,281.673 -45.7625,558.62099 -186.38,843.74999 -139.4635,282.7896 -437.928,581.2336 -720.6355,720.5855 C 787.52859,2188.8499 381.84159,2246.3245 32.908085,2169.64 Z M 642.68009,2006.3289 c 458.47401,-81.4556 867.84801,-390.8482 1078.43051,-815.0456 225.416,-454.07829 224.9305,-893.78779 -1.491,-1349.89079 -219.9005,-442.96725 -621.5075,-736.2663 -1119.61401,-817.66855 -206.865,-33.80656 -246.8485,-33.80656 -453.7135,0 -661.583,108.11815 -1159.14049,605.6758 -1267.25849,1267.2587 -33.807,206.865 -33.807,246.8483 0,453.7133 81.2985,497.47294 374.79149,899.75894 816.35349,1118.96164 331.607995,164.6187 597.967,204.735 947.293,142.6713 z m -821.3345,-968.1294 c -66.5135,-6.5116 55.7295,-27.5985 9.5395,-87.89064 l -61.983,-80.90705 606.811,0 606.8105,0 0,82.03125 c 0,68.87114 -8.46,82.34164 -52.734,83.96614 -174.4405,6.4003 -1049.1,8.61 -1108.444,2.8003 z m -57.572,-520.36019 0,-93.75 609.375,0 609.375,0 0,93.75 0,93.75 -609.375,0 -609.375,0 z m 9.773,-373.0469 c -5.375,-5.37105 -9.773,-44.921848 -9.773,-87.890598 l 0,-78.125 610.79,0 610.79,0 -7.2745,87.3045 -7.274,87.304548 -593.743,0.58615 c -326.558505,0.3225 -598.1405,-3.8084 -603.5155,-9.1795 z"
       id="path4197"
       inkscape:connector-curvature="0"
       sodipodi:nodetypes="csssssssssccssssssssssscccsssccccccccccscccccscc" />
    <path
       style="fill:#000000"
       d="m -233.84441,960.83706 0,-93.75 609.375,0 609.375,0 0,93.75 0,93.75004 -609.375,0 -609.375,0 z"
       id="path4197-6"
       inkscape:connector-curvature="0"
       sodipodi:nodetypes="ccccccccc" />
    <path
       style="fill:#000000"
       d="m -234.89791,63.760412 0,-93.75 609.375,0 609.375,0 0,93.75 0,93.749998 -609.375,0 -609.375,0 z"
       id="path4197-6-6"
       inkscape:connector-curvature="0"
       sodipodi:nodetypes="ccccccccc" />
  </g>
</svg>
