<?xml version="1.0" encoding="UTF-8" standalone="no"?>
<!-- Created with Inkscape (http://www.inkscape.org/) -->

<svg
   xmlns:dc="http://purl.org/dc/elements/1.1/"
   xmlns:cc="http://creativecommons.org/ns#"
   xmlns:rdf="http://www.w3.org/1999/02/22-rdf-syntax-ns#"
   xmlns:svg="http://www.w3.org/2000/svg"
   xmlns="http://www.w3.org/2000/svg"
   xmlns:sodipodi="http://sodipodi.sourceforge.net/DTD/sodipodi-0.dtd"
   xmlns:inkscape="http://www.inkscape.org/namespaces/inkscape"
   id="svg2"
   version="1.1"
   inkscape:version="0.91 r13725"
   width="7012.4341"
   height="7009.5542"
   viewBox="0 0 7012.4341 7009.5542"
   sodipodi:docname="CUSTOM DOLLAR SIGN ICON.v2.svg">
  <metadata
     id="metadata8">
    <rdf:RDF>
      <cc:Work
         rdf:about="">
        <dc:format>image/svg+xml</dc:format>
        <dc:type
           rdf:resource="http://purl.org/dc/dcmitype/StillImage" />
        <dc:title></dc:title>
      </cc:Work>
    </rdf:RDF>
  </metadata>
  <defs
     id="defs6" />
  <sodipodi:namedview
     pagecolor="#ffffff"
     bordercolor="#666666"
     borderopacity="1"
     objecttolerance="10"
     gridtolerance="10"
     guidetolerance="10"
     inkscape:pageopacity="0"
     inkscape:pageshadow="2"
     inkscape:window-width="1920"
     inkscape:window-height="1017"
     id="namedview4"
     showgrid="false"
     fit-margin-top="0"
     fit-margin-left="0"
     fit-margin-right="0"
     fit-margin-bottom="0"
     inkscape:zoom="0.074167645"
     inkscape:cx="3934.4073"
     inkscape:cy="3507.8443"
     inkscape:window-x="-8"
     inkscape:window-y="-8"
     inkscape:window-maximized="1"
     inkscape:current-layer="svg2" />
  <path
     style="fill:#000000"
     d="M 3053.5322,6983.4545 C 1929.9162,6853.3825 864.79545,6087.3138 355.68915,5043.0798 c -474.2522,-972.7445 -474.2522,-2107.3825 0,-3080.1268 C 1283.5307,59.845849 3665.4452,-583.15095 5459.3217,585.22945 c 261.3556,170.2252 794.4367,703.30615 964.6617,964.66195 784.601,1204.6397 784.601,2701.6102 0,3906.2499 -170.225,261.3555 -703.3061,794.4367 -964.6617,964.6617 -726.6472,473.277 -1538.2202,663.083 -2405.7895,562.6515 z M 4281.5955,6630.284 c 331.9405,-84.2037 734.1029,-260.9605 1011.786,-444.6965 238.9172,-158.0855 605.5759,-507.46 798.3303,-760.6962 212.0462,-278.5815 444.9524,-767.4653 543.7479,-1141.3587 71.4882,-270.5485 82.3796,-373.7385 82.3796,-780.5163 0,-406.778 -10.8913,-509.9677 -82.3796,-780.516 C 6536.6642,2348.6069 6303.758,1859.723 6091.7118,1581.1414 5898.9574,1327.9051 5532.2987,978.53085 5293.3815,820.44535 5019.4929,639.21995 4616.7618,461.15265 4278.2532,371.60745 c -261.2125,-69.0983 -368.3615,-80.2334 -772.0565,-80.2334 -403.6952,0 -510.844,11.1351 -772.0567,80.2334 -338.5083,89.5452 -741.2395,267.6125 -1015.128,448.8379 -238.917,158.0855 -605.576,507.45975 -798.33055,760.69605 -212.0463,278.5816 -444.9525,767.4655 -543.748,1141.3587 -71.488,270.5485 -82.3793,373.7382 -82.3793,780.5162 0,406.7778 10.8913,509.9678 82.3793,780.5163 98.7955,373.8934 331.7017,862.7772 543.748,1141.3587 192.75455,253.2362 559.41355,602.6105 798.33055,760.6962 386.395,255.668 914.6452,455.9655 1373.1122,520.645 313.3953,44.213 851.1325,9.878 1189.4713,-75.9485 z m -878.5238,-680.3927 c -21.74,-21.74 -37.5,-125.921 -37.5,-247.894 0,-228.276 8.869,-217.6133 -218.75,-262.9983 -279.5867,-55.7472 -584.0452,-288.4517 -689.4195,-526.9392 -88.2183,-199.6593 -109.8512,-433.4335 -46.0165,-497.2683 61.8155,-61.8154 158.9355,-68.4824 194.2943,-13.3377 13.7755,21.4842 42.1342,121.3285 63.019,221.8752 48.3067,232.5663 153.3967,369.5935 360.6757,470.287 455.056,221.06 1099.2378,82.2853 1271.692,-273.9577 44.7453,-92.4318 64.4691,-194.8435 64.3881,-334.3208 -0.225,-362.8124 -90.1428,-444.8049 -979.9941,-893.4764 -793.6302,-400.156 -950.5707,-550.9795 -1005.5262,-966.3365 -66.0538,-499.2361 246.4577,-930.3091 772.72,-1065.8775 l 212.9172,-54.8487 0,-205.5785 c 0,-217.7637 31.4825,-280.5785 140.625,-280.5785 109.6665,0 140.625,62.6881 140.625,284.7532 l 0,209.7532 132.8125,21.3716 c 496.0655,79.8249 867.1875,476.1993 867.1875,926.1944 0,113.2093 -57.9173,182.9275 -151.9635,182.9275 -62.8723,0 -129.3054,-100.9717 -129.9728,-197.5447 -1,-144.686 -97.8857,-335.2764 -228.9224,-450.3283 -242.675,-213.0717 -736.3185,-256.3413 -1087.9433,-95.3622 -304.4887,139.3997 -446.5452,428.794 -372.625,759.1042 55.6265,248.566 191.013,354.224 941.0518,734.4123 901.4583,456.9417 1054.1238,624.749 1041.2542,1144.5299 -11.545,466.2848 -327.648,807.591 -852.1312,920.0725 l -158.7478,34.0453 0,209.9102 c 0,222.2275 -30.939,284.9108 -140.625,284.9108 -36.0937,0 -82.5,-16.875 -103.125,-37.5 z"
     id="path4140"
     inkscape:connector-curvature="0" />
</svg>
