<?xml version="1.0" encoding="UTF-8" standalone="no"?>
<!-- Created with Inkscape (http://www.inkscape.org/) -->

<svg
   xmlns:dc="http://purl.org/dc/elements/1.1/"
   xmlns:cc="http://creativecommons.org/ns#"
   xmlns:rdf="http://www.w3.org/1999/02/22-rdf-syntax-ns#"
   xmlns:svg="http://www.w3.org/2000/svg"
   xmlns="http://www.w3.org/2000/svg"
   xmlns:sodipodi="http://sodipodi.sourceforge.net/DTD/sodipodi-0.dtd"
   xmlns:inkscape="http://www.inkscape.org/namespaces/inkscape"
   id="svg2"
   version="1.1"
   inkscape:version="0.91 r13725"
   width="3517.1763"
   height="5568.5054"
   viewBox="0 0 3517.1763 5568.5053"
   sodipodi:docname="CUSTOM WALKING MAN.v2.svg">
  <metadata
     id="metadata8">
    <rdf:RDF>
      <cc:Work
         rdf:about="">
        <dc:format>image/svg+xml</dc:format>
        <dc:type
           rdf:resource="http://purl.org/dc/dcmitype/StillImage" />
        <dc:title></dc:title>
      </cc:Work>
    </rdf:RDF>
  </metadata>
  <defs
     id="defs6" />
  <sodipodi:namedview
     pagecolor="#ffffff"
     bordercolor="#666666"
     borderopacity="1"
     objecttolerance="10"
     gridtolerance="10"
     guidetolerance="10"
     inkscape:pageopacity="0"
     inkscape:pageshadow="2"
     inkscape:window-width="1920"
     inkscape:window-height="1017"
     id="namedview4"
     showgrid="false"
     fit-margin-top="0"
     fit-margin-left="0"
     fit-margin-right="0"
     fit-margin-bottom="0"
     inkscape:zoom="0.07972973"
     inkscape:cx="1758.1179"
     inkscape:cy="2784.2922"
     inkscape:window-x="-8"
     inkscape:window-y="-8"
     inkscape:window-maximized="1"
     inkscape:current-layer="svg2" />
  <path
     style="fill:#000000"
     d="M 606.75675,4103.6617 C 990.4251,2315.3816 1002.7604,2052.8803 703.12501,2052.8803 c -128.90626,0 -234.37501,210.9375 -234.37501,468.75 0,257.8125 -105.46875,468.75 -234.375,468.75 C 105.46875,2990.3803 0,2695.1615 0,2334.3383 c 0,-540.7706 148.60522,-709.7777 845.75925,-961.8721 811.44065,-293.4206 871.44665,-277.7068 1478.79525,387.2544 348.1694,381.1972 784.9605,746.866 970.6467,812.5978 185.6861,65.732 272.1392,190.635 192.1173,277.5624 -80.0215,86.9276 -423.2404,31.4999 -762.709,-123.1725 -748.7358,-341.1468 -1050.4599,-111.7642 -664.9559,505.5257 342.0455,547.7022 380.1105,2336.2714 49.7214,2336.2714 -128.9062,0 -234.375,-356.2267 -234.375,-791.6145 0,-435.3882 -145.8309,-912.6435 -324.069,-1060.5681 -265.0764,-219.994 -353.0203,-75.8913 -483.1108,791.6147 -95.8877,639.4249 -281.40545,1060.5679 -467.19073,1060.5679 -253.96162,0 -252.88425,-257.5894 6.12563,-1464.8437 z M 1560.7548,707.01057 c -67.9664,-109.97175 -35.71,-342.1176 71.6807,-515.8794 237.7021,-384.61003 1025.6448,-136.066801 887.1643,279.84105 -117.2848,352.24875 -785.3787,516.7131 -958.845,236.03835 z"
     id="path4204"
     inkscape:connector-curvature="0" />
</svg>
